<?xml version="1.0" encoding="utf-8"?>
<!-- Generator: Adobe Illustrator 26.0.1, SVG Export Plug-In . SVG Version: 6.00 Build 0)  -->
<svg version="1.1" id="레이어_1" xmlns="http://www.w3.org/2000/svg" xmlns:xlink="http://www.w3.org/1999/xlink" x="0px"
	 y="0px" viewBox="0 0 128 476" style="enable-background:new 0 0 128 476;" xml:space="preserve">
<style type="text/css">
	.st0{fill-rule:evenodd;clip-rule:evenodd;fill:#888888;}
	.st1{fill-rule:evenodd;clip-rule:evenodd;fill-opacity:0.7;}
	.st2{opacity:0.9;}
</style>
<g>
	<path class="st0" d="M50.9,149c0.5-0.5,1.3-0.5,1.8,0l6.8,6.8l6.8-6.8c0.5-0.5,1.3-0.5,1.8,0s0.5,1.3,0,1.8l-7.7,7.7
		c-0.5,0.5-1.3,0.5-1.8,0l-7.7-7.7C50.4,150.3,50.4,149.5,50.9,149z"/>
	<path class="st1" d="M50.9,149c0.5-0.5,1.3-0.5,1.8,0l6.8,6.8l6.8-6.8c0.5-0.5,1.3-0.5,1.8,0s0.5,1.3,0,1.8l-7.7,7.7
		c-0.5,0.5-1.3,0.5-1.8,0l-7.7-7.7C50.4,150.3,50.4,149.5,50.9,149z"/>
	<path class="st0" d="M50.9,140.6c0.5-0.5,1.3-0.5,1.8,0l6.8,6.8l6.8-6.8c0.5-0.5,1.3-0.5,1.8,0s0.5,1.3,0,1.8l-7.7,7.7
		c-0.5,0.5-1.3,0.5-1.8,0l-7.7-7.7C50.4,141.9,50.4,141.1,50.9,140.6z"/>
	<path class="st1" d="M50.9,140.6c0.5-0.5,1.3-0.5,1.8,0l6.8,6.8l6.8-6.8c0.5-0.5,1.3-0.5,1.8,0s0.5,1.3,0,1.8l-7.7,7.7
		c-0.5,0.5-1.3,0.5-1.8,0l-7.7-7.7C50.4,141.9,50.4,141.1,50.9,140.6z"/>
</g>
<g>
	<path class="st0" d="M68.1,110.1c-0.5,0.5-1.3,0.5-1.8,0l-6.8-6.8l-6.8,6.8c-0.5,0.5-1.3,0.5-1.8,0s-0.5-1.3,0-1.8l7.7-7.7
		c0.5-0.5,1.3-0.5,1.8,0l7.7,7.7C68.6,108.8,68.6,109.6,68.1,110.1z"/>
	<path class="st1" d="M68.1,110.1c-0.5,0.5-1.3,0.5-1.8,0l-6.8-6.8l-6.8,6.8c-0.5,0.5-1.3,0.5-1.8,0s-0.5-1.3,0-1.8l7.7-7.7
		c0.5-0.5,1.3-0.5,1.8,0l7.7,7.7C68.6,108.8,68.6,109.6,68.1,110.1z"/>
	<path class="st0" d="M68.1,118.5c-0.5,0.5-1.3,0.5-1.8,0l-6.8-6.8l-6.8,6.8c-0.5,0.5-1.3,0.5-1.8,0s-0.5-1.3,0-1.8l7.7-7.7
		c0.5-0.5,1.3-0.5,1.8,0l7.7,7.7C68.6,117.2,68.6,118,68.1,118.5z"/>
	<path class="st1" d="M68.1,118.5c-0.5,0.5-1.3,0.5-1.8,0l-6.8-6.8l-6.8,6.8c-0.5,0.5-1.3,0.5-1.8,0s-0.5-1.3,0-1.8l7.7-7.7
		c0.5-0.5,1.3-0.5,1.8,0l7.7,7.7C68.6,117.2,68.6,118,68.1,118.5z"/>
</g>
<g class="st2">
	<path class="st0" d="M59,78.2c-0.5-0.5-0.5-1.3,0-1.8l6.6-6.9L59,62.6c-0.5-0.5-0.5-1.3,0-1.8s1.3-0.5,1.8,0l7.4,7.8
		c0.5,0.5,0.5,1.2,0,1.7l-7.4,7.8C60.3,78.6,59.5,78.6,59,78.2z"/>
	<path class="st1" d="M59,78.2c-0.5-0.5-0.5-1.3,0-1.8l6.6-6.9L59,62.6c-0.5-0.5-0.5-1.3,0-1.8s1.3-0.5,1.8,0l7.4,7.8
		c0.5,0.5,0.5,1.2,0,1.7l-7.4,7.8C60.3,78.6,59.5,78.6,59,78.2z"/>
	<path class="st0" d="M50.8,78.2c-0.5-0.5-0.5-1.3,0-1.8l6.6-6.9l-6.6-6.9c-0.5-0.5-0.5-1.3,0-1.8s1.3-0.5,1.8,0l7.4,7.8
		c0.5,0.5,0.5,1.2,0,1.7l-7.4,7.8C52.1,78.6,51.3,78.6,50.8,78.2z"/>
	<path class="st1" d="M50.8,78.2c-0.5-0.5-0.5-1.3,0-1.8l6.6-6.9l-6.6-6.9c-0.5-0.5-0.5-1.3,0-1.8s1.3-0.5,1.8,0l7.4,7.8
		c0.5,0.5,0.5,1.2,0,1.7l-7.4,7.8C52.1,78.6,51.3,78.6,50.8,78.2z"/>
</g>
<g>
	<path class="st0" d="M68.1,20.8c0.5,0.5,0.5,1.3,0,1.8l-6.6,6.9l6.6,6.9c0.5,0.5,0.5,1.3,0,1.8s-1.3,0.5-1.8,0l-7.4-7.8
		c-0.5-0.5-0.5-1.2,0-1.7l7.4-7.8C66.8,20.4,67.6,20.4,68.1,20.8z"/>
	<path class="st1" d="M68.1,20.8c0.5,0.5,0.5,1.3,0,1.8l-6.6,6.9l6.6,6.9c0.5,0.5,0.5,1.3,0,1.8s-1.3,0.5-1.8,0l-7.4-7.8
		c-0.5-0.5-0.5-1.2,0-1.7l7.4-7.8C66.8,20.4,67.6,20.4,68.1,20.8z"/>
	<path class="st0" d="M60.2,20.8c0.5,0.5,0.5,1.3,0,1.8l-6.6,6.9l6.6,6.9c0.5,0.5,0.5,1.3,0,1.8s-1.3,0.5-1.8,0l-7.4-7.8
		c-0.5-0.5-0.5-1.2,0-1.7l7.4-7.8C58.9,20.4,59.7,20.4,60.2,20.8z"/>
	<path class="st1" d="M60.2,20.8c0.5,0.5,0.5,1.3,0,1.8l-6.6,6.9l6.6,6.9c0.5,0.5,0.5,1.3,0,1.8s-1.3,0.5-1.8,0l-7.4-7.8
		c-0.5-0.5-0.5-1.2,0-1.7l7.4-7.8C58.9,20.4,59.7,20.4,60.2,20.8z"/>
</g>
<path class="st0" d="M10.9,144.8c0.5-0.5,1.3-0.5,1.8,0l6.8,6.8l6.8-6.8c0.5-0.5,1.3-0.5,1.8,0s0.5,1.3,0,1.8l-7.7,7.7
	c-0.5,0.5-1.3,0.5-1.8,0l-7.7-7.7C10.4,146.1,10.4,145.2,10.9,144.8z"/>
<path class="st1" d="M10.9,144.8c0.5-0.5,1.3-0.5,1.8,0l6.8,6.8l6.8-6.8c0.5-0.5,1.3-0.5,1.8,0s0.5,1.3,0,1.8l-7.7,7.7
	c-0.5,0.5-1.3,0.5-1.8,0l-7.7-7.7C10.4,146.1,10.4,145.2,10.9,144.8z"/>
<path class="st0" d="M28.1,114.2c-0.5,0.5-1.3,0.5-1.8,0l-6.8-6.8l-6.8,6.8c-0.5,0.5-1.3,0.5-1.8,0s-0.5-1.3,0-1.8l7.7-7.7
	c0.5-0.5,1.3-0.5,1.8,0l7.7,7.7C28.6,113,28.6,113.8,28.1,114.2z"/>
<path class="st1" d="M28.1,114.2c-0.5,0.5-1.3,0.5-1.8,0l-6.8-6.8l-6.8,6.8c-0.5,0.5-1.3,0.5-1.8,0s-0.5-1.3,0-1.8l7.7-7.7
	c0.5-0.5,1.3-0.5,1.8,0l7.7,7.7C28.6,113,28.6,113.8,28.1,114.2z"/>
<path class="st0" d="M14.7,78.1c-0.5-0.5-0.5-1.3,0-1.8l6.8-6.8l-6.8-6.8c-0.5-0.5-0.5-1.3,0-1.8s1.3-0.5,1.8,0l7.7,7.7
	c0.5,0.5,0.5,1.3,0,1.8l-7.7,7.7C16,78.6,15.2,78.6,14.7,78.1z"/>
<path class="st1" d="M14.7,78.1c-0.5-0.5-0.5-1.3,0-1.8l6.8-6.8l-6.8-6.8c-0.5-0.5-0.5-1.3,0-1.8s1.3-0.5,1.8,0l7.7,7.7
	c0.5,0.5,0.5,1.3,0,1.8l-7.7,7.7C16,78.6,15.2,78.6,14.7,78.1z"/>
<path class="st0" d="M24.2,20.9c0.5,0.5,0.5,1.3,0,1.8l-6.8,6.8l6.8,6.8c0.5,0.5,0.5,1.3,0,1.8s-1.3,0.5-1.8,0l-7.7-7.7
	c-0.5-0.5-0.5-1.3,0-1.8l7.7-7.7C23,20.4,23.8,20.4,24.2,20.9z"/>
<path class="st1" d="M24.2,20.9c0.5,0.5,0.5,1.3,0,1.8l-6.8,6.8l6.8,6.8c0.5,0.5,0.5,1.3,0,1.8s-1.3,0.5-1.8,0l-7.7-7.7
	c-0.5-0.5-0.5-1.3,0-1.8l7.7-7.7C23,20.4,23.8,20.4,24.2,20.9z"/>
<g>
	<path class="st0" d="M59.5,397c4.1,0,7.5-3.3,7.5-7.5s-3.3-7.5-7.5-7.5s-7.5,3.3-7.5,7.5S55.4,397,59.5,397z M59.5,398.5
		c4.9,0,9-4,9-9s-4.1-9-9-9s-9,4-9,9S54.5,398.5,59.5,398.5z"/>
	<path class="st1" d="M59.5,397c4.1,0,7.5-3.3,7.5-7.5s-3.3-7.5-7.5-7.5s-7.5,3.3-7.5,7.5S55.4,397,59.5,397z M59.5,398.5
		c4.9,0,9-4,9-9s-4.1-9-9-9s-9,4-9,9S54.5,398.5,59.5,398.5z"/>
	<path class="st0" d="M59.5,395.5c0.5,0,0.7-0.4,0.7-0.7v-10.5c0-0.4-0.4-0.7-0.7-0.7s-0.7,0.4-0.7,0.7v10.5
		C58.8,395.2,59,395.5,59.5,395.5z"/>
	<path class="st1" d="M59.5,395.5c0.5,0,0.7-0.4,0.7-0.7v-10.5c0-0.4-0.4-0.7-0.7-0.7s-0.7,0.4-0.7,0.7v10.5
		C58.8,395.2,59,395.5,59.5,395.5z"/>
	<path class="st0" d="M63.7,387.8c0.4-0.3,0.4-0.8,0-1.1l-3.5-3c-0.4-0.3-0.9-0.3-1.3,0c-0.4,0.3-0.4,0.8,0,1.1l3.5,3
		C62.8,388.1,63.4,388.1,63.7,387.8z"/>
	<path class="st1" d="M63.7,387.8c0.4-0.3,0.4-0.8,0-1.1l-3.5-3c-0.4-0.3-0.9-0.3-1.3,0c-0.4,0.3-0.4,0.8,0,1.1l3.5,3
		C62.8,388.1,63.4,388.1,63.7,387.8z"/>
	<path class="st0" d="M60,383.7c-0.4-0.3-0.9-0.3-1.3,0l-3.5,3c-0.4,0.3-0.4,0.8,0,1.1c0.4,0.3,0.9,0.3,1.3,0l3.5-3
		C60.3,384.5,60.3,384,60,383.7z"/>
	<path class="st1" d="M60,383.7c-0.4-0.3-0.9-0.3-1.3,0l-3.5,3c-0.4,0.3-0.4,0.8,0,1.1c0.4,0.3,0.9,0.3,1.3,0l3.5-3
		C60.3,384.5,60.3,384,60,383.7z"/>
	<path class="st0" d="M55.2,391.3c0.3-0.4,0.7-0.4,1.1-0.1l3.2,2.6l3.2-2.6c0.4-0.3,0.8-0.2,1.1,0.1c0.3,0.4,0.2,0.8-0.1,1.1l-3.8,3
		H59l-3.8-3C55,392.1,54.9,391.6,55.2,391.3z"/>
	<path class="st1" d="M55.2,391.3c0.3-0.4,0.7-0.4,1.1-0.1l3.2,2.6l3.2-2.6c0.4-0.3,0.8-0.2,1.1,0.1c0.3,0.4,0.2,0.8-0.1,1.1l-3.8,3
		H59l-3.8-3C55,392.1,54.9,391.6,55.2,391.3z"/>
</g>
<g>
	<path class="st0" d="M59.5,357c4.1,0,7.5-3.3,7.5-7.5s-3.3-7.5-7.5-7.5s-7.5,3.3-7.5,7.5S55.4,357,59.5,357z M59.5,358.5
		c4.9,0,9-4,9-9s-4.1-9-9-9s-9,4-9,9S54.5,358.5,59.5,358.5z"/>
	<path class="st1" d="M59.5,357c4.1,0,7.5-3.3,7.5-7.5s-3.3-7.5-7.5-7.5s-7.5,3.3-7.5,7.5S55.4,357,59.5,357z M59.5,358.5
		c4.9,0,9-4,9-9s-4.1-9-9-9s-9,4-9,9S54.5,358.5,59.5,358.5z"/>
	<path class="st0" d="M53.5,349.5c0,0.5,0.4,0.7,0.7,0.7h10.5c0.4,0,0.7-0.4,0.7-0.7s-0.4-0.7-0.7-0.7H54.3
		C53.8,348.8,53.5,349,53.5,349.5z"/>
	<path class="st1" d="M53.5,349.5c0,0.5,0.4,0.7,0.7,0.7h10.5c0.4,0,0.7-0.4,0.7-0.7s-0.4-0.7-0.7-0.7H54.3
		C53.8,348.8,53.5,349,53.5,349.5z"/>
	<path class="st0" d="M61.2,353.7c0.3,0.4,0.8,0.4,1.1,0l3-3.5c0.3-0.4,0.3-0.9,0-1.3s-0.8-0.4-1.1,0l-3,3.5
		C60.9,352.8,60.9,353.4,61.2,353.7z"/>
	<path class="st1" d="M61.2,353.7c0.3,0.4,0.8,0.4,1.1,0l3-3.5c0.3-0.4,0.3-0.9,0-1.3s-0.8-0.4-1.1,0l-3,3.5
		C60.9,352.8,60.9,353.4,61.2,353.7z"/>
	<path class="st0" d="M65.3,349.9c0.3-0.4,0.3-0.9,0-1.3l-3-3.5c-0.3-0.4-0.8-0.4-1.1,0c-0.3,0.4-0.3,0.9,0,1.3l3,3.5
		C64.5,350.3,65,350.3,65.3,349.9z"/>
	<path class="st1" d="M65.3,349.9c0.3-0.4,0.3-0.9,0-1.3l-3-3.5c-0.3-0.4-0.8-0.4-1.1,0c-0.3,0.4-0.3,0.9,0,1.3l3,3.5
		C64.5,350.3,65,350.3,65.3,349.9z"/>
	<path class="st0" d="M57.7,345.2c0.4,0.3,0.4,0.7,0.1,1.1l-2.6,3.2l2.6,3.2c0.3,0.4,0.2,0.8-0.1,1.1c-0.4,0.3-0.8,0.2-1.1-0.1
		l-3-3.8V349l3-3.8C56.9,345,57.4,344.9,57.7,345.2z"/>
	<path class="st1" d="M57.7,345.2c0.4,0.3,0.4,0.7,0.1,1.1l-2.6,3.2l2.6,3.2c0.3,0.4,0.2,0.8-0.1,1.1c-0.4,0.3-0.8,0.2-1.1-0.1
		l-3-3.8V349l3-3.8C56.9,345,57.4,344.9,57.7,345.2z"/>
</g>
<g>
	<path class="st0" d="M59.5,303.5c-0.5,0-0.7,0.4-0.7,0.7v10.5c0,0.4,0.4,0.7,0.7,0.7s0.7-0.4,0.7-0.7v-10.5
		C60.2,303.8,60,303.5,59.5,303.5z"/>
	<path class="st1" d="M59.5,303.5c-0.5,0-0.7,0.4-0.7,0.7v10.5c0,0.4,0.4,0.7,0.7,0.7s0.7-0.4,0.7-0.7v-10.5
		C60.2,303.8,60,303.5,59.5,303.5z"/>
	<path class="st0" d="M55.3,311.2c-0.4,0.3-0.4,0.8,0,1.1l3.5,3c0.4,0.3,0.9,0.3,1.3,0s0.4-0.8,0-1.1l-3.5-3
		C56.2,310.9,55.6,310.9,55.3,311.2z"/>
	<path class="st1" d="M55.3,311.2c-0.4,0.3-0.4,0.8,0,1.1l3.5,3c0.4,0.3,0.9,0.3,1.3,0s0.4-0.8,0-1.1l-3.5-3
		C56.2,310.9,55.6,310.9,55.3,311.2z"/>
	<path class="st0" d="M59,315.3c0.4,0.3,0.9,0.3,1.3,0l3.5-3c0.4-0.3,0.4-0.8,0-1.1c-0.4-0.3-0.9-0.3-1.3,0l-3.5,3
		C58.7,314.5,58.7,315,59,315.3z"/>
	<path class="st1" d="M59,315.3c0.4,0.3,0.9,0.3,1.3,0l3.5-3c0.4-0.3,0.4-0.8,0-1.1c-0.4-0.3-0.9-0.3-1.3,0l-3.5,3
		C58.7,314.5,58.7,315,59,315.3z"/>
	<path class="st0" d="M59.5,317c4.1,0,7.5-3.3,7.5-7.5s-3.3-7.5-7.5-7.5s-7.5,3.3-7.5,7.5S55.4,317,59.5,317z M59.5,318.5
		c4.9,0,9-4,9-9s-4.1-9-9-9s-9,4-9,9S54.5,318.5,59.5,318.5z"/>
	<path class="st1" d="M59.5,317c4.1,0,7.5-3.3,7.5-7.5s-3.3-7.5-7.5-7.5s-7.5,3.3-7.5,7.5S55.4,317,59.5,317z M59.5,318.5
		c4.9,0,9-4,9-9s-4.1-9-9-9s-9,4-9,9S54.5,318.5,59.5,318.5z"/>
</g>
<g>
	<path class="st0" d="M19.5,395.5c0.4,0,0.7-0.4,0.7-0.7v-10.5c0-0.4-0.4-0.7-0.7-0.7c-0.4,0-0.7,0.4-0.7,0.7v10.5
		C18.8,395.2,19,395.5,19.5,395.5z"/>
	<path class="st1" d="M19.5,395.5c0.4,0,0.7-0.4,0.7-0.7v-10.5c0-0.4-0.4-0.7-0.7-0.7c-0.4,0-0.7,0.4-0.7,0.7v10.5
		C18.8,395.2,19,395.5,19.5,395.5z"/>
	<path class="st0" d="M23.7,387.8c0.4-0.3,0.4-0.8,0-1.1l-3.5-3c-0.4-0.3-0.9-0.3-1.3,0s-0.4,0.8,0,1.1l3.5,3
		C22.8,388.1,23.4,388.1,23.7,387.8z"/>
	<path class="st1" d="M23.7,387.8c0.4-0.3,0.4-0.8,0-1.1l-3.5-3c-0.4-0.3-0.9-0.3-1.3,0s-0.4,0.8,0,1.1l3.5,3
		C22.8,388.1,23.4,388.1,23.7,387.8z"/>
	<path class="st0" d="M19.9,383.7c-0.4-0.3-0.9-0.3-1.3,0l-3.5,3c-0.4,0.3-0.4,0.8,0,1.1c0.4,0.3,0.9,0.3,1.3,0l3.5-3
		C20.3,384.5,20.3,384,19.9,383.7z"/>
	<path class="st1" d="M19.9,383.7c-0.4-0.3-0.9-0.3-1.3,0l-3.5,3c-0.4,0.3-0.4,0.8,0,1.1c0.4,0.3,0.9,0.3,1.3,0l3.5-3
		C20.3,384.5,20.3,384,19.9,383.7z"/>
	<path class="st0" d="M19.5,397c4.1,0,7.5-3.3,7.5-7.5s-3.3-7.5-7.5-7.5s-7.5,3.3-7.5,7.5S15.4,397,19.5,397z M19.5,398.5
		c4.9,0,9-4,9-9s-4.1-9-9-9s-9,4-9,9S14.5,398.5,19.5,398.5z"/>
	<path class="st1" d="M19.5,397c4.1,0,7.5-3.3,7.5-7.5s-3.3-7.5-7.5-7.5s-7.5,3.3-7.5,7.5S15.4,397,19.5,397z M19.5,398.5
		c4.9,0,9-4,9-9s-4.1-9-9-9s-9,4-9,9S14.5,398.5,19.5,398.5z"/>
</g>
<g>
	<path class="st0" d="M13.5,349.5c0,0.5,0.4,0.7,0.7,0.7h10.5c0.4,0,0.7-0.4,0.7-0.7s-0.4-0.7-0.7-0.7H14.3
		C13.8,348.8,13.5,349,13.5,349.5z"/>
	<path class="st1" d="M13.5,349.5c0,0.5,0.4,0.7,0.7,0.7h10.5c0.4,0,0.7-0.4,0.7-0.7s-0.4-0.7-0.7-0.7H14.3
		C13.8,348.8,13.5,349,13.5,349.5z"/>
	<path class="st0" d="M21.2,353.7c0.3,0.4,0.8,0.4,1.1,0l3-3.5c0.3-0.4,0.3-0.9,0-1.3c-0.3-0.4-0.8-0.4-1.1,0l-3,3.5
		C20.9,352.8,20.9,353.4,21.2,353.7z"/>
	<path class="st1" d="M21.2,353.7c0.3,0.4,0.8,0.4,1.1,0l3-3.5c0.3-0.4,0.3-0.9,0-1.3c-0.3-0.4-0.8-0.4-1.1,0l-3,3.5
		C20.9,352.8,20.9,353.4,21.2,353.7z"/>
	<path class="st0" d="M25.3,349.9c0.3-0.4,0.3-0.9,0-1.3l-3-3.5c-0.3-0.4-0.8-0.4-1.1,0c-0.3,0.4-0.3,0.9,0,1.3l3,3.5
		C24.5,350.3,25,350.3,25.3,349.9z"/>
	<path class="st1" d="M25.3,349.9c0.3-0.4,0.3-0.9,0-1.3l-3-3.5c-0.3-0.4-0.8-0.4-1.1,0c-0.3,0.4-0.3,0.9,0,1.3l3,3.5
		C24.5,350.3,25,350.3,25.3,349.9z"/>
	<path class="st0" d="M19.5,357c4.1,0,7.5-3.3,7.5-7.5s-3.3-7.5-7.5-7.5s-7.5,3.3-7.5,7.5S15.4,357,19.5,357z M19.5,358.5
		c4.9,0,9-4,9-9s-4.1-9-9-9s-9,4-9,9S14.5,358.5,19.5,358.5z"/>
	<path class="st1" d="M19.5,357c4.1,0,7.5-3.3,7.5-7.5s-3.3-7.5-7.5-7.5s-7.5,3.3-7.5,7.5S15.4,357,19.5,357z M19.5,358.5
		c4.9,0,9-4,9-9s-4.1-9-9-9s-9,4-9,9S14.5,358.5,19.5,358.5z"/>
</g>
<g>
	<path class="st0" d="M25.5,309.5c0-0.5-0.4-0.7-0.7-0.7H14.3c-0.4,0-0.7,0.4-0.7,0.7s0.4,0.7,0.7,0.7h10.5
		C25.2,310.2,25.5,309.9,25.5,309.5z"/>
	<path class="st1" d="M25.5,309.5c0-0.5-0.4-0.7-0.7-0.7H14.3c-0.4,0-0.7,0.4-0.7,0.7s0.4,0.7,0.7,0.7h10.5
		C25.2,310.2,25.5,309.9,25.5,309.5z"/>
	<path class="st0" d="M17.8,305.3c-0.3-0.4-0.8-0.4-1.1,0l-3,3.5c-0.3,0.4-0.3,0.9,0,1.3s0.8,0.4,1.1,0l3-3.5
		C18.1,306.2,18.1,305.6,17.8,305.3z"/>
	<path class="st1" d="M17.8,305.3c-0.3-0.4-0.8-0.4-1.1,0l-3,3.5c-0.3,0.4-0.3,0.9,0,1.3s0.8,0.4,1.1,0l3-3.5
		C18.1,306.2,18.1,305.6,17.8,305.3z"/>
	<path class="st0" d="M13.7,309c-0.3,0.4-0.3,0.9,0,1.3l3,3.5c0.3,0.4,0.8,0.4,1.1,0c0.3-0.4,0.3-0.9,0-1.3l-3-3.5
		C14.5,308.7,14,308.7,13.7,309z"/>
	<path class="st1" d="M13.7,309c-0.3,0.4-0.3,0.9,0,1.3l3,3.5c0.3,0.4,0.8,0.4,1.1,0c0.3-0.4,0.3-0.9,0-1.3l-3-3.5
		C14.5,308.7,14,308.7,13.7,309z"/>
	<path class="st0" d="M19.5,317c4.1,0,7.5-3.3,7.5-7.5s-3.3-7.5-7.5-7.5s-7.5,3.3-7.5,7.5S15.4,317,19.5,317z M19.5,318.5
		c4.9,0,9-4,9-9s-4.1-9-9-9s-9,4-9,9S14.5,318.5,19.5,318.5z"/>
	<path class="st1" d="M19.5,317c4.1,0,7.5-3.3,7.5-7.5s-3.3-7.5-7.5-7.5s-7.5,3.3-7.5,7.5S15.4,317,19.5,317z M19.5,318.5
		c4.9,0,9-4,9-9s-4.1-9-9-9s-9,4-9,9S14.5,318.5,19.5,318.5z"/>
</g>
<g>
	<path class="st0" d="M59.6,278.2c0.6,0,1.1-0.5,1.1-1.1v-15.2c0-0.6-0.5-1.1-1.1-1.1s-1.1,0.5-1.1,1.1v15.2
		C58.5,277.7,59,278.2,59.6,278.2z"/>
	<path class="st1" d="M59.6,278.2c0.6,0,1.1-0.5,1.1-1.1v-15.2c0-0.6-0.5-1.1-1.1-1.1s-1.1,0.5-1.1,1.1v15.2
		C58.5,277.7,59,278.2,59.6,278.2z"/>
	<path class="st0" d="M65.7,267c0.5-0.4,0.5-1.1,0-1.5l-5.1-4.3c-0.5-0.4-1.3-0.4-1.8,0s-0.5,1.1,0,1.5l5.1,4.3
		C64.4,267.5,65.2,267.5,65.7,267z"/>
	<path class="st1" d="M65.7,267c0.5-0.4,0.5-1.1,0-1.5l-5.1-4.3c-0.5-0.4-1.3-0.4-1.8,0s-0.5,1.1,0,1.5l5.1,4.3
		C64.4,267.5,65.2,267.5,65.7,267z"/>
	<path class="st0" d="M60.2,261.2c-0.5-0.4-1.3-0.4-1.8,0l-5.1,4.3c-0.5,0.4-0.5,1.1,0,1.5s1.3,0.4,1.8,0l5.1-4.3
		C60.8,262.3,60.8,261.6,60.2,261.2z"/>
	<path class="st1" d="M60.2,261.2c-0.5-0.4-1.3-0.4-1.8,0l-5.1,4.3c-0.5,0.4-0.5,1.1,0,1.5s1.3,0.4,1.8,0l5.1-4.3
		C60.8,262.3,60.8,261.6,60.2,261.2z"/>
	<path class="st0" d="M53.2,272.1c0.4-0.5,1.1-0.5,1.5-0.2l4.7,3.8l4.7-3.8c0.5-0.4,1.1-0.3,1.5,0.2s0.3,1.1-0.2,1.5l-5.4,4.3h-1.4
		l-5.4-4.3C53,273.2,53,272.6,53.2,272.1z"/>
	<path class="st1" d="M53.2,272.1c0.4-0.5,1.1-0.5,1.5-0.2l4.7,3.8l4.7-3.8c0.5-0.4,1.1-0.3,1.5,0.2s0.3,1.1-0.2,1.5l-5.4,4.3h-1.4
		l-5.4-4.3C53,273.2,53,272.6,53.2,272.1z"/>
</g>
<g>
	<path class="st0" d="M50.8,229.5c0,0.6,0.5,1.1,1.1,1.1h15.2c0.6,0,1.1-0.5,1.1-1.1s-0.5-1.1-1.1-1.1H51.9
		C51.3,228.4,50.8,228.9,50.8,229.5z"/>
	<path class="st1" d="M50.8,229.5c0,0.6,0.5,1.1,1.1,1.1h15.2c0.6,0,1.1-0.5,1.1-1.1s-0.5-1.1-1.1-1.1H51.9
		C51.3,228.4,50.8,228.9,50.8,229.5z"/>
	<path class="st0" d="M62,235.6c0.4,0.5,1.1,0.5,1.5,0l4.3-5.1c0.4-0.5,0.4-1.3,0-1.8s-1.1-0.5-1.5,0l-4.3,5.1
		C61.6,234.3,61.6,235.1,62,235.6z"/>
	<path class="st1" d="M62,235.6c0.4,0.5,1.1,0.5,1.5,0l4.3-5.1c0.4-0.5,0.4-1.3,0-1.8s-1.1-0.5-1.5,0l-4.3,5.1
		C61.6,234.3,61.6,235.1,62,235.6z"/>
	<path class="st0" d="M67.8,230.2c0.4-0.5,0.4-1.3,0-1.8l-4.3-5.1c-0.4-0.5-1.1-0.5-1.5,0s-0.4,1.3,0,1.8l4.3,5.1
		C66.7,230.7,67.4,230.7,67.8,230.2z"/>
	<path class="st1" d="M67.8,230.2c0.4-0.5,0.4-1.3,0-1.8l-4.3-5.1c-0.4-0.5-1.1-0.5-1.5,0s-0.4,1.3,0,1.8l4.3,5.1
		C66.7,230.7,67.4,230.7,67.8,230.2z"/>
	<path class="st0" d="M56.9,223.2c0.5,0.4,0.5,1.1,0.2,1.5l-3.8,4.7l3.8,4.7c0.4,0.5,0.3,1.1-0.2,1.5s-1.1,0.3-1.5-0.2l-4.3-5.4
		v-1.4l4.3-5.4C55.8,222.9,56.5,222.9,56.9,223.2z"/>
	<path class="st1" d="M56.9,223.2c0.5,0.4,0.5,1.1,0.2,1.5l-3.8,4.7l3.8,4.7c0.4,0.5,0.3,1.1-0.2,1.5s-1.1,0.3-1.5-0.2l-4.3-5.4
		v-1.4l4.3-5.4C55.8,222.9,56.5,222.9,56.9,223.2z"/>
</g>
<g>
	<path class="st0" d="M53.3,192c-0.5,0.4-0.5,1.1,0,1.5l5.1,4.3c0.5,0.4,1.3,0.4,1.8,0s0.5-1.1,0-1.5l-5.1-4.3
		C54.6,191.6,53.8,191.6,53.3,192z"/>
	<path class="st1" d="M53.3,192c-0.5,0.4-0.5,1.1,0,1.5l5.1,4.3c0.5,0.4,1.3,0.4,1.8,0s0.5-1.1,0-1.5l-5.1-4.3
		C54.6,191.6,53.8,191.6,53.3,192z"/>
	<g>
		<path class="st0" d="M59.4,180.8c-0.6,0-1.1,0.5-1.1,1.1v15.2c0,0.6,0.5,1.1,1.1,1.1s1.1-0.5,1.1-1.1v-15.2
			C60.5,181.3,60,180.8,59.4,180.8z"/>
		<path class="st1" d="M59.4,180.8c-0.6,0-1.1,0.5-1.1,1.1v15.2c0,0.6,0.5,1.1,1.1,1.1s1.1-0.5,1.1-1.1v-15.2
			C60.5,181.3,60,180.8,59.4,180.8z"/>
		<path class="st0" d="M58.8,197.9c0.5,0.4,1.3,0.4,1.8,0l5.1-4.3c0.5-0.4,0.5-1.1,0-1.5s-1.3-0.4-1.8,0l-5.1,4.3
			C58.2,196.8,58.2,197.4,58.8,197.9z"/>
		<path class="st1" d="M58.8,197.9c0.5,0.4,1.3,0.4,1.8,0l5.1-4.3c0.5-0.4,0.5-1.1,0-1.5s-1.3-0.4-1.8,0l-5.1,4.3
			C58.2,196.8,58.2,197.4,58.8,197.9z"/>
	</g>
</g>
<g>
	<path class="st0" d="M19.5,278.2c0.6,0,1.1-0.5,1.1-1.1v-15.2c0-0.6-0.5-1.1-1.1-1.1s-1.1,0.5-1.1,1.1v15.2
		C18.5,277.7,19,278.2,19.5,278.2z"/>
	<path class="st1" d="M19.5,278.2c0.6,0,1.1-0.5,1.1-1.1v-15.2c0-0.6-0.5-1.1-1.1-1.1s-1.1,0.5-1.1,1.1v15.2
		C18.5,277.7,19,278.2,19.5,278.2z"/>
	<path class="st0" d="M25.6,267c0.5-0.4,0.5-1.1,0-1.5l-5.1-4.3c-0.5-0.4-1.3-0.4-1.8,0s-0.5,1.1,0,1.5l5.1,4.3
		C24.3,267.5,25.1,267.5,25.6,267z"/>
	<path class="st1" d="M25.6,267c0.5-0.4,0.5-1.1,0-1.5l-5.1-4.3c-0.5-0.4-1.3-0.4-1.8,0s-0.5,1.1,0,1.5l5.1,4.3
		C24.3,267.5,25.1,267.5,25.6,267z"/>
	<path class="st0" d="M20.2,261.2c-0.5-0.4-1.3-0.4-1.8,0l-5.1,4.3c-0.5,0.4-0.5,1.1,0,1.5s1.3,0.4,1.8,0l5.1-4.3
		C20.8,262.3,20.8,261.6,20.2,261.2z"/>
	<path class="st1" d="M20.2,261.2c-0.5-0.4-1.3-0.4-1.8,0l-5.1,4.3c-0.5,0.4-0.5,1.1,0,1.5s1.3,0.4,1.8,0l5.1-4.3
		C20.8,262.3,20.8,261.6,20.2,261.2z"/>
</g>
<g>
	<path class="st0" d="M10.8,229.5c0,0.6,0.5,1.1,1.1,1.1h15.2c0.6,0,1.1-0.5,1.1-1.1s-0.5-1.1-1.1-1.1H11.9
		C11.3,228.4,10.8,228.9,10.8,229.5z"/>
	<path class="st1" d="M10.8,229.5c0,0.6,0.5,1.1,1.1,1.1h15.2c0.6,0,1.1-0.5,1.1-1.1s-0.5-1.1-1.1-1.1H11.9
		C11.3,228.4,10.8,228.9,10.8,229.5z"/>
	<path class="st0" d="M22,235.6c0.4,0.5,1.1,0.5,1.5,0l4.3-5.1c0.4-0.5,0.4-1.3,0-1.8s-1.1-0.5-1.5,0l-4.3,5.1
		C21.6,234.3,21.6,235.1,22,235.6z"/>
	<path class="st1" d="M22,235.6c0.4,0.5,1.1,0.5,1.5,0l4.3-5.1c0.4-0.5,0.4-1.3,0-1.8s-1.1-0.5-1.5,0l-4.3,5.1
		C21.6,234.3,21.6,235.1,22,235.6z"/>
	<path class="st0" d="M27.8,230.2c0.4-0.5,0.4-1.3,0-1.8l-4.3-5.1c-0.4-0.5-1.1-0.5-1.5,0s-0.4,1.3,0,1.8l4.3,5.1
		C26.7,230.7,27.4,230.7,27.8,230.2z"/>
	<path class="st1" d="M27.8,230.2c0.4-0.5,0.4-1.3,0-1.8l-4.3-5.1c-0.4-0.5-1.1-0.5-1.5,0s-0.4,1.3,0,1.8l4.3,5.1
		C26.7,230.7,27.4,230.7,27.8,230.2z"/>
</g>
<g>
	<path class="st0" d="M28.2,189.5c0-0.6-0.5-1.1-1.1-1.1H11.9c-0.6,0-1.1,0.5-1.1,1.1s0.5,1.1,1.1,1.1h15.2
		C27.7,190.6,28.2,190.1,28.2,189.5z"/>
	<path class="st1" d="M28.2,189.5c0-0.6-0.5-1.1-1.1-1.1H11.9c-0.6,0-1.1,0.5-1.1,1.1s0.5,1.1,1.1,1.1h15.2
		C27.7,190.6,28.2,190.1,28.2,189.5z"/>
	<path class="st0" d="M17,183.4c-0.4-0.5-1.1-0.5-1.5,0l-4.3,5.1c-0.4,0.5-0.4,1.3,0,1.8s1.1,0.5,1.5,0l4.3-5.1
		C17.4,184.7,17.4,183.9,17,183.4z"/>
	<path class="st1" d="M17,183.4c-0.4-0.5-1.1-0.5-1.5,0l-4.3,5.1c-0.4,0.5-0.4,1.3,0,1.8s1.1,0.5,1.5,0l4.3-5.1
		C17.4,184.7,17.4,183.9,17,183.4z"/>
	<path class="st0" d="M11.2,188.8c-0.4,0.5-0.4,1.3,0,1.8l4.3,5.1c0.4,0.5,1.1,0.5,1.5,0s0.4-1.3,0-1.8l-4.3-5.1
		C12.3,188.3,11.6,188.3,11.2,188.8z"/>
	<path class="st1" d="M11.2,188.8c-0.4,0.5-0.4,1.3,0,1.8l4.3,5.1c0.4,0.5,1.1,0.5,1.5,0s0.4-1.3,0-1.8l-4.3-5.1
		C12.3,188.3,11.6,188.3,11.2,188.8z"/>
</g>
<rect x="12" y="-27.1" width="15" height="15.5"/>
<rect x="52" y="-27.1" width="15" height="15.5"/>
<rect x="91.8" y="-27.1" width="15" height="15.5"/>
<rect x="-32.3" y="22" width="15.5" height="15"/>
<rect x="-32.3" y="62" width="15.5" height="15"/>
<rect x="-32.3" y="102" width="15.5" height="15"/>
<rect x="-32.3" y="142" width="15.5" height="15"/>
<rect x="-32.3" y="182" width="15.5" height="15"/>
<rect x="-32.3" y="222" width="15.5" height="15"/>
<rect x="-32.3" y="262" width="15.5" height="15"/>
<rect x="-32.3" y="302" width="15.5" height="15"/>
<rect x="-32.3" y="342" width="15.5" height="15"/>
<rect x="-32.3" y="382" width="15.5" height="15"/>
<rect x="-32.3" y="422" width="15.5" height="15"/>
</svg>
