<svg width="128" height="476" viewBox="0 0 128 476" fill="none" xmlns="http://www.w3.org/2000/svg">
<path fill-rule="evenodd" clip-rule="evenodd" d="M76.3766 160.805C76.8787 160.303 77.6927 160.303 78.1949 160.805L85 167.61L91.8051 160.805C92.3073 160.303 93.1213 160.303 93.6234 160.805C94.1255 161.307 94.1255 162.121 93.6234 162.624L85.9091 170.338C85.407 170.84 84.593 170.84 84.0909 170.338L76.3766 162.624C75.8745 162.121 75.8745 161.307 76.3766 160.805Z" fill="#888888"/>
<path fill-rule="evenodd" clip-rule="evenodd" d="M76.3766 160.805C76.8787 160.303 77.6927 160.303 78.1949 160.805L85 167.61L91.8051 160.805C92.3073 160.303 93.1213 160.303 93.6234 160.805C94.1255 161.307 94.1255 162.121 93.6234 162.624L85.9091 170.338C85.407 170.84 84.593 170.84 84.0909 170.338L76.3766 162.624C75.8745 162.121 75.8745 161.307 76.3766 160.805Z" fill="black" fill-opacity="0.7"/>
<path fill-rule="evenodd" clip-rule="evenodd" d="M76.3766 152.377C76.8787 151.874 77.6927 151.874 78.1949 152.377L85 159.182L91.8051 152.377C92.3073 151.874 93.1213 151.874 93.6234 152.377C94.1255 152.879 94.1255 153.693 93.6234 154.195L85.9091 161.909C85.407 162.411 84.593 162.411 84.0909 161.909L76.3766 154.195C75.8745 153.693 75.8745 152.879 76.3766 152.377Z" fill="#888888"/>
<path fill-rule="evenodd" clip-rule="evenodd" d="M76.3766 152.377C76.8787 151.874 77.6927 151.874 78.1949 152.377L85 159.182L91.8051 152.377C92.3073 151.874 93.1213 151.874 93.6234 152.377C94.1255 152.879 94.1255 153.693 93.6234 154.195L85.9091 161.909C85.407 162.411 84.593 162.411 84.0909 161.909L76.3766 154.195C75.8745 153.693 75.8745 152.879 76.3766 152.377Z" fill="black" fill-opacity="0.7"/>
<path fill-rule="evenodd" clip-rule="evenodd" d="M93.6234 117.195C93.1213 117.697 92.3073 117.697 91.8051 117.195L85 110.39L78.1949 117.195C77.6927 117.697 76.8787 117.697 76.3766 117.195C75.8745 116.693 75.8745 115.879 76.3766 115.376L84.0909 107.662C84.593 107.16 85.407 107.16 85.9091 107.662L93.6234 115.376C94.1255 115.879 94.1255 116.693 93.6234 117.195Z" fill="#888888"/>
<path fill-rule="evenodd" clip-rule="evenodd" d="M93.6234 117.195C93.1213 117.697 92.3073 117.697 91.8051 117.195L85 110.39L78.1949 117.195C77.6927 117.697 76.8787 117.697 76.3766 117.195C75.8745 116.693 75.8745 115.879 76.3766 115.376L84.0909 107.662C84.593 107.16 85.407 107.16 85.9091 107.662L93.6234 115.376C94.1255 115.879 94.1255 116.693 93.6234 117.195Z" fill="black" fill-opacity="0.7"/>
<path fill-rule="evenodd" clip-rule="evenodd" d="M93.6234 125.623C93.1213 126.126 92.3073 126.126 91.8051 125.623L85 118.818L78.1949 125.623C77.6927 126.126 76.8787 126.126 76.3766 125.623C75.8745 125.121 75.8745 124.307 76.3766 123.805L84.0909 116.091C84.593 115.589 85.407 115.589 85.9091 116.091L93.6234 123.805C94.1255 124.307 94.1255 125.121 93.6234 125.623Z" fill="#888888"/>
<path fill-rule="evenodd" clip-rule="evenodd" d="M93.6234 125.623C93.1213 126.126 92.3073 126.126 91.8051 125.623L85 118.818L78.1949 125.623C77.6927 126.126 76.8787 126.126 76.3766 125.623C75.8745 125.121 75.8745 124.307 76.3766 123.805L84.0909 116.091C84.593 115.589 85.407 115.589 85.9091 116.091L93.6234 123.805C94.1255 124.307 94.1255 125.121 93.6234 125.623Z" fill="black" fill-opacity="0.7"/>
<g opacity="0.9">
<path fill-rule="evenodd" clip-rule="evenodd" d="M84.5886 79.6541C84.094 79.1793 84.0779 78.3935 84.5527 77.8989L91.1757 71L84.5527 64.1011C84.0779 63.6065 84.094 62.8207 84.5886 62.3459C85.0831 61.8711 85.869 61.8871 86.3438 62.3817L93.792 70.1403C94.2532 70.6207 94.2532 71.3793 93.792 71.8597L86.3438 79.6183C85.869 80.1129 85.0831 80.1289 84.5886 79.6541Z" fill="#888888"/>
<path fill-rule="evenodd" clip-rule="evenodd" d="M84.5886 79.6541C84.094 79.1793 84.0779 78.3935 84.5527 77.8989L91.1757 71L84.5527 64.1011C84.0779 63.6065 84.094 62.8207 84.5886 62.3459C85.0831 61.8711 85.869 61.8871 86.3438 62.3817L93.792 70.1403C94.2532 70.6207 94.2532 71.3793 93.792 71.8597L86.3438 79.6183C85.869 80.1129 85.0831 80.1289 84.5886 79.6541Z" fill="black" fill-opacity="0.7"/>
<path fill-rule="evenodd" clip-rule="evenodd" d="M76.3817 79.6541C75.8871 79.1793 75.8711 78.3935 76.3459 77.8989L82.9688 71L76.3459 64.1011C75.8711 63.6065 75.8871 62.8207 76.3817 62.3459C76.8763 61.8711 77.6621 61.8871 78.1369 62.3817L85.5852 70.1403C86.0463 70.6207 86.0463 71.3793 85.5852 71.8597L78.1369 79.6183C77.6621 80.1129 76.8763 80.1289 76.3817 79.6541Z" fill="#888888"/>
<path fill-rule="evenodd" clip-rule="evenodd" d="M76.3817 79.6541C75.8871 79.1793 75.8711 78.3935 76.3459 77.8989L82.9688 71L76.3459 64.1011C75.8711 63.6065 75.8871 62.8207 76.3817 62.3459C76.8763 61.8711 77.6621 61.8871 78.1369 62.3817L85.5852 70.1403C86.0463 70.6207 86.0463 71.3793 85.5852 71.8597L78.1369 79.6183C77.6621 80.1129 76.8763 80.1289 76.3817 79.6541Z" fill="black" fill-opacity="0.7"/>
</g>
<path fill-rule="evenodd" clip-rule="evenodd" d="M93.6183 17.3459C94.1129 17.8207 94.1289 18.6065 93.6541 19.1011L87.0312 26L93.6541 32.8989C94.1289 33.3935 94.1129 34.1793 93.6183 34.6541C93.1237 35.1289 92.3379 35.1129 91.8631 34.6183L84.4148 26.8597C83.9537 26.3793 83.9537 25.6207 84.4148 25.1403L91.8631 17.3817C92.3379 16.8871 93.1237 16.8711 93.6183 17.3459Z" fill="#888888"/>
<path fill-rule="evenodd" clip-rule="evenodd" d="M93.6183 17.3459C94.1129 17.8207 94.1289 18.6065 93.6541 19.1011L87.0312 26L93.6541 32.8989C94.1289 33.3935 94.1129 34.1793 93.6183 34.6541C93.1237 35.1289 92.3379 35.1129 91.8631 34.6183L84.4148 26.8597C83.9537 26.3793 83.9537 25.6207 84.4148 25.1403L91.8631 17.3817C92.3379 16.8871 93.1237 16.8711 93.6183 17.3459Z" fill="black" fill-opacity="0.7"/>
<path fill-rule="evenodd" clip-rule="evenodd" d="M85.6597 17.3459C86.1543 17.8207 86.1703 18.6065 85.6955 19.1011L79.0725 26L85.6955 32.8989C86.1703 33.3935 86.1543 34.1793 85.6597 34.6541C85.1651 35.1289 84.3793 35.1129 83.9045 34.6183L76.4562 26.8597C75.9951 26.3793 75.9951 25.6207 76.4562 25.1403L83.9045 17.3817C84.3793 16.8871 85.1651 16.8711 85.6597 17.3459Z" fill="#888888"/>
<path fill-rule="evenodd" clip-rule="evenodd" d="M85.6597 17.3459C86.1543 17.8207 86.1703 18.6065 85.6955 19.1011L79.0725 26L85.6955 32.8989C86.1703 33.3935 86.1543 34.1793 85.6597 34.6541C85.1651 35.1289 84.3793 35.1129 83.9045 34.6183L76.4562 26.8597C75.9951 26.3793 75.9951 25.6207 76.4562 25.1403L83.9045 17.3817C84.3793 16.8871 85.1651 16.8711 85.6597 17.3459Z" fill="black" fill-opacity="0.7"/>
<path fill-rule="evenodd" clip-rule="evenodd" d="M25.3766 156.377C25.8787 155.874 26.6927 155.874 27.1949 156.377L34 163.182L40.8051 156.377C41.3073 155.874 42.1213 155.874 42.6234 156.377C43.1255 156.879 43.1255 157.693 42.6234 158.195L34.9091 165.909C34.407 166.411 33.593 166.411 33.0909 165.909L25.3766 158.195C24.8745 157.693 24.8745 156.879 25.3766 156.377Z" fill="#888888"/>
<path fill-rule="evenodd" clip-rule="evenodd" d="M25.3766 156.377C25.8787 155.874 26.6927 155.874 27.1949 156.377L34 163.182L40.8051 156.377C41.3073 155.874 42.1213 155.874 42.6234 156.377C43.1255 156.879 43.1255 157.693 42.6234 158.195L34.9091 165.909C34.407 166.411 33.593 166.411 33.0909 165.909L25.3766 158.195C24.8745 157.693 24.8745 156.879 25.3766 156.377Z" fill="black" fill-opacity="0.7"/>
<path fill-rule="evenodd" clip-rule="evenodd" d="M42.6234 120.623C42.1213 121.126 41.3073 121.126 40.8051 120.623L34 113.818L27.1949 120.623C26.6927 121.126 25.8787 121.126 25.3766 120.623C24.8745 120.121 24.8745 119.307 25.3766 118.805L33.0909 111.091C33.593 110.589 34.407 110.589 34.9091 111.091L42.6234 118.805C43.1255 119.307 43.1255 120.121 42.6234 120.623Z" fill="#888888"/>
<path fill-rule="evenodd" clip-rule="evenodd" d="M42.6234 120.623C42.1213 121.126 41.3073 121.126 40.8051 120.623L34 113.818L27.1949 120.623C26.6927 121.126 25.8787 121.126 25.3766 120.623C24.8745 120.121 24.8745 119.307 25.3766 118.805L33.0909 111.091C33.593 110.589 34.407 110.589 34.9091 111.091L42.6234 118.805C43.1255 119.307 43.1255 120.121 42.6234 120.623Z" fill="black" fill-opacity="0.7"/>
<path fill-rule="evenodd" clip-rule="evenodd" d="M29.3766 79.6234C28.8745 79.1213 28.8745 78.3073 29.3766 77.8051L36.1817 71L29.3766 64.1949C28.8745 63.6927 28.8745 62.8787 29.3766 62.3766C29.8787 61.8745 30.6927 61.8745 31.1949 62.3766L38.9091 70.0909C39.4112 70.593 39.4112 71.407 38.9091 71.9091L31.1949 79.6234C30.6927 80.1255 29.8787 80.1255 29.3766 79.6234Z" fill="#888888"/>
<path fill-rule="evenodd" clip-rule="evenodd" d="M29.3766 79.6234C28.8745 79.1213 28.8745 78.3073 29.3766 77.8051L36.1817 71L29.3766 64.1949C28.8745 63.6927 28.8745 62.8787 29.3766 62.3766C29.8787 61.8745 30.6927 61.8745 31.1949 62.3766L38.9091 70.0909C39.4112 70.593 39.4112 71.407 38.9091 71.9091L31.1949 79.6234C30.6927 80.1255 29.8787 80.1255 29.3766 79.6234Z" fill="black" fill-opacity="0.7"/>
<path fill-rule="evenodd" clip-rule="evenodd" d="M38.6234 17.3766C39.1255 17.8787 39.1255 18.6927 38.6234 19.1949L31.8183 26L38.6234 32.8051C39.1255 33.3073 39.1255 34.1213 38.6234 34.6234C38.1213 35.1255 37.3073 35.1255 36.8051 34.6234L29.0909 26.9091C28.5888 26.407 28.5888 25.593 29.0909 25.0909L36.8051 17.3766C37.3073 16.8745 38.1213 16.8745 38.6234 17.3766Z" fill="#888888"/>
<path fill-rule="evenodd" clip-rule="evenodd" d="M38.6234 17.3766C39.1255 17.8787 39.1255 18.6927 38.6234 19.1949L31.8183 26L38.6234 32.8051C39.1255 33.3073 39.1255 34.1213 38.6234 34.6234C38.1213 35.1255 37.3073 35.1255 36.8051 34.6234L29.0909 26.9091C28.5888 26.407 28.5888 25.593 29.0909 25.0909L36.8051 17.3766C37.3073 16.8745 38.1213 16.8745 38.6234 17.3766Z" fill="black" fill-opacity="0.7"/>
<path fill-rule="evenodd" clip-rule="evenodd" d="M85.3766 214.623C84.8745 214.121 84.8745 213.307 85.3766 212.805L92.1817 206L85.3766 199.195C84.8745 198.693 84.8745 197.879 85.3766 197.377C85.8787 196.874 86.6927 196.874 87.1949 197.377L94.9091 205.091C95.4112 205.593 95.4112 206.407 94.9091 206.909L87.1949 214.623C86.6927 215.126 85.8787 215.126 85.3766 214.623Z" fill="#888888"/>
<path fill-rule="evenodd" clip-rule="evenodd" d="M85.3766 214.623C84.8745 214.121 84.8745 213.307 85.3766 212.805L92.1817 206L85.3766 199.195C84.8745 198.693 84.8745 197.879 85.3766 197.377C85.8787 196.874 86.6927 196.874 87.1949 197.377L94.9091 205.091C95.4112 205.593 95.4112 206.407 94.9091 206.909L87.1949 214.623C86.6927 215.126 85.8787 215.126 85.3766 214.623Z" fill="black" fill-opacity="0.7"/>
<path fill-rule="evenodd" clip-rule="evenodd" d="M33.6234 197.377C34.1255 197.879 34.1255 198.693 33.6234 199.195L26.8183 206L33.6234 212.805C34.1255 213.307 34.1255 214.121 33.6234 214.623C33.1213 215.126 32.3073 215.126 31.8051 214.623L24.0909 206.909C23.5888 206.407 23.5888 205.593 24.0909 205.091L31.8051 197.377C32.3073 196.874 33.1213 196.874 33.6234 197.377Z" fill="#888888"/>
<path fill-rule="evenodd" clip-rule="evenodd" d="M33.6234 197.377C34.1255 197.879 34.1255 198.693 33.6234 199.195L26.8183 206L33.6234 212.805C34.1255 213.307 34.1255 214.121 33.6234 214.623C33.1213 215.126 32.3073 215.126 31.8051 214.623L24.0909 206.909C23.5888 206.407 23.5888 205.593 24.0909 205.091L31.8051 197.377C32.3073 196.874 33.1213 196.874 33.6234 197.377Z" fill="black" fill-opacity="0.7"/>
<path fill-rule="evenodd" clip-rule="evenodd" d="M84 448.333C88.6024 448.333 92.3333 444.602 92.3333 440C92.3333 435.398 88.6024 431.667 84 431.667C79.3976 431.667 75.6667 435.398 75.6667 440C75.6667 444.602 79.3976 448.333 84 448.333ZM84 450C89.5228 450 94 445.523 94 440C94 434.477 89.5228 430 84 430C78.4772 430 74 434.477 74 440C74 445.523 78.4772 450 84 450Z" fill="#888888"/>
<path fill-rule="evenodd" clip-rule="evenodd" d="M84 448.333C88.6024 448.333 92.3333 444.602 92.3333 440C92.3333 435.398 88.6024 431.667 84 431.667C79.3976 431.667 75.6667 435.398 75.6667 440C75.6667 444.602 79.3976 448.333 84 448.333ZM84 450C89.5228 450 94 445.523 94 440C94 434.477 89.5228 430 84 430C78.4772 430 74 434.477 74 440C74 445.523 78.4772 450 84 450Z" fill="black" fill-opacity="0.7"/>
<path fill-rule="evenodd" clip-rule="evenodd" d="M84 446.667C84.4602 446.667 84.8333 446.294 84.8333 445.833V434.167C84.8333 433.707 84.4602 433.333 84 433.333C83.5398 433.333 83.1667 433.707 83.1667 434.167V445.833C83.1667 446.294 83.5398 446.667 84 446.667Z" fill="#888888"/>
<path fill-rule="evenodd" clip-rule="evenodd" d="M84 446.667C84.4602 446.667 84.8333 446.294 84.8333 445.833V434.167C84.8333 433.707 84.4602 433.333 84 433.333C83.5398 433.333 83.1667 433.707 83.1667 434.167V445.833C83.1667 446.294 83.5398 446.667 84 446.667Z" fill="black" fill-opacity="0.7"/>
<path fill-rule="evenodd" clip-rule="evenodd" d="M88.7152 438.089C89.0949 437.764 89.0949 437.236 88.7152 436.911L84.8264 433.578C84.4467 433.252 83.8311 433.252 83.4514 433.578C83.0717 433.903 83.0717 434.431 83.4514 434.756L87.3403 438.089C87.72 438.415 88.3356 438.415 88.7152 438.089Z" fill="#888888"/>
<path fill-rule="evenodd" clip-rule="evenodd" d="M88.7152 438.089C89.0949 437.764 89.0949 437.236 88.7152 436.911L84.8264 433.578C84.4467 433.252 83.8311 433.252 83.4514 433.578C83.0717 433.903 83.0717 434.431 83.4514 434.756L87.3403 438.089C87.72 438.415 88.3356 438.415 88.7152 438.089Z" fill="black" fill-opacity="0.7"/>
<path fill-rule="evenodd" clip-rule="evenodd" d="M84.5486 433.578C84.1689 433.252 83.5533 433.252 83.1737 433.578L79.2848 436.911C78.9051 437.236 78.9051 437.764 79.2848 438.089C79.6644 438.415 80.28 438.415 80.6597 438.089L84.5486 434.756C84.9283 434.431 84.9283 433.903 84.5486 433.578Z" fill="#888888"/>
<path fill-rule="evenodd" clip-rule="evenodd" d="M84.5486 433.578C84.1689 433.252 83.5533 433.252 83.1737 433.578L79.2848 436.911C78.9051 437.236 78.9051 437.764 79.2848 438.089C79.6644 438.415 80.28 438.415 80.6597 438.089L84.5486 434.756C84.9283 434.431 84.9283 433.903 84.5486 433.578Z" fill="black" fill-opacity="0.7"/>
<path fill-rule="evenodd" clip-rule="evenodd" d="M79.1826 441.979C79.4701 441.62 79.9945 441.562 80.3539 441.849L84 444.766L87.6461 441.849C88.0055 441.562 88.5299 441.62 88.8174 441.979C89.1049 442.339 89.0466 442.863 88.6872 443.151L84.5206 446.484H83.4794L79.3128 443.151C78.9534 442.863 78.8951 442.339 79.1826 441.979Z" fill="#888888"/>
<path fill-rule="evenodd" clip-rule="evenodd" d="M79.1826 441.979C79.4701 441.62 79.9945 441.562 80.3539 441.849L84 444.766L87.6461 441.849C88.0055 441.562 88.5299 441.62 88.8174 441.979C89.1049 442.339 89.0466 442.863 88.6872 443.151L84.5206 446.484H83.4794L79.3128 443.151C78.9534 442.863 78.8951 442.339 79.1826 441.979Z" fill="black" fill-opacity="0.7"/>
<path fill-rule="evenodd" clip-rule="evenodd" d="M84 414.333C88.6024 414.333 92.3333 410.602 92.3333 406C92.3333 401.398 88.6024 397.667 84 397.667C79.3976 397.667 75.6667 401.398 75.6667 406C75.6667 410.602 79.3976 414.333 84 414.333ZM84 416C89.5228 416 94 411.523 94 406C94 400.477 89.5228 396 84 396C78.4772 396 74 400.477 74 406C74 411.523 78.4772 416 84 416Z" fill="#888888"/>
<path fill-rule="evenodd" clip-rule="evenodd" d="M84 414.333C88.6024 414.333 92.3333 410.602 92.3333 406C92.3333 401.398 88.6024 397.667 84 397.667C79.3976 397.667 75.6667 401.398 75.6667 406C75.6667 410.602 79.3976 414.333 84 414.333ZM84 416C89.5228 416 94 411.523 94 406C94 400.477 89.5228 396 84 396C78.4772 396 74 400.477 74 406C74 411.523 78.4772 416 84 416Z" fill="black" fill-opacity="0.7"/>
<path fill-rule="evenodd" clip-rule="evenodd" d="M77.3333 406C77.3333 406.46 77.7064 406.833 78.1667 406.833H89.8333C90.2936 406.833 90.6667 406.46 90.6667 406C90.6667 405.54 90.2936 405.167 89.8333 405.167H78.1667C77.7064 405.167 77.3333 405.54 77.3333 406Z" fill="#888888"/>
<path fill-rule="evenodd" clip-rule="evenodd" d="M77.3333 406C77.3333 406.46 77.7064 406.833 78.1667 406.833H89.8333C90.2936 406.833 90.6667 406.46 90.6667 406C90.6667 405.54 90.2936 405.167 89.8333 405.167H78.1667C77.7064 405.167 77.3333 405.54 77.3333 406Z" fill="black" fill-opacity="0.7"/>
<path fill-rule="evenodd" clip-rule="evenodd" d="M85.9108 410.715C86.2362 411.095 86.7638 411.095 87.0893 410.715L90.4226 406.826C90.748 406.447 90.748 405.831 90.4226 405.451C90.0972 405.072 89.5695 405.072 89.2441 405.451L85.9108 409.34C85.5853 409.72 85.5853 410.336 85.9108 410.715Z" fill="#888888"/>
<path fill-rule="evenodd" clip-rule="evenodd" d="M85.9108 410.715C86.2362 411.095 86.7638 411.095 87.0893 410.715L90.4226 406.826C90.748 406.447 90.748 405.831 90.4226 405.451C90.0972 405.072 89.5695 405.072 89.2441 405.451L85.9108 409.34C85.5853 409.72 85.5853 410.336 85.9108 410.715Z" fill="black" fill-opacity="0.7"/>
<path fill-rule="evenodd" clip-rule="evenodd" d="M90.4226 406.548C90.748 406.169 90.748 405.553 90.4226 405.174L87.0893 401.285C86.7638 400.905 86.2362 400.905 85.9108 401.285C85.5853 401.664 85.5853 402.28 85.9108 402.66L89.2441 406.548C89.5695 406.928 90.0972 406.928 90.4226 406.548Z" fill="#888888"/>
<path fill-rule="evenodd" clip-rule="evenodd" d="M90.4226 406.548C90.748 406.169 90.748 405.553 90.4226 405.174L87.0893 401.285C86.7638 400.905 86.2362 400.905 85.9108 401.285C85.5853 401.664 85.5853 402.28 85.9108 402.66L89.2441 406.548C89.5695 406.928 90.0972 406.928 90.4226 406.548Z" fill="black" fill-opacity="0.7"/>
<path fill-rule="evenodd" clip-rule="evenodd" d="M82.0206 401.183C82.38 401.47 82.4382 401.995 82.1507 402.354L79.2339 406L82.1507 409.646C82.4382 410.006 82.38 410.53 82.0206 410.817C81.6612 411.105 81.1368 411.047 80.8493 410.687L77.516 406.521V405.479L80.8493 401.313C81.1368 400.953 81.6612 400.895 82.0206 401.183Z" fill="#888888"/>
<path fill-rule="evenodd" clip-rule="evenodd" d="M82.0206 401.183C82.38 401.47 82.4382 401.995 82.1507 402.354L79.2339 406L82.1507 409.646C82.4382 410.006 82.38 410.53 82.0206 410.817C81.6612 411.105 81.1368 411.047 80.8493 410.687L77.516 406.521V405.479L80.8493 401.313C81.1368 400.953 81.6612 400.895 82.0206 401.183Z" fill="black" fill-opacity="0.7"/>
<path fill-rule="evenodd" clip-rule="evenodd" d="M84 365.333C83.5398 365.333 83.1667 365.706 83.1667 366.167V377.833C83.1667 378.293 83.5398 378.667 84 378.667C84.4602 378.667 84.8333 378.293 84.8333 377.833V366.167C84.8333 365.706 84.4602 365.333 84 365.333Z" fill="#888888"/>
<path fill-rule="evenodd" clip-rule="evenodd" d="M84 365.333C83.5398 365.333 83.1667 365.706 83.1667 366.167V377.833C83.1667 378.293 83.5398 378.667 84 378.667C84.4602 378.667 84.8333 378.293 84.8333 377.833V366.167C84.8333 365.706 84.4602 365.333 84 365.333Z" fill="black" fill-opacity="0.7"/>
<path fill-rule="evenodd" clip-rule="evenodd" d="M79.2848 373.911C78.9051 374.236 78.9051 374.764 79.2848 375.089L83.1736 378.422C83.5533 378.748 84.1689 378.748 84.5486 378.422C84.9283 378.097 84.9283 377.569 84.5486 377.244L80.6597 373.911C80.28 373.585 79.6644 373.585 79.2848 373.911Z" fill="#888888"/>
<path fill-rule="evenodd" clip-rule="evenodd" d="M79.2848 373.911C78.9051 374.236 78.9051 374.764 79.2848 375.089L83.1736 378.422C83.5533 378.748 84.1689 378.748 84.5486 378.422C84.9283 378.097 84.9283 377.569 84.5486 377.244L80.6597 373.911C80.28 373.585 79.6644 373.585 79.2848 373.911Z" fill="black" fill-opacity="0.7"/>
<path fill-rule="evenodd" clip-rule="evenodd" d="M83.4514 378.422C83.8311 378.748 84.4467 378.748 84.8263 378.422L88.7152 375.089C89.0949 374.764 89.0949 374.236 88.7152 373.911C88.3356 373.585 87.72 373.585 87.3403 373.911L83.4514 377.244C83.0717 377.569 83.0717 378.097 83.4514 378.422Z" fill="#888888"/>
<path fill-rule="evenodd" clip-rule="evenodd" d="M83.4514 378.422C83.8311 378.748 84.4467 378.748 84.8263 378.422L88.7152 375.089C89.0949 374.764 89.0949 374.236 88.7152 373.911C88.3356 373.585 87.72 373.585 87.3403 373.911L83.4514 377.244C83.0717 377.569 83.0717 378.097 83.4514 378.422Z" fill="black" fill-opacity="0.7"/>
<path fill-rule="evenodd" clip-rule="evenodd" d="M84 380.333C88.6024 380.333 92.3333 376.602 92.3333 372C92.3333 367.398 88.6024 363.667 84 363.667C79.3976 363.667 75.6667 367.398 75.6667 372C75.6667 376.602 79.3976 380.333 84 380.333ZM84 382C89.5228 382 94 377.523 94 372C94 366.477 89.5228 362 84 362C78.4772 362 74 366.477 74 372C74 377.523 78.4772 382 84 382Z" fill="#888888"/>
<path fill-rule="evenodd" clip-rule="evenodd" d="M84 380.333C88.6024 380.333 92.3333 376.602 92.3333 372C92.3333 367.398 88.6024 363.667 84 363.667C79.3976 363.667 75.6667 367.398 75.6667 372C75.6667 376.602 79.3976 380.333 84 380.333ZM84 382C89.5228 382 94 377.523 94 372C94 366.477 89.5228 362 84 362C78.4772 362 74 366.477 74 372C74 377.523 78.4772 382 84 382Z" fill="black" fill-opacity="0.7"/>
<path fill-rule="evenodd" clip-rule="evenodd" d="M34 446.667C34.4602 446.667 34.8333 446.294 34.8333 445.833V434.167C34.8333 433.707 34.4602 433.333 34 433.333C33.5398 433.333 33.1667 433.707 33.1667 434.167V445.833C33.1667 446.294 33.5398 446.667 34 446.667Z" fill="#888888"/>
<path fill-rule="evenodd" clip-rule="evenodd" d="M34 446.667C34.4602 446.667 34.8333 446.294 34.8333 445.833V434.167C34.8333 433.707 34.4602 433.333 34 433.333C33.5398 433.333 33.1667 433.707 33.1667 434.167V445.833C33.1667 446.294 33.5398 446.667 34 446.667Z" fill="black" fill-opacity="0.7"/>
<path fill-rule="evenodd" clip-rule="evenodd" d="M38.7152 438.089C39.0949 437.764 39.0949 437.236 38.7152 436.911L34.8264 433.578C34.4467 433.252 33.8311 433.252 33.4514 433.578C33.0717 433.903 33.0717 434.431 33.4514 434.756L37.3403 438.089C37.72 438.415 38.3356 438.415 38.7152 438.089Z" fill="#888888"/>
<path fill-rule="evenodd" clip-rule="evenodd" d="M38.7152 438.089C39.0949 437.764 39.0949 437.236 38.7152 436.911L34.8264 433.578C34.4467 433.252 33.8311 433.252 33.4514 433.578C33.0717 433.903 33.0717 434.431 33.4514 434.756L37.3403 438.089C37.72 438.415 38.3356 438.415 38.7152 438.089Z" fill="black" fill-opacity="0.7"/>
<path fill-rule="evenodd" clip-rule="evenodd" d="M34.5486 433.578C34.1689 433.252 33.5533 433.252 33.1737 433.578L29.2848 436.911C28.9051 437.236 28.9051 437.764 29.2848 438.089C29.6644 438.415 30.28 438.415 30.6597 438.089L34.5486 434.756C34.9283 434.431 34.9283 433.903 34.5486 433.578Z" fill="#888888"/>
<path fill-rule="evenodd" clip-rule="evenodd" d="M34.5486 433.578C34.1689 433.252 33.5533 433.252 33.1737 433.578L29.2848 436.911C28.9051 437.236 28.9051 437.764 29.2848 438.089C29.6644 438.415 30.28 438.415 30.6597 438.089L34.5486 434.756C34.9283 434.431 34.9283 433.903 34.5486 433.578Z" fill="black" fill-opacity="0.7"/>
<path fill-rule="evenodd" clip-rule="evenodd" d="M34 448.333C38.6024 448.333 42.3333 444.602 42.3333 440C42.3333 435.398 38.6024 431.667 34 431.667C29.3976 431.667 25.6667 435.398 25.6667 440C25.6667 444.602 29.3976 448.333 34 448.333ZM34 450C39.5228 450 44 445.523 44 440C44 434.477 39.5228 430 34 430C28.4772 430 24 434.477 24 440C24 445.523 28.4772 450 34 450Z" fill="#888888"/>
<path fill-rule="evenodd" clip-rule="evenodd" d="M34 448.333C38.6024 448.333 42.3333 444.602 42.3333 440C42.3333 435.398 38.6024 431.667 34 431.667C29.3976 431.667 25.6667 435.398 25.6667 440C25.6667 444.602 29.3976 448.333 34 448.333ZM34 450C39.5228 450 44 445.523 44 440C44 434.477 39.5228 430 34 430C28.4772 430 24 434.477 24 440C24 445.523 28.4772 450 34 450Z" fill="black" fill-opacity="0.7"/>
<path fill-rule="evenodd" clip-rule="evenodd" d="M27.3333 406C27.3333 406.46 27.7064 406.833 28.1667 406.833H39.8333C40.2936 406.833 40.6667 406.46 40.6667 406C40.6667 405.54 40.2936 405.167 39.8333 405.167H28.1667C27.7064 405.167 27.3333 405.54 27.3333 406Z" fill="#888888"/>
<path fill-rule="evenodd" clip-rule="evenodd" d="M27.3333 406C27.3333 406.46 27.7064 406.833 28.1667 406.833H39.8333C40.2936 406.833 40.6667 406.46 40.6667 406C40.6667 405.54 40.2936 405.167 39.8333 405.167H28.1667C27.7064 405.167 27.3333 405.54 27.3333 406Z" fill="black" fill-opacity="0.7"/>
<path fill-rule="evenodd" clip-rule="evenodd" d="M35.9108 410.715C36.2362 411.095 36.7638 411.095 37.0893 410.715L40.4226 406.826C40.748 406.447 40.748 405.831 40.4226 405.451C40.0972 405.072 39.5695 405.072 39.2441 405.451L35.9108 409.34C35.5853 409.72 35.5853 410.336 35.9108 410.715Z" fill="#888888"/>
<path fill-rule="evenodd" clip-rule="evenodd" d="M35.9108 410.715C36.2362 411.095 36.7638 411.095 37.0893 410.715L40.4226 406.826C40.748 406.447 40.748 405.831 40.4226 405.451C40.0972 405.072 39.5695 405.072 39.2441 405.451L35.9108 409.34C35.5853 409.72 35.5853 410.336 35.9108 410.715Z" fill="black" fill-opacity="0.7"/>
<path fill-rule="evenodd" clip-rule="evenodd" d="M40.4226 406.548C40.748 406.169 40.748 405.553 40.4226 405.174L37.0893 401.285C36.7638 400.905 36.2362 400.905 35.9108 401.285C35.5853 401.664 35.5853 402.28 35.9108 402.66L39.2441 406.548C39.5695 406.928 40.0972 406.928 40.4226 406.548Z" fill="#888888"/>
<path fill-rule="evenodd" clip-rule="evenodd" d="M40.4226 406.548C40.748 406.169 40.748 405.553 40.4226 405.174L37.0893 401.285C36.7638 400.905 36.2362 400.905 35.9108 401.285C35.5853 401.664 35.5853 402.28 35.9108 402.66L39.2441 406.548C39.5695 406.928 40.0972 406.928 40.4226 406.548Z" fill="black" fill-opacity="0.7"/>
<path fill-rule="evenodd" clip-rule="evenodd" d="M34 414.333C38.6024 414.333 42.3333 410.602 42.3333 406C42.3333 401.398 38.6024 397.667 34 397.667C29.3976 397.667 25.6667 401.398 25.6667 406C25.6667 410.602 29.3976 414.333 34 414.333ZM34 416C39.5228 416 44 411.523 44 406C44 400.477 39.5228 396 34 396C28.4772 396 24 400.477 24 406C24 411.523 28.4772 416 34 416Z" fill="#888888"/>
<path fill-rule="evenodd" clip-rule="evenodd" d="M34 414.333C38.6024 414.333 42.3333 410.602 42.3333 406C42.3333 401.398 38.6024 397.667 34 397.667C29.3976 397.667 25.6667 401.398 25.6667 406C25.6667 410.602 29.3976 414.333 34 414.333ZM34 416C39.5228 416 44 411.523 44 406C44 400.477 39.5228 396 34 396C28.4772 396 24 400.477 24 406C24 411.523 28.4772 416 34 416Z" fill="black" fill-opacity="0.7"/>
<path fill-rule="evenodd" clip-rule="evenodd" d="M40.6667 372C40.6667 371.54 40.2936 371.167 39.8334 371.167H28.1667C27.7064 371.167 27.3334 371.54 27.3334 372C27.3334 372.46 27.7064 372.833 28.1667 372.833H39.8334C40.2936 372.833 40.6667 372.46 40.6667 372Z" fill="#888888"/>
<path fill-rule="evenodd" clip-rule="evenodd" d="M40.6667 372C40.6667 371.54 40.2936 371.167 39.8334 371.167H28.1667C27.7064 371.167 27.3334 371.54 27.3334 372C27.3334 372.46 27.7064 372.833 28.1667 372.833H39.8334C40.2936 372.833 40.6667 372.46 40.6667 372Z" fill="black" fill-opacity="0.7"/>
<path fill-rule="evenodd" clip-rule="evenodd" d="M32.0893 367.285C31.7638 366.905 31.2362 366.905 30.9108 367.285L27.5774 371.174C27.252 371.553 27.252 372.169 27.5774 372.549C27.9029 372.928 28.4305 372.928 28.7559 372.549L32.0893 368.66C32.4147 368.28 32.4147 367.664 32.0893 367.285Z" fill="#888888"/>
<path fill-rule="evenodd" clip-rule="evenodd" d="M32.0893 367.285C31.7638 366.905 31.2362 366.905 30.9108 367.285L27.5774 371.174C27.252 371.553 27.252 372.169 27.5774 372.549C27.9029 372.928 28.4305 372.928 28.7559 372.549L32.0893 368.66C32.4147 368.28 32.4147 367.664 32.0893 367.285Z" fill="black" fill-opacity="0.7"/>
<path fill-rule="evenodd" clip-rule="evenodd" d="M27.5774 371.452C27.252 371.831 27.252 372.447 27.5774 372.826L30.9108 376.715C31.2362 377.095 31.7638 377.095 32.0893 376.715C32.4147 376.336 32.4147 375.72 32.0893 375.34L28.7559 371.452C28.4305 371.072 27.9029 371.072 27.5774 371.452Z" fill="#888888"/>
<path fill-rule="evenodd" clip-rule="evenodd" d="M27.5774 371.452C27.252 371.831 27.252 372.447 27.5774 372.826L30.9108 376.715C31.2362 377.095 31.7638 377.095 32.0893 376.715C32.4147 376.336 32.4147 375.72 32.0893 375.34L28.7559 371.452C28.4305 371.072 27.9029 371.072 27.5774 371.452Z" fill="black" fill-opacity="0.7"/>
<path fill-rule="evenodd" clip-rule="evenodd" d="M34 380.333C38.6024 380.333 42.3333 376.602 42.3333 372C42.3333 367.398 38.6024 363.667 34 363.667C29.3976 363.667 25.6667 367.398 25.6667 372C25.6667 376.602 29.3976 380.333 34 380.333ZM34 382C39.5228 382 44 377.523 44 372C44 366.477 39.5228 362 34 362C28.4772 362 24 366.477 24 372C24 377.523 28.4772 382 34 382Z" fill="#888888"/>
<path fill-rule="evenodd" clip-rule="evenodd" d="M34 380.333C38.6024 380.333 42.3333 376.602 42.3333 372C42.3333 367.398 38.6024 363.667 34 363.667C29.3976 363.667 25.6667 367.398 25.6667 372C25.6667 376.602 29.3976 380.333 34 380.333ZM34 382C39.5228 382 44 377.523 44 372C44 366.477 39.5228 362 34 362C28.4772 362 24 366.477 24 372C24 377.523 28.4772 382 34 382Z" fill="black" fill-opacity="0.7"/>
<rect x="0.5" y="0.5" width="127" height="475" rx="4.5" stroke="#7B61FF" stroke-dasharray="10 5"/>
</svg>
