<?xml version="1.0" encoding="utf-8"?>
<!-- Generator: Adobe Illustrator 26.0.1, SVG Export Plug-In . SVG Version: 6.00 Build 0)  -->
<svg version="1.1" id="레이어_1" xmlns="http://www.w3.org/2000/svg" xmlns:xlink="http://www.w3.org/1999/xlink" x="0px"
	 y="0px" viewBox="0 0 60 440.7" style="enable-background:new 0 0 60 440.7;" xml:space="preserve">
<style type="text/css">
	.st0{fill:none;stroke:#000000;stroke-width:1.5;}
	.st1{fill:#FFFFFF;}
	.st2{fill:#FFFFFF;stroke:#000000;stroke-width:1.5;}
	.st3{fill:#EFF4F9;fill-opacity:0;}
	.st4{fill:none;}
	.st5{fill:#03D0FF;stroke:#03D0FF;stroke-width:0.7877;}
	.st6{fill:#3E66FB;}
	.st7{fill:#3E66FB;stroke:#FFFFFF;stroke-width:0.6;stroke-miterlimit:10;}
	.st8{font-family:'GodoB';}
	.st9{font-size:4.193px;}
	.st10{opacity:0.5;stroke:#000000;stroke-width:0.3;stroke-miterlimit:10;enable-background:new    ;}
	.st11{stroke:#000000;stroke-width:0.3;stroke-miterlimit:10;}
	.st12{fill:#EFEFEF;}
</style>
<g>
	<path class="st0" d="M19.6,21.4c-3.4,0-6.1,2.7-6.1,6.1c0,1.2,0.2,2.2,0.8,3.2l5.2,6.9l5.2-6.9c0.5-0.7,0.8-2.1,0.8-3.2
		C25.7,24.1,23,21.4,19.6,21.4z"/>
	<path class="st0" d="M19.6,25.8c0.9,0,1.7,0.7,1.7,1.7c0,0.9-0.7,1.7-1.7,1.7c-0.9,0-1.7-0.7-1.7-1.7
		C17.9,26.6,18.7,25.8,19.6,25.8z"/>
</g>
<path d="M19.6,181.4c-3.4,0-6.1,2.7-6.1,6.1c0,1.2,0.2,2.2,0.8,3.2l5.2,6.9l5.2-6.9c0.5-0.7,0.8-2.1,0.8-3.2
	C25.7,184.1,23,181.4,19.6,181.4z M19.6,189.2c-0.9,0-1.7-0.7-1.7-1.7c0-0.9,0.8-1.7,1.7-1.7c0.9,0,1.7,0.7,1.7,1.7
	C21.3,188.4,20.6,189.2,19.6,189.2z"/>
<g>
	<circle cx="19.5" cy="149.5" r="9.5"/>
	<path class="st1" d="M19.6,143.3c-2.6,0-4.6,2-4.6,4.6c0,0.9,0.1,1.6,0.7,2.4l3.9,5.3l3.9-5.3c0.4-0.5,0.7-1.6,0.7-2.4
		C24.2,145.5,22.2,143.3,19.6,143.3z M19.6,149.7c-0.9,0-1.6-0.7-1.6-1.6s0.8-1.6,1.6-1.6c0.9,0,1.6,0.7,1.6,1.6
		C21.2,148.8,20.5,149.7,19.6,149.7z"/>
</g>
<g>
	<path class="st0" d="M13.3,63v12.5L25.8,63H13.3z"/>
	<circle class="st2" cx="13.3" cy="63" r="1.9"/>
	<circle class="st2" cx="13.3" cy="75.4" r="1.9"/>
	<circle class="st2" cx="25.7" cy="63" r="1.9"/>
	<path d="M20.8,65.4c-2.8,0-5,2.2-5,5c0,4,4.8,7.4,5,7.5c0,0,5-3.5,5-7.5C25.8,67.7,23.5,65.4,20.8,65.4z M20.8,73
		c-1.4,0-2.5-1.1-2.5-2.5s1.1-2.5,2.5-2.5s2.5,1.1,2.5,2.5S22.1,73,20.8,73z"/>
	<path class="st1" d="M18.3,70.4c0,1.4,1.1,2.5,2.5,2.5s2.5-1.1,2.5-2.5s-1.1-2.5-2.5-2.5C19.4,68,18.3,69.1,18.3,70.4z"/>
</g>
<g>
	<path d="M19,101.3l-5,1.9c-0.6,0.2-1.1,0.9-1.1,1.6v3.9c0,0.3,0,0.5,0,0.8c0.3,3.7,2.8,7.1,6.2,8.2c0.3,0.1,0.6,0.1,0.9,0
		c3.4-1.1,5.9-4.5,6.2-8.2c0-0.2,0-0.5,0-0.8v-3.9c0-0.3-0.1-0.7-0.3-0.9c-0.2-0.3-0.5-0.5-0.8-0.6l-5-1.9
		C19.8,101.1,19.4,101.1,19,101.3z M19.6,116v-6.6h-5c0-0.2,0-0.5,0-0.8v-3.9l5-1.9v6.6h5C24.2,112.4,22.2,115.1,19.6,116z"/>
</g>
<rect x="12" y="-27.1" width="15" height="15.5"/>
<rect x="-32.3" y="22" width="15.5" height="15"/>
<rect x="-32.3" y="62" width="15.5" height="15"/>
<rect x="-32.3" y="102" width="15.5" height="15"/>
<rect x="-32.3" y="142" width="15.5" height="15"/>
<rect x="-32.3" y="182" width="15.5" height="15"/>
<rect x="-32.3" y="222" width="15.5" height="15"/>
<rect x="-32.3" y="262" width="15.5" height="15"/>
<rect x="-32.3" y="302" width="15.5" height="15"/>
<rect x="-32.3" y="342" width="15.5" height="15"/>
<rect x="-32.3" y="382" width="15.5" height="15"/>
<rect x="-32.3" y="422" width="15.5" height="15"/>
<g>
	<path class="st3" d="M11.3,309.5c0-4.5,3.7-8.2,8.2-8.2s8.2,3.7,8.2,8.2s-3.7,8.2-8.2,8.2S11.3,314,11.3,309.5z"/>
	<rect id="SVGID_00000117638983695213976500000009526197279051439531_" x="16.1" y="306" class="st4" width="6.9" height="6.9"/>
	<g>
		<path class="st5" d="M19.5,310.7c2.4,0,4.3,0.9,4.3,1.9v1.4h-8.3v-1.4C15.4,311.5,17.3,310.7,19.5,310.7z M19.5,305.2
			c0.5,0,0.9,0.2,1.4,0.6c0.3,0.3,0.6,0.8,0.6,1.4s-0.2,0.9-0.6,1.4c-0.3,0.3-0.8,0.6-1.4,0.6c-0.5,0-0.9-0.2-1.4-0.6
			c-0.3-0.3-0.6-0.8-0.6-1.4s0.2-0.9,0.6-1.4S19,305.2,19.5,305.2z"/>
	</g>
	<g>
		<path d="M20.9,314.8L20.9,314.8L20.9,314.8l-0.1,1.1v0.2H21h1h0.1l0.1-0.1l3.3-3.3l0.1-0.1l-0.1-0.1l-1-1l-0.1-0.1l-0.1,0.1
			L20.9,314.8z M24.5,311.2L24.5,311.2v0.2l1,1l0.1,0.1l0.1-0.1l0.7-0.7l0.1-0.1l-0.1-0.1l-1-1l-0.1-0.1l-0.1,0.1L24.5,311.2z"/>
		<path class="st1" d="M22.1,316.1h-1.4v-1.4l0.1-0.1l4.5-4.5l1.4,1.4L22.1,316.1z M21,315.9h1l3.3-3.3l-1-1l-3.3,3.3V315.9z
			 M24.6,311.2L24.6,311.2l1,1l0.7-0.7l-1-1L24.6,311.2z"/>
	</g>
</g>
<g>
	<path class="st3" d="M11.3,349.5c0-4.5,3.7-8.2,8.2-8.2s8.2,3.7,8.2,8.2s-3.7,8.2-8.2,8.2S11.3,354.1,11.3,349.5z"/>
	<g>
		<path class="st6" d="M16.4,353.4h4.7c0.3,0,0.4-0.1,0.5-0.3c0.1-0.1,0.3-0.4,0.3-0.5V348c0-0.3-0.1-0.4-0.3-0.5
			c-0.1-0.1-0.4-0.3-0.5-0.3h-4.7c-0.3,0-0.4,0.1-0.5,0.3c-0.1,0.1-0.3,0.4-0.3,0.5v4.7c0,0.3,0.1,0.4,0.3,0.5
			C15.9,353.3,16.2,353.4,16.4,353.4z M17.2,349.9h1.1v-1.1h0.8v1.1h1.1v0.8h-1.1v1.1h-0.8v-1.1h-1.1V349.9z"/>
		<path class="st6" d="M22.6,345.6h-4.7v0.8h4.7v4.6h0.8v-4.7C23.3,346,23,345.6,22.6,345.6z"/>
	</g>
	<g>
		<path d="M20.1,355.3L20.1,355.3l-0.1,0.1v1.3v0.2h0.2h1.3h0.1l0.1-0.1l4.3-4.3l0.1-0.1l-0.1-0.1l-1.3-1.3l-0.1-0.1l-0.1,0.1
			L20.1,355.3z M24.8,350.6l-0.1,0.1l0.1,0.1l1.3,1.3l0.1,0.1l0.1-0.1l0.9-0.9l0.1-0.1l-0.1-0.1l-1.3-1.3l-0.1-0.1l-0.1,0.1
			L24.8,350.6z"/>
		<path class="st1" d="M21.6,357.1h-1.8v-1.8l5.9-5.9l1.8,1.8l-1.3,1.3l0,0L21.6,357.1z M20.2,356.7h1.3l4.3-4.3l-1.3-1.3l-4.3,4.3
			V356.7z M24.9,350.7l1.3,1.3l0.9-0.9l-1.3-1.3L24.9,350.7z"/>
	</g>
</g>
<g>
	<path d="M23.8,394.4h-4.3c-0.5,0-0.9-0.4-0.9-0.9v-4.3c0-0.5,0.4-0.9,0.9-0.9h4.3c0.5,0,0.9,0.4,0.9,0.9v4.3
		C24.7,394,24.2,394.4,23.8,394.4z"/>
	<path class="st7" d="M20,391.1h-4.6c-0.6,0-1-0.4-1-1v-4.6c0-0.6,0.4-1,1-1H20c0.6,0,1,0.4,1,1v4.6C21,390.6,20.6,391.1,20,391.1z"
		/>
	<g>
		<path class="st1" d="M17.2,386.9C17.2,386.8,17.2,386.8,17.2,386.9l-1.3-0.1v-0.6h1.4c0.1,0,0.1,0,0.2,0.1s0.1,0.1,0.2,0.2
			s0.1,0.1,0.1,0.2s0,0.1,0,0.2c0,0.2-0.1,0.5-0.2,0.7s-0.2,0.4-0.4,0.6c-0.2,0.2-0.3,0.3-0.5,0.5c-0.2,0.1-0.4,0.3-0.6,0.4H16
			c0,0-0.1-0.1-0.2-0.2c-0.1-0.1-0.1-0.2-0.1-0.2s0-0.1,0.1-0.1c0.1-0.1,0.3-0.2,0.4-0.3c0.2-0.1,0.3-0.2,0.4-0.4
			c0.1-0.1,0.3-0.3,0.3-0.5C17.2,387.2,17.2,387.1,17.2,386.9z M18.5,385.9h0.6v1.3h0.7v0.5h-0.7v2c0,0.1,0,0.1-0.1,0.1
			s-0.1,0-0.2,0s-0.2,0-0.2,0c-0.1,0-0.1-0.1-0.1-0.1S18.4,385.9,18.5,385.9z"/>
	</g>
	<text transform="matrix(0.883 0 0 1 21.1787 392.7246)" class="st1 st8 st9">A</text>
	<path class="st10" d="M22.4,385.2c0.4,0,0.8,0,1.2,0c0.6,0,1,0.4,1,1c0,0.3,0,0.5,0,0.8v0.1c0,0.1-0.1,0.1-0.1,0.1
		c-0.1,0-0.1-0.1-0.1-0.1c0-0.3,0-0.7,0-1s-0.2-0.5-0.5-0.6c-0.1,0-0.2,0-0.2,0c-0.4,0-0.8,0-1.2,0c0.1,0,0.1,0.1,0.2,0.1
		s0.1,0.1,0.1,0.2c-0.1,0.1-0.1,0.1-0.2,0c-0.2-0.1-0.4-0.2-0.6-0.4c-0.1-0.1-0.1-0.2,0-0.3c0.2-0.1,0.4-0.3,0.6-0.4
		c0.1-0.1,0.1-0.1,0.2,0s0,0.1-0.1,0.2C22.6,385.1,22.5,385.1,22.4,385.2z"/>
	<path class="st11" d="M17,394c-0.4,0-0.8,0-1.2,0c-0.6,0-1-0.4-1-1c0-0.3,0-0.5,0-0.8v-0.1c0-0.1,0.1-0.1,0.1-0.1
		c0.1,0,0.1,0.1,0.1,0.1c0,0.3,0,0.7,0,1s0.2,0.5,0.5,0.6c0.1,0,0.2,0,0.2,0c0.4,0,0.8,0,1.2,0c-0.1,0-0.1-0.1-0.2-0.1
		s-0.1-0.1-0.1-0.2c0.1-0.1,0.1-0.1,0.2,0c0.2,0.1,0.4,0.2,0.6,0.4c0.1,0.1,0.1,0.2,0,0.3c-0.2,0.1-0.4,0.3-0.6,0.4
		c-0.1,0.1-0.1,0.1-0.2,0s0-0.1,0.1-0.2C16.8,394.1,16.9,394,17,394z"/>
</g>
<g>
	<circle class="st12" cx="19.5" cy="429.5" r="8.6"/>
	<path d="M22.4,433.1c-0.4-0.2-0.6-0.5-0.6-1c0-0.1,0-0.2,0-0.2c-0.2-0.1-0.4-0.2-0.5-0.3c-0.1-0.4-0.2-0.8,0-1.1
		c0.3-0.6,0.3-1.3,0.8-1.8l0.1-0.1c0.1-0.4,0.2-0.8,0.3-1.2c0-0.1,0-0.3,0-0.3c-0.3-0.2-0.2-0.4-0.1-0.6c0-0.4,0.1-0.9,0.1-1.3
		c0-0.5,0-1-0.5-1.3c0,0,0-0.1-0.1-0.1c-0.1-0.2-0.2-0.4-0.4-0.5c-0.4-0.3-0.8-0.5-1.3-0.5c-0.5-0.1-1-0.1-1.5-0.2c0,0,0,0-0.1,0
		v0.1c-0.3,0.1-0.7,0.2-1,0.3c-0.3,0.1-0.5,0.3-0.5,0.6c-0.1,0.3-0.2,0.5-0.5,0.6c-0.1,0-0.3,0.2-0.3,0.4c-0.1,0.2-0.1,0.4,0,0.7
		c0,0.5,0.1,1,0.1,1.5c0,0.1,0,0.2,0,0.3c-0.2,0.1-0.2,0.3-0.2,0.5c0,0.3,0.1,0.6,0.2,0.9c0.2,0.6,0.5,1.2,0.8,1.8
		c0.2,0.5,0.3,1,0.2,1.5c0,0.1-0.1,0.2-0.2,0.3c-0.1,0.1-0.2,0.1-0.3,0.1c0.2,0.5,0,0.7-0.7,1c-1.2,0.5-2.3,1.1-3.5,1.6
		c1.6,2,4,3.3,6.8,3.3c2.7,0,5.1-1.2,6.7-3.2l-0.1-0.1C24.9,434.2,23.7,433.7,22.4,433.1z"/>
</g>
</svg>
