<?xml version="1.0" encoding="utf-8"?>
<!-- Generator: Adobe Illustrator 23.1.0, SVG Export Plug-In . SVG Version: 6.00 Build 0)  -->
<svg version="1.1" id="Bold" xmlns="http://www.w3.org/2000/svg" xmlns:xlink="http://www.w3.org/1999/xlink" x="0px" y="0px"
	 viewBox="0 0 1140 319.4" style="enable-background:new 0 0 1140 319.4;" xml:space="preserve">
<style type="text/css">
	.st0{fill:#F9F9F9;}
	.st1{fill:#FAE100;}
	.st2{fill:#3C1E1E;}
	.st3{fill:#FFFFFF;}
	.st4{fill:#1EA9AA;}
	.st5{fill:#2F2F30;}
</style>
<circle class="st0" cx="138.6" cy="587.4" r="109"/>
<circle class="st0" cx="485.6" cy="587.4" r="109"/>
<circle class="st0" cx="832.5" cy="587.4" r="109"/>
<path d="M1008.9,10c-64.2,0-116.1,51.1-116.1,114.1c0,50.4,33.3,93.2,79.4,108.3c5.8,1.1,7.9-2.5,7.9-5.5c0-2.7-0.1-9.9-0.1-19.4
	c-32.3,6.9-39.1-15.3-39.1-15.3c-5.3-13.2-12.9-16.7-12.9-16.7c-10.5-7.1,0.8-6.9,0.8-6.9c11.7,0.8,17.8,11.8,17.8,11.8
	c10.4,17.4,27.2,12.4,33.8,9.5c1-7.4,4-12.4,7.4-15.3c-25.8-2.9-52.9-12.7-52.9-56.4c0-12.5,4.5-22.6,12-30.6
	c-1.3-2.9-5.2-14.5,1-30.2c0,0,9.7-3.1,31.9,11.7c9.3-2.5,19.2-3.8,29-3.9c9.9,0.1,19.7,1.3,29,3.9c22.1-14.8,31.8-11.7,31.8-11.7
	c6.2,15.7,2.3,27.3,1.2,30.2c7.4,8,11.9,18.2,11.9,30.6c0,43.8-27.1,53.5-53,56.3c4.1,3.4,7.8,10.4,7.8,21.1
	c0,15.3-0.1,27.5-0.1,31.2c0,3,2,6.6,8,5.4c46.5-15,79.7-57.8,79.7-108.1C1125,61.1,1073,10,1008.9,10z"/>
<g>
	<path class="st1" d="M-1012.3,213.5H-1170c-34.7,0-62.9-28.2-62.9-62.9V-7c0-34.7,28.2-62.9,62.9-62.9h157.7
		c34.7,0,62.9,28.2,62.9,62.9v157.7C-949.4,185.4-977.5,213.5-1012.3,213.5z"/>
	<g>
		<path class="st2" d="M-1145.1,132.3c-4.6-2.9-9.2-5.6-13.5-8.6c-15.7-11.3-27.3-25.7-31.5-44.9c-5.4-24.5,2.1-45.5,19.2-63.3
			c16.1-16.7,36.3-25.9,58.9-29.7c28.4-4.8,55.7-0.9,80.9,13.4c17.2,9.7,30.8,23.1,37.6,41.9c9.9,27.3,3,51.3-16.5,71.8
			c-16.6,17.4-37.7,26.4-61.1,30.2c-11.2,1.8-22.5,2-33.8,0.6c-2.7-0.3-4.8,0.3-7.1,1.8c-11.7,8.1-23.4,16-35.2,23.9
			c-0.5,0.4-1.1,0.9-1.7,1.1c-1.4,0.3-3.5,1-4.1,0.4c-0.9-0.9-1.4-3-1.1-4.3c2.3-9.3,4.9-18.6,7.4-27.9
			C-1146.2,136.5-1145.7,134.4-1145.1,132.3z M-1041.4,69.1c3.2,4.3,6.4,8.6,9.5,12.8c1.7,2.2,3.2,4.5,5,6.6
			c1.9,2.2,4.9,2.4,6.8,0.6c2.1-1.8,1.7-4,0.4-6c-1.1-1.7-2.3-3.2-3.5-4.8c-3.9-5.1-7.8-10.2-12.4-16.1c1.6-1.2,3.2-2.1,4.4-3.3
			c3.6-3.5,7.1-7,10.3-10.8c0.8-1,1-3.7,0.3-4.6c-1-1.1-3.2-1.7-4.9-1.6c-1.2,0.1-2.4,1.4-3.4,2.4c-4.5,4.6-8.9,9.2-13.4,13.8
			c-0.8,0.8-1.7,1.6-3.2,3c0-5.7,0.1-10.4,0-15.1c-0.1-3.4-1.8-5.3-4.7-5.2c-2.8,0.1-4.5,1.8-4.5,5c-0.1,13.2-0.1,26.4,0,39.5
			c0,3.2,1.8,4.9,4.6,4.9c2.7-0.1,4.5-1.9,4.6-5c0.1-3.1,0.2-6.2,0-9.3C-1045.7,72.7-1044.2,70.8-1041.4,69.1z M-1090.9,86.9
			c-0.5-1.7-0.7-2.7-1-3.6c-1.3-3.8-2.7-7.5-4-11.2c-3.1-8.6-6.2-17.3-9.3-25.9c-1.1-3-3.1-5.2-6.5-5.3c-3.6-0.1-5.6,2.1-7,5.1
			c-0.2,0.5-0.4,1-0.6,1.6c-4.3,11.6-8.6,23.2-12.8,34.8c-0.3,0.8-0.6,1.7-0.8,2.5c-0.4,2.5,0.5,4.4,3,5.1c2.5,0.7,4.4-0.2,5.4-2.6
			c0.6-1.5,1.1-3.1,1.6-4.7c0.5-1.7,1.4-2.5,3.3-2.5c5.1,0.1,10.2,0.1,15.3,0c1.9,0,2.8,0.7,3.3,2.5c0.5,1.8,0.7,4,1.9,5.2
			c1.1,1.2,3.3,2.1,5,2C-1093,89.8-1091.9,87.9-1090.9,86.9z M-1141.2,49.8c3.1,0,5.8,0,8.5,0c4,0,5.5-1.2,5.5-4.1
			c0-3-1.7-4.3-5.7-4.3c-7,0-13.9,0-20.9,0c-2.3,0-4.6-0.1-7,0c-2.8,0.1-4.3,1.5-4.3,4.4c0.1,2.7,1.6,4,4.3,4c1.8,0,3.5,0,5.3,0
			c4.7,0,4.7,0,4.7,4.7c0,9.8,0,19.7,0,29.5c0,4.2,1.7,6.1,5,5.8c3.6-0.3,4.2-2.8,4.2-5.6c0-9.9,0-19.9,0-29.8
			C-1141.4,53-1141.3,51.6-1141.2,49.8z M-1086.5,65.3c0,6.3,0,12.6,0,18.9c0,4,1.5,5.5,5.4,5.5c5.8,0.1,11.5,0.1,17.3,0
			c3.1,0,5-1.7,5.1-4.1c0-2.5-1.8-4.1-4.9-4.2c-3.1-0.1-6.2,0-9.3,0c-4.4,0-4.4,0-4.4-4.3c0-10.2,0-20.4,0-30.5
			c0-3.7-1.6-5.3-4.6-5.2c-3,0.1-4.4,1.7-4.5,5.3C-1086.5,52.9-1086.5,59.1-1086.5,65.3z"/>
		<path class="st3" d="M-1041.4,69.1c-2.8,1.7-4.3,3.6-4,6.9c0.3,3.1,0.1,6.2,0,9.3c-0.1,3.1-1.9,5-4.6,5c-2.8,0.1-4.6-1.7-4.6-4.9
			c-0.1-13.2-0.1-26.4,0-39.5c0-3.2,1.8-5,4.5-5c2.9-0.1,4.7,1.8,4.7,5.2c0.1,4.7,0,9.4,0,15.1c1.5-1.4,2.4-2.2,3.2-3
			c4.5-4.6,8.9-9.3,13.4-13.8c1-1,2.2-2.4,3.4-2.4c1.7-0.1,3.9,0.4,4.9,1.6c0.8,0.9,0.6,3.6-0.3,4.6c-3.2,3.8-6.8,7.3-10.3,10.8
			c-1.3,1.2-2.8,2.1-4.4,3.3c4.6,6,8.5,11,12.4,16.1c1.2,1.6,2.5,3.1,3.5,4.8c1.3,2,1.7,4.2-0.4,6c-2,1.7-5,1.5-6.8-0.6
			c-1.8-2.1-3.4-4.4-5-6.6C-1035,77.6-1038.2,73.4-1041.4,69.1z"/>
		<path class="st3" d="M-1090.9,86.9c-1,0.9-2.1,2.9-3.4,3c-1.6,0.1-3.8-0.8-5-2c-1.2-1.3-1.4-3.4-1.9-5.2c-0.5-1.7-1.4-2.5-3.3-2.5
			c-5.1,0.1-10.2,0.1-15.3,0c-1.9,0-2.8,0.7-3.3,2.5c-0.4,1.6-0.9,3.2-1.6,4.7c-1,2.4-2.9,3.3-5.4,2.6c-2.5-0.7-3.4-2.6-3-5.1
			c0.1-0.9,0.5-1.7,0.8-2.5c4.3-11.6,8.6-23.2,12.8-34.8c0.2-0.5,0.4-1,0.6-1.6c1.4-3,3.4-5.3,7-5.1c3.4,0.1,5.4,2.3,6.5,5.3
			c3.1,8.6,6.2,17.3,9.3,25.9c1.3,3.7,2.7,7.5,4,11.2C-1091.6,84.2-1091.4,85.2-1090.9,86.9z M-1111.7,50.1c-0.3,0-0.6,0.1-0.9,0.1
			c-2.4,7.2-4.7,14.3-7.2,21.9c5.3,0,10.1,0,15.4,0C-1107,64.5-1109.3,57.3-1111.7,50.1z"/>
		<path class="st3" d="M-1141.2,49.8c-0.1,1.7-0.3,3.1-0.3,4.5c0,9.9,0,19.9,0,29.8c0,2.8-0.6,5.4-4.2,5.6c-3.3,0.2-5-1.6-5-5.8
			c-0.1-9.8,0-19.7,0-29.5c0-4.7,0-4.7-4.7-4.7c-1.8,0-3.5,0-5.3,0c-2.6,0-4.2-1.2-4.3-4c-0.1-2.8,1.5-4.3,4.3-4.4
			c2.3-0.1,4.6,0,7,0c7,0,13.9,0,20.9,0c4,0,5.7,1.3,5.7,4.3c0,2.9-1.6,4-5.5,4.1C-1135.4,49.9-1138.1,49.8-1141.2,49.8z"/>
		<path class="st3" d="M-1086.5,65.3c0-6.2,0-12.4,0-18.6c0-3.7,1.5-5.3,4.5-5.3c3-0.1,4.5,1.5,4.6,5.2c0.1,10.2,0,20.4,0,30.5
			c0,4.2,0,4.2,4.4,4.3c3.1,0,6.2-0.1,9.3,0c3.1,0.1,5,1.8,4.9,4.2c0,2.4-1.9,4-5.1,4.1c-5.8,0.1-11.5,0.1-17.3,0
			c-3.9,0-5.3-1.5-5.4-5.5C-1086.5,77.9-1086.5,71.6-1086.5,65.3z"/>
		<path class="st2" d="M-1111.7,50.1c2.4,7.2,4.7,14.4,7.3,22c-5.3,0-10.1,0-15.4,0c2.5-7.5,4.9-14.7,7.2-21.9
			C-1112.3,50.2-1112,50.2-1111.7,50.1z"/>
	</g>
</g>
<path class="st1" d="M-272.2,213.5h-157.7c-34.7,0-62.9-28.2-62.9-62.9V-7c0-34.7,28.2-62.9,62.9-62.9h157.7
	c34.7,0,62.9,28.2,62.9,62.9v157.7C-209.3,185.4-237.5,213.5-272.2,213.5z"/>
<path d="M511.9,167.8c-4.9-3.1-9.8-5.9-14.4-9.2c-16.7-12-29-27.4-33.5-47.8c-5.8-26.1,2.2-48.4,20.4-67.3
	C501.5,25.9,523,16.1,547,12.1c30.2-5.1,59.2-1,86,14.2c18.2,10.3,32.7,24.5,40,44.6c10.5,29,3.2,54.5-17.6,76.3
	c-17.6,18.5-40,28.1-65,32.1c-11.9,1.9-23.9,2.1-35.9,0.7c-2.9-0.3-5.2,0.3-7.5,1.9c-12.4,8.6-24.9,17-37.4,25.4
	c-0.6,0.4-1.1,1-1.8,1.1c-1.5,0.3-3.7,1.1-4.4,0.4c-1-0.9-1.5-3.2-1.2-4.6c2.5-9.9,5.2-19.8,7.8-29.7
	C510.7,172.4,511.3,170.1,511.9,167.8z M622.2,100.6c3.4,4.6,6.8,9.1,10.1,13.6c1.8,2.4,3.4,4.8,5.4,7c2,2.3,5.2,2.5,7.3,0.7
	c2.2-1.9,1.8-4.2,0.4-6.4c-1.1-1.8-2.5-3.4-3.8-5.1c-4.1-5.4-8.3-10.8-13.2-17.1c1.7-1.2,3.4-2.2,4.7-3.5c3.8-3.7,7.6-7.4,11-11.5
	c0.9-1.1,1.1-4,0.3-4.9c-1-1.2-3.4-1.8-5.2-1.7c-1.3,0.1-2.6,1.5-3.6,2.6c-4.8,4.9-9.5,9.8-14.3,14.7c-0.8,0.9-1.8,1.7-3.4,3.2
	c0-6,0.1-11.1,0-16.1c-0.1-3.6-1.9-5.6-5-5.5c-2.9,0.1-4.8,2-4.8,5.4c-0.1,14-0.1,28,0,42c0,3.4,1.9,5.2,4.9,5.2
	c2.9-0.1,4.8-2,4.9-5.3c0.1-3.3,0.2-6.6,0-9.9C617.6,104.5,619.2,102.4,622.2,100.6z M569.5,119.6c-0.5-1.9-0.8-2.9-1.1-3.9
	c-1.4-4-2.8-8-4.3-11.9c-3.3-9.2-6.6-18.4-9.9-27.5c-1.2-3.2-3.3-5.5-6.9-5.6c-3.8-0.1-6,2.3-7.4,5.5c-0.2,0.5-0.4,1.1-0.6,1.6
	c-4.6,12.3-9.1,24.7-13.7,37c-0.3,0.9-0.7,1.8-0.8,2.7c-0.4,2.7,0.5,4.7,3.2,5.5c2.6,0.8,4.7-0.2,5.7-2.8c0.7-1.6,1.2-3.3,1.7-5
	c0.5-1.9,1.4-2.7,3.5-2.6c5.4,0.1,10.8,0.1,16.2,0c2,0,3,0.8,3.5,2.6c0.5,1.9,0.8,4.2,2,5.5c1.2,1.3,3.5,2.3,5.3,2.1
	C567.3,122.6,568.5,120.6,569.5,119.6z M516.1,80.2c3.2,0,6.2,0,9.1,0c4.2,0,5.9-1.3,5.9-4.3c0-3.2-1.8-4.6-6.1-4.6
	c-7.4,0-14.8,0-22.2,0c-2.5,0-4.9-0.1-7.4,0c-2.9,0.1-4.6,1.6-4.5,4.7c0.1,2.9,1.7,4.2,4.5,4.2c1.9,0,3.8,0,5.6,0c5,0,5,0,5,5
	c0,10.5,0,20.9,0,31.4c0,4.5,1.8,6.4,5.3,6.2c3.8-0.3,4.4-3,4.4-6c0-10.6,0-21.2,0.1-31.7C515.8,83.5,516,82,516.1,80.2z
	 M574.2,96.6c0,6.7-0.1,13.4,0,20.1c0,4.3,1.6,5.8,5.7,5.9c6.1,0.1,12.2,0.1,18.4,0c3.3,0,5.4-1.8,5.4-4.3c0-2.6-1.9-4.4-5.2-4.5
	c-3.3-0.1-6.6,0-9.9,0c-4.7,0-4.7,0-4.7-4.5c0-10.8,0-21.6,0-32.5c0-3.9-1.7-5.6-4.8-5.6c-3.2,0.1-4.7,1.8-4.7,5.7
	C574.2,83.4,574.2,90,574.2,96.6z"/>
<path class="st3" d="M622.2,100.6c-3,1.8-4.6,3.8-4.3,7.3c0.3,3.3,0.1,6.6,0,9.9c-0.1,3.3-2,5.3-4.9,5.3c-3,0.1-4.9-1.8-4.9-5.2
	c-0.1-14-0.1-28,0-42c0-3.4,1.9-5.3,4.8-5.4c3.1-0.1,5,1.9,5,5.5c0.1,5,0,10,0,16.1c1.6-1.5,2.6-2.3,3.4-3.2
	c4.8-4.9,9.5-9.9,14.3-14.7c1-1.1,2.4-2.5,3.6-2.6c1.8-0.1,4.1,0.5,5.2,1.7c0.8,0.9,0.6,3.8-0.3,4.9c-3.4,4-7.2,7.8-11,11.5
	c-1.3,1.3-3,2.3-4.7,3.5c4.9,6.3,9,11.7,13.2,17.1c1.3,1.7,2.6,3.3,3.8,5.1c1.4,2.2,1.8,4.5-0.4,6.4c-2.1,1.9-5.3,1.6-7.3-0.7
	c-1.9-2.2-3.6-4.6-5.4-7C628.9,109.7,625.6,105.2,622.2,100.6z"/>
<path class="st3" d="M569.5,119.6c-1.1,1-2.2,3-3.6,3.2c-1.7,0.1-4.1-0.8-5.3-2.1c-1.2-1.3-1.5-3.6-2-5.5c-0.5-1.9-1.5-2.7-3.5-2.6
	c-5.4,0.1-10.8,0.1-16.2,0c-2,0-3,0.8-3.5,2.6c-0.4,1.7-1,3.4-1.7,5c-1,2.6-3.1,3.5-5.7,2.8c-2.7-0.8-3.7-2.8-3.2-5.5
	c0.1-0.9,0.5-1.8,0.8-2.7c4.5-12.3,9.1-24.7,13.7-37c0.2-0.6,0.4-1.1,0.6-1.6c1.5-3.2,3.6-5.6,7.4-5.5c3.6,0.1,5.7,2.4,6.9,5.6
	c3.3,9.2,6.6,18.3,9.9,27.5c1.4,4,2.9,8,4.3,11.9C568.8,116.7,569,117.7,569.5,119.6z M547.4,80.5c-0.3,0-0.7,0.1-1,0.1
	c-2.5,7.6-5,15.2-7.7,23.3c5.6,0,10.8,0,16.4,0C552.5,95.8,549.9,88.1,547.4,80.5z"/>
<path class="st3" d="M516.1,80.2c-0.1,1.8-0.3,3.3-0.3,4.8c0,10.6,0,21.2-0.1,31.7c0,3-0.6,5.7-4.4,6c-3.5,0.3-5.3-1.7-5.3-6.2
	c-0.1-10.5,0-20.9,0-31.4c0-5,0-5-5-5c-1.9,0-3.8,0-5.6,0c-2.8,0-4.5-1.3-4.5-4.2c-0.1-3,1.6-4.6,4.5-4.7c2.5-0.1,4.9,0,7.4,0
	c7.4,0,14.8,0,22.2,0c4.3,0,6.1,1.4,6.1,4.6c0,3.1-1.7,4.3-5.9,4.3C522.3,80.2,519.4,80.2,516.1,80.2z"/>
<path class="st3" d="M574.2,96.6c0-6.6,0-13.2,0-19.8c0-3.9,1.5-5.6,4.7-5.7c3.2-0.1,4.8,1.6,4.8,5.6c0.1,10.8,0,21.6,0,32.5
	c0,4.5,0,4.5,4.7,4.5c3.3,0,6.6-0.1,9.9,0c3.3,0.1,5.3,1.9,5.2,4.5c0,2.6-2.1,4.3-5.4,4.3c-6.1,0.1-12.2,0.1-18.4,0
	c-4.1,0-5.6-1.6-5.7-5.9C574.2,110,574.2,103.3,574.2,96.6z"/>
<path d="M547.4,80.5c2.5,7.6,5,15.3,7.7,23.4c-5.6,0-10.7,0-16.4,0c2.6-8,5.2-15.6,7.7-23.3C546.8,80.6,547.1,80.5,547.4,80.5z"/>
<polygon class="st4" points="91.9,10.6 15,87.5 91.9,87.5 "/>
<g>
	<path d="M15,87.5c0,0.1,0,0.2,0,0.3v122.6h44.8V87.8c0-0.1,0-0.2,0-0.3H15z"/>
	<path d="M92.8,10c-0.3,0-0.6,0-0.9,0v44.9c0.3,0,0.6,0,0.9,0c18.2,0,33,14.8,33,33v122.6h44.8V87.8C170.6,44.9,135.7,10,92.8,10z"
		/>
</g>
<path d="M1008.9-332.5c-64.2,0-116.1,51.1-116.1,114.1c0,50.4,33.3,93.2,79.4,108.3c5.8,1.1,7.9-2.5,7.9-5.5c0-2.7-0.1-9.9-0.1-19.4
	c-32.3,6.9-39.1-15.3-39.1-15.3c-5.3-13.2-12.9-16.7-12.9-16.7c-10.5-7.1,0.8-6.9,0.8-6.9c11.7,0.8,17.8,11.8,17.8,11.8
	c10.4,17.4,27.2,12.4,33.8,9.5c1-7.4,4-12.4,7.4-15.3c-25.8-2.9-52.9-12.7-52.9-56.4c0-12.5,4.5-22.6,12-30.6
	c-1.3-2.9-5.2-14.5,1-30.2c0,0,9.7-3.1,31.9,11.7c9.3-2.5,19.2-3.8,29-3.9c9.9,0.1,19.7,1.3,29,3.9c22.1-14.8,31.8-11.7,31.8-11.7
	c6.2,15.7,2.3,27.3,1.2,30.2c7.4,8,11.9,18.2,11.9,30.6c0,43.8-27.1,53.5-53,56.3c4.1,3.4,7.8,10.4,7.8,21.1
	c0,15.3-0.1,27.5-0.1,31.2c0,3,2,6.6,8,5.4c46.5-15,79.7-57.8,79.7-108.1C1125-281.4,1073-332.5,1008.9-332.5z"/>
<g>
	<path class="st2" d="M511.9-174.7c-4.9-3.1-9.8-5.9-14.4-9.2c-16.7-12-29-27.4-33.5-47.8c-5.8-26.1,2.2-48.4,20.4-67.3
		c17.1-17.8,38.5-27.6,62.6-31.6c30.2-5.1,59.2-1,86,14.2c18.2,10.3,32.7,24.5,40,44.6c10.5,29,3.2,54.5-17.6,76.3
		c-17.6,18.5-40,28.1-65,32.1c-11.9,1.9-23.9,2.1-35.9,0.7c-2.9-0.3-5.2,0.3-7.5,1.9c-12.4,8.6-24.9,17-37.4,25.4
		c-0.6,0.4-1.1,1-1.8,1.1c-1.5,0.3-3.7,1.1-4.4,0.4c-1-0.9-1.5-3.2-1.2-4.6c2.5-9.9,5.2-19.8,7.8-29.7
		C510.7-170.2,511.3-172.4,511.9-174.7z M622.2-241.9c3.4,4.6,6.8,9.1,10.1,13.6c1.8,2.4,3.4,4.8,5.4,7c2,2.3,5.2,2.5,7.3,0.7
		c2.2-1.9,1.8-4.2,0.4-6.4c-1.1-1.8-2.5-3.4-3.8-5.1c-4.1-5.4-8.3-10.8-13.2-17.1c1.7-1.2,3.4-2.2,4.7-3.5c3.8-3.7,7.6-7.4,11-11.5
		c0.9-1.1,1.1-4,0.3-4.9c-1-1.2-3.4-1.8-5.2-1.7c-1.3,0.1-2.6,1.5-3.6,2.6c-4.8,4.9-9.5,9.8-14.3,14.7c-0.8,0.9-1.8,1.7-3.4,3.2
		c0-6,0.1-11.1,0-16.1c-0.1-3.6-1.9-5.6-5-5.5c-2.9,0.1-4.8,2-4.8,5.4c-0.1,14-0.1,28,0,42c0,3.4,1.9,5.2,4.9,5.2
		c2.9-0.1,4.8-2,4.9-5.3c0.1-3.3,0.2-6.6,0-9.9C617.6-238.1,619.2-240.1,622.2-241.9z M569.5-222.9c-0.5-1.9-0.8-2.9-1.1-3.9
		c-1.4-4-2.8-8-4.3-11.9c-3.3-9.2-6.6-18.4-9.9-27.5c-1.2-3.2-3.3-5.5-6.9-5.6c-3.8-0.1-6,2.3-7.4,5.5c-0.2,0.5-0.4,1.1-0.6,1.6
		c-4.6,12.3-9.1,24.7-13.7,37c-0.3,0.9-0.7,1.8-0.8,2.7c-0.4,2.7,0.5,4.7,3.2,5.5c2.6,0.8,4.7-0.2,5.7-2.8c0.7-1.6,1.2-3.3,1.7-5
		c0.5-1.9,1.4-2.7,3.5-2.6c5.4,0.1,10.8,0.1,16.2,0c2,0,3,0.8,3.5,2.6c0.5,1.9,0.8,4.2,2,5.5c1.2,1.3,3.5,2.3,5.3,2.1
		C567.3-219.9,568.5-221.9,569.5-222.9z M516.1-262.3c3.2,0,6.2,0,9.1,0c4.2,0,5.9-1.3,5.9-4.3c0-3.2-1.8-4.6-6.1-4.6
		c-7.4,0-14.8,0-22.2,0c-2.5,0-4.9-0.1-7.4,0c-2.9,0.1-4.6,1.6-4.5,4.7c0.1,2.9,1.7,4.2,4.5,4.2c1.9,0,3.8,0,5.6,0c5,0,5,0,5,5
		c0,10.5,0,20.9,0,31.4c0,4.5,1.8,6.4,5.3,6.2c3.8-0.3,4.4-3,4.4-6c0-10.6,0-21.2,0.1-31.7C515.8-259,516-260.5,516.1-262.3z
		 M574.2-245.9c0,6.7-0.1,13.4,0,20.1c0,4.3,1.6,5.8,5.7,5.9c6.1,0.1,12.2,0.1,18.4,0c3.3,0,5.4-1.8,5.4-4.3c0-2.6-1.9-4.4-5.2-4.5
		c-3.3-0.1-6.6,0-9.9,0c-4.7,0-4.7,0-4.7-4.5c0-10.8,0-21.6,0-32.5c0-3.9-1.7-5.6-4.8-5.6c-3.2,0.1-4.7,1.8-4.7,5.7
		C574.2-259.1,574.2-252.5,574.2-245.9z"/>
	<path class="st3" d="M622.2-241.9c-3,1.8-4.6,3.8-4.3,7.3c0.3,3.3,0.1,6.6,0,9.9c-0.1,3.3-2,5.3-4.9,5.3c-3,0.1-4.9-1.8-4.9-5.2
		c-0.1-14-0.1-28,0-42c0-3.4,1.9-5.3,4.8-5.4c3.1-0.1,5,1.9,5,5.5c0.1,5,0,10,0,16.1c1.6-1.5,2.6-2.3,3.4-3.2
		c4.8-4.9,9.5-9.9,14.3-14.7c1-1.1,2.4-2.5,3.6-2.6c1.8-0.1,4.1,0.5,5.2,1.7c0.8,0.9,0.6,3.8-0.3,4.9c-3.4,4-7.2,7.8-11,11.5
		c-1.3,1.3-3,2.3-4.7,3.5c4.9,6.3,9,11.7,13.2,17.1c1.3,1.7,2.6,3.3,3.8,5.1c1.4,2.2,1.8,4.5-0.4,6.4c-2.1,1.9-5.3,1.6-7.3-0.7
		c-1.9-2.2-3.6-4.6-5.4-7C628.9-232.8,625.6-237.3,622.2-241.9z"/>
	<path class="st3" d="M569.5-222.9c-1.1,1-2.2,3-3.6,3.2c-1.7,0.1-4.1-0.8-5.3-2.1c-1.2-1.3-1.5-3.6-2-5.5c-0.5-1.9-1.5-2.7-3.5-2.6
		c-5.4,0.1-10.8,0.1-16.2,0c-2,0-3,0.8-3.5,2.6c-0.4,1.7-1,3.4-1.7,5c-1,2.6-3.1,3.5-5.7,2.8c-2.7-0.8-3.7-2.8-3.2-5.5
		c0.1-0.9,0.5-1.8,0.8-2.7c4.5-12.3,9.1-24.7,13.7-37c0.2-0.6,0.4-1.1,0.6-1.6c1.5-3.2,3.6-5.6,7.4-5.5c3.6,0.1,5.7,2.4,6.9,5.6
		c3.3,9.2,6.6,18.3,9.9,27.5c1.4,4,2.9,8,4.3,11.9C568.8-225.8,569-224.8,569.5-222.9z M547.4-262c-0.3,0-0.7,0.1-1,0.1
		c-2.5,7.6-5,15.2-7.7,23.3c5.6,0,10.8,0,16.4,0C552.5-246.8,549.9-254.4,547.4-262z"/>
	<path class="st3" d="M516.1-262.3c-0.1,1.8-0.3,3.3-0.3,4.8c0,10.6,0,21.2-0.1,31.7c0,3-0.6,5.7-4.4,6c-3.5,0.3-5.3-1.7-5.3-6.2
		c-0.1-10.5,0-20.9,0-31.4c0-5,0-5-5-5c-1.9,0-3.8,0-5.6,0c-2.8,0-4.5-1.3-4.5-4.2c-0.1-3,1.6-4.6,4.5-4.7c2.5-0.1,4.9,0,7.4,0
		c7.4,0,14.8,0,22.2,0c4.3,0,6.1,1.4,6.1,4.6c0,3.1-1.7,4.3-5.9,4.3C522.3-262.3,519.4-262.3,516.1-262.3z"/>
	<path class="st3" d="M574.2-245.9c0-6.6,0-13.2,0-19.8c0-3.9,1.5-5.6,4.7-5.7c3.2-0.1,4.8,1.6,4.8,5.6c0.1,10.8,0,21.6,0,32.5
		c0,4.5,0,4.5,4.7,4.5c3.3,0,6.6-0.1,9.9,0c3.3,0.1,5.3,1.9,5.2,4.5c0,2.6-2.1,4.3-5.4,4.3c-6.1,0.1-12.2,0.1-18.4,0
		c-4.1,0-5.6-1.6-5.7-5.9C574.2-232.5,574.2-239.2,574.2-245.9z"/>
	<path class="st2" d="M547.4-262c2.5,7.6,5,15.3,7.7,23.4c-5.6,0-10.7,0-16.4,0c2.6-8,5.2-15.6,7.7-23.3
		C546.8-262,547.1-262,547.4-262z"/>
</g>
<g>
	<polygon class="st4" points="91.9,-331.9 15,-255 91.9,-255 	"/>
	<g>
		<path class="st5" d="M15-255c0,0.1,0,0.2,0,0.3v122.6h44.8v-122.6c0-0.1,0-0.2,0-0.3H15z"/>
		<path class="st5" d="M92.8-332.5c-0.3,0-0.6,0-0.9,0v44.9c0.3,0,0.6,0,0.9,0c18.2,0,33,14.8,33,33v122.6h44.8v-122.6
			C170.6-297.6,135.7-332.5,92.8-332.5z"/>
	</g>
</g>
</svg>
