<?xml version="1.0" encoding="utf-8"?>
<!-- Generator: Adobe Illustrator 25.2.3, SVG Export Plug-In . SVG Version: 6.00 Build 0)  -->
<svg version="1.1" id="레이어_1" xmlns="http://www.w3.org/2000/svg" xmlns:xlink="http://www.w3.org/1999/xlink" x="0px"
	 y="0px" viewBox="0 0 240 516" style="enable-background:new 0 0 240 516;" xml:space="preserve">
<style type="text/css">
	.st0{fill:none;stroke:#000000;}
	.st1{fill-rule:evenodd;clip-rule:evenodd;fill:#888888;}
	.st2{fill-rule:evenodd;clip-rule:evenodd;}
	.st3{fill:none;stroke:#888888;}
	.st4{fill:#888888;}
	.st5{fill:none;stroke:#888888;stroke-linecap:round;}
	.st6{fill:none;stroke:#000000;stroke-linecap:round;}
	.st7{fill-opacity:0.7;}
	.st8{fill:none;stroke:#000000;stroke-opacity:0.7;}
	.st9{stroke:#040000;stroke-miterlimit:10;}
	.st10{stroke:#000000;}
	.st11{stroke:#000000;stroke-width:0.5;}
	.st12{fill:none;stroke:#000000;stroke-width:2;stroke-linecap:round;stroke-linejoin:round;}
	.st13{fill:none;stroke:#000000;stroke-width:1.5;stroke-linecap:round;stroke-linejoin:round;}
	.st14{fill:none;stroke:#000000;stroke-width:2;}
	.st15{fill:none;stroke:#000000;stroke-width:1.5;stroke-miterlimit:10;}
	.st16{fill:none;stroke:#FFFFFF;stroke-width:0.5;stroke-linecap:round;stroke-miterlimit:10;}
	.st17{fill:none;stroke:#000000;stroke-width:1.3;stroke-miterlimit:10;}
	.st18{fill:none;stroke:#020202;stroke-width:1.5;stroke-linejoin:round;stroke-miterlimit:10;}
	.st19{fill:#020202;}
	.st20{stroke:#060001;stroke-miterlimit:10;}
	.st21{fill:none;}
	.st22{display:none;}
	.st23{display:inline;fill:none;stroke:#000000;}
	.st24{display:inline;}
	.st25{clip-path:url(#SVGID_2_);}
	.st26{display:inline;fill-rule:evenodd;clip-rule:evenodd;fill:#888888;}
	.st27{display:inline;fill-rule:evenodd;clip-rule:evenodd;}
	.st28{display:inline;fill:none;stroke:#888888;}
	.st29{display:inline;fill:#888888;}
	.st30{display:inline;fill:none;stroke:#888888;stroke-linecap:round;}
	.st31{display:inline;fill:none;stroke:#000000;stroke-linecap:round;}
	.st32{display:inline;fill:none;stroke:#000000;stroke-width:2;stroke-linecap:round;stroke-linejoin:round;}
	.st33{display:inline;stroke:#000000;}
	.st34{display:inline;stroke:#000000;stroke-width:0.5;}
	.st35{fill:none;stroke:#000000;stroke-width:2;stroke-linecap:round;}
	.st36{fill:none;stroke:#000000;stroke-width:1.5;stroke-linecap:round;stroke-miterlimit:10;}
	.st37{fill:#FFFFFF;}
	.st38{opacity:0.3;}
	.st39{fill:none;stroke:#FF0000;stroke-width:1.3;stroke-miterlimit:10;}
	.st40{fill:#FFFFFF;fill-opacity:0;}
	.st41{fill:#03D0FF;stroke:#03D0FF;stroke-width:0.5;}
	.st42{opacity:0;}
	.st43{fill:#FF3333;}
	.st44{fill:#3E66FB;}
	.st45{fill:#FF9C39;}
	.st46{fill:none;stroke:#FF9C39;stroke-miterlimit:10;}
	.st47{fill:#FAFAFC;}
	.st48{fill:#2B47B0;}
	.st49{fill:#CFCFCF;}
	.st50{fill:none;stroke:#CFCFCF;stroke-miterlimit:10;}
	.st51{fill:none;stroke:#FFFFFF;stroke-miterlimit:10;}
	.st52{stroke:#000000;stroke-miterlimit:10;}
</style>
<path class="st0" d="M28.2,20.9c1.2,0,2.3,0.3,3.4,1c1,0.7,1.7,1.6,2.2,2.5c0.5,1.2,0.7,2.2,0.5,3.4c-0.1,1.2-0.7,2.2-1.5,3.1
	l5.4,5.4L37.5,37L32,31.7c-0.7,0.7-1.6,1.2-2.5,1.3c-1,0.2-2.1,0.2-2.9,0c-1-0.2-1.7-0.7-2.5-1.3c-0.7-0.7-1.3-1.5-1.6-2.4
	c-0.3-0.9-0.5-1.9-0.3-2.9c0.1-1,0.5-1.9,1-2.7c0.6-0.7,1.3-1.5,2.2-1.9C26.2,21.3,27.2,20.9,28.2,20.9z M28.2,22
	c-1.3,0-2.7,0.6-3.7,1.6s-1.6,2.2-1.6,3.7c0,1.3,0.6,2.7,1.6,3.7c1,1,2.2,1.6,3.7,1.6s2.7-0.6,3.7-1.6c1-1,1.6-2.2,1.6-3.7
	c0-1.3-0.6-2.7-1.6-3.7C30.8,22.5,29.5,22,28.2,22z"/>
<path class="st1" d="M22.6,103.6c-0.1,0-0.4,0.1-0.4,0.2c-0.1,0.1-0.2,0.2-0.2,0.4c0,0.1,0.1,0.4,0.2,0.4c0.1,0.1,0.2,0.2,0.4,0.2
	h14.9c0.1,0,0.4-0.1,0.4-0.2c0.1-0.1,0.2-0.2,0.2-0.4c0-0.1-0.1-0.4-0.2-0.4c-0.1-0.1-0.2-0.2-0.4-0.2H22.6z M21.9,109.2
	c0-0.1,0.1-0.4,0.2-0.4c0.1-0.1,0.2-0.2,0.5-0.2h14.9c0.1,0,0.4,0.1,0.5,0.2s0.2,0.2,0.2,0.4c0,0.1-0.1,0.4-0.2,0.5
	s-0.2,0.2-0.5,0.2h-15c-0.1,0-0.4-0.1-0.5-0.2C22,109.6,21.9,109.4,21.9,109.2z M21.9,114.2c0-0.1,0.1-0.4,0.2-0.4
	c0.1-0.1,0.2-0.2,0.5-0.2h14.9c0.1,0,0.4,0.1,0.5,0.2s0.2,0.2,0.2,0.4c0,0.1-0.1,0.4-0.2,0.4c-0.1,0.1-0.2,0.2-0.5,0.2h-15
	c-0.1,0-0.4-0.1-0.5-0.2C22.1,114.4,21.9,114.3,21.9,114.2z"/>
<path class="st2" d="M22.6,103.6c-0.1,0-0.4,0.1-0.4,0.2c-0.1,0.1-0.2,0.2-0.2,0.4c0,0.1,0.1,0.4,0.2,0.4c0.1,0.1,0.2,0.2,0.4,0.2
	h14.9c0.1,0,0.4-0.1,0.4-0.2c0.1-0.1,0.2-0.2,0.2-0.4c0-0.1-0.1-0.4-0.2-0.4c-0.1-0.1-0.2-0.2-0.4-0.2H22.6z M21.9,109.2
	c0-0.1,0.1-0.4,0.2-0.4c0.1-0.1,0.2-0.2,0.5-0.2h14.9c0.1,0,0.4,0.1,0.5,0.2s0.2,0.2,0.2,0.4c0,0.1-0.1,0.4-0.2,0.5
	s-0.2,0.2-0.5,0.2h-15c-0.1,0-0.4-0.1-0.5-0.2C22,109.6,21.9,109.4,21.9,109.2z M21.9,114.2c0-0.1,0.1-0.4,0.2-0.4
	c0.1-0.1,0.2-0.2,0.5-0.2h14.9c0.1,0,0.4,0.1,0.5,0.2s0.2,0.2,0.2,0.4c0,0.1-0.1,0.4-0.2,0.4c-0.1,0.1-0.2,0.2-0.5,0.2h-15
	c-0.1,0-0.4-0.1-0.5-0.2C22.1,114.4,21.9,114.3,21.9,114.2z"/>
<path class="st3" d="M22.6,103.6c-0.1,0-0.4,0.1-0.4,0.2c-0.1,0.1-0.2,0.2-0.2,0.4c0,0.1,0.1,0.4,0.2,0.4c0.1,0.1,0.2,0.2,0.4,0.2
	h14.9c0.1,0,0.4-0.1,0.4-0.2c0.1-0.1,0.2-0.2,0.2-0.4c0-0.1-0.1-0.4-0.2-0.4c-0.1-0.1-0.2-0.2-0.4-0.2H22.6z M21.9,109.2
	c0-0.1,0.1-0.4,0.2-0.4c0.1-0.1,0.2-0.2,0.5-0.2h14.9c0.1,0,0.4,0.1,0.5,0.2s0.2,0.2,0.2,0.4c0,0.1-0.1,0.4-0.2,0.5
	s-0.2,0.2-0.5,0.2h-15c-0.1,0-0.4-0.1-0.5-0.2C22,109.6,21.9,109.4,21.9,109.2z M21.9,114.2c0-0.1,0.1-0.4,0.2-0.4
	c0.1-0.1,0.2-0.2,0.5-0.2h14.9c0.1,0,0.4,0.1,0.5,0.2s0.2,0.2,0.2,0.4c0,0.1-0.1,0.4-0.2,0.4c-0.1,0.1-0.2,0.2-0.5,0.2h-15
	c-0.1,0-0.4-0.1-0.5-0.2C22.1,114.4,21.9,114.3,21.9,114.2z"/>
<path class="st0" d="M22.6,103.6c-0.1,0-0.4,0.1-0.4,0.2c-0.1,0.1-0.2,0.2-0.2,0.4c0,0.1,0.1,0.4,0.2,0.4c0.1,0.1,0.2,0.2,0.4,0.2
	h14.9c0.1,0,0.4-0.1,0.4-0.2c0.1-0.1,0.2-0.2,0.2-0.4c0-0.1-0.1-0.4-0.2-0.4c-0.1-0.1-0.2-0.2-0.4-0.2H22.6z M21.9,109.2
	c0-0.1,0.1-0.4,0.2-0.4c0.1-0.1,0.2-0.2,0.5-0.2h14.9c0.1,0,0.4,0.1,0.5,0.2s0.2,0.2,0.2,0.4c0,0.1-0.1,0.4-0.2,0.5
	s-0.2,0.2-0.5,0.2h-15c-0.1,0-0.4-0.1-0.5-0.2C22,109.6,21.9,109.4,21.9,109.2z M21.9,114.2c0-0.1,0.1-0.4,0.2-0.4
	c0.1-0.1,0.2-0.2,0.5-0.2h14.9c0.1,0,0.4,0.1,0.5,0.2s0.2,0.2,0.2,0.4c0,0.1-0.1,0.4-0.2,0.4c-0.1,0.1-0.2,0.2-0.5,0.2h-15
	c-0.1,0-0.4-0.1-0.5-0.2C22.1,114.4,21.9,114.3,21.9,114.2z"/>
<path class="st2" d="M36.5,148.9c0-1,0.6-1.9,1.6-2c-0.3-0.7-0.5-1.6-0.9-2.1c-0.4,0.4-0.7,0.5-1.2,0.5c-1.2,0-2.1-1-2.1-2.1
	c0-0.5,0.3-0.8,0.5-1.2c-0.6-0.5-1.5-0.7-2.1-0.9c-0.2,0.9-1,1.6-2,1.6s-1.9-0.6-2-1.7c-0.8,0.3-1.7,0.5-2.4,0.9
	c0.4,0.4,0.5,0.7,0.5,1.2c0,1.2-1,2.1-2.1,2.1c-0.5,0-0.8-0.3-1.2-0.5c-0.5,0.6-0.7,1.4-0.9,2c1.1,0,1.9,0.9,1.9,2
	c0,1.2-0.9,2.1-2,2.1c0.3,0.8,0.5,1.7,0.9,2.4c0.5-0.5,0.9-0.6,1.6-0.6c1.2,0,2.1,1,2.1,2.1c0,0.6-0.2,1.1-0.6,1.6
	c0.7,0.5,1.6,0.7,2.4,0.9c0.1-1,1-1.7,2-1.7s1.9,0.6,2,1.6c0.7-0.3,1.6-0.5,2.1-0.9c-0.4-0.4-0.5-0.7-0.5-1.2c0-1.2,1-2.1,2.1-2.1
	c0.5,0,0.8,0.3,1.2,0.5c0.5-0.7,0.7-1.6,0.9-2.4C37.2,150.9,36.5,149.9,36.5,148.9z M30,151.8c-1.6,0-2.7-1.2-2.7-2.7
	c0-1.6,1.2-2.7,2.7-2.7s2.7,1.2,2.7,2.7C32.8,150.6,31.6,151.8,30,151.8z"/>
<path d="M33.9,193h-7.3v-5.2c0-2.1,1.6-3.5,3.5-3.5c1.9,0,3.5,1.6,3.5,3.5v5.2H33.9z M35.4,192.2v-4.5c0-2.4-1.7-4.6-4-5.1v-0.5
	c0-0.4-0.1-0.6-0.4-0.9c-0.2-0.2-0.5-0.4-0.9-0.4s-0.6,0.1-0.9,0.4c-0.2,0.2-0.4,0.5-0.4,0.9v0.5c-2.3,0.5-4,2.6-4,5.1v4.5l-1.6,1.6
	v0.7h13.6v-0.7L35.4,192.2z M30.2,197c0.4,0,0.7-0.2,1.1-0.5c0.4-0.4,0.5-0.6,0.5-1.1h-3.2c0,0.4,0.2,0.7,0.5,1.1
	C29.5,196.8,29.8,197,30.2,197z"/>
<path d="M75.9,195.9l-15-15l-1,1l3.5,3.5c-0.5,0.7-0.6,1.6-0.6,2.4v4.6l-1.6,1.6v0.7h11.3l2.1,2.1L75.9,195.9z M64.6,193.3v-5.2
	c0-0.4,0.1-0.9,0.2-1.3l6.6,6.6L64.6,193.3L64.6,193.3L64.6,193.3z M66.8,195.5h3c0,0.5-0.1,0.7-0.5,1.1c-0.4,0.4-0.6,0.4-1.1,0.4
	c-0.4,0-0.7-0.1-1.1-0.4C66.9,196.3,66.8,195.9,66.8,195.5z M65.5,183.5c0.4-0.2,0.9-0.4,1.3-0.5v-0.2c0-0.4,0.1-0.7,0.5-1.1
	c0.4-0.4,0.6-0.4,1.1-0.4s0.7,0.1,1.1,0.4c0.4,0.4,0.4,0.6,0.4,1.1v0.2c2.2,0.6,3.8,2.7,3.8,5v3.5l-1.6-1.6v-2.2
	c0-1-0.5-2.1-1.1-2.7c-0.6-0.6-1.7-1.1-2.7-1.1c-0.5,0-1.1,0.1-1.7,0.5L65.5,183.5z"/>
<path d="M67.9,270.8c0.4,0,0.7-0.1,1-0.5c0.4-0.2,0.4-0.6,0.4-1c0-0.5-0.1-0.7-0.4-1c-0.2-0.2-0.6-0.4-1-0.4s-0.7,0.1-1,0.4
	c-0.4,0.4-0.4,0.6-0.4,1s0.1,0.7,0.4,1C67.2,270.8,67.5,270.8,67.9,270.8z M72.3,264.2c0.4,0,0.7,0.1,1,0.5c0.4,0.2,0.4,0.6,0.4,1
	v7.4c0,0.5-0.1,0.7-0.4,1c-0.2,0.4-0.6,0.4-1,0.4h-8.8c-0.5,0-0.7-0.1-1-0.4c-0.4-0.2-0.4-0.6-0.4-1v-7.4c0-0.4,0.1-0.7,0.4-1
	c0.4-0.4,0.6-0.5,1-0.5h0.7v-1.4c0-1,0.5-1.8,1.1-2.7c0.6-0.6,1.6-1.1,2.7-1.1c0.5,0,1,0.1,1.4,0.4c0.4,0.2,0.9,0.4,1.2,0.7
	c0.4,0.4,0.6,0.7,0.7,1.2c0.2,0.4,0.4,0.9,0.4,1.4v1.4L72.3,264.2L72.3,264.2z M67.9,260.5c-0.5,0-1.1,0.2-1.5,0.6
	c-0.4,0.5-0.6,1-0.6,1.5v1.4h4.4v-1.4c0-0.5-0.2-1.1-0.6-1.5C69,260.8,68.4,260.5,67.9,260.5z"/>
<path d="M28,262.4l-1.3-1.3c0.2-0.6,0.7-1.4,1.3-1.7c0.6-0.4,1.4-0.6,2.2-0.6c2.1,0,3.8,1.7,3.8,3.8v1.5h0.7c0.5,0,0.7,0.1,1,0.5
	c0.4,0.2,0.5,0.6,0.5,1v5l-1.5-1.5v-3.6h-3.6l-1.5-1.5h2.8v-1.5c0-1.3-1-2.2-2.2-2.2C29.1,260.2,28.2,261.2,28,262.4z M37.9,274.1
	L37,275l-1-1c-0.2,0.4-0.6,0.5-1.1,0.5h-9c-0.4,0-0.7-0.1-1-0.5c-0.4-0.2-0.4-0.6-0.4-1v-7.5c0-0.7,0.6-1.5,1.5-1.5l0,0l-3.8-3.8
	l1-0.9L37.9,274.1z M34.8,272.9l-3.1-3.1c-0.2,0.5-0.7,0.9-1.4,0.9c-0.4,0-0.7-0.1-1-0.4c-0.4-0.2-0.5-0.6-0.5-1
	c0-0.6,0.4-1.1,0.9-1.3l-2.3-2.3h-1.6v7.5L34.8,272.9L34.8,272.9z"/>
<path class="st1" d="M22.9,298.4c0.2-0.4,0.5-0.5,0.8-0.5h12.5c0.4,0,0.5,0.2,0.8,0.5s0.1,0.6-0.1,0.9l-4.8,6.8v4.4
	c0,0.4-0.2,0.6-0.5,0.9l-2.6,0.9c-0.4,0.1-0.5,0.1-0.8-0.1s-0.4-0.5-0.4-0.6v-4.9l-4.8-7.1C22.8,299,22.8,298.6,22.9,298.4z
	 M25.4,299.6l4,6c0.1,0.1,0.1,0.4,0.1,0.5v3.9l0.9-0.4v-3.9c0-0.2,0.1-0.4,0.2-0.5l3.9-5.6H25.4C25.4,299.7,25.4,299.6,25.4,299.6z"
	/>
<path class="st2" d="M22.9,298.4c0.2-0.4,0.5-0.5,0.8-0.5h12.5c0.4,0,0.5,0.2,0.8,0.5s0.1,0.6-0.1,0.9l-4.8,6.8v4.4
	c0,0.4-0.2,0.6-0.5,0.9l-2.6,0.9c-0.4,0.1-0.5,0.1-0.8-0.1s-0.4-0.5-0.4-0.6v-4.9l-4.8-7.1C22.8,299,22.8,298.6,22.9,298.4z
	 M25.4,299.6l4,6c0.1,0.1,0.1,0.4,0.1,0.5v3.9l0.9-0.4v-3.9c0-0.2,0.1-0.4,0.2-0.5l3.9-5.6H25.4C25.4,299.7,25.4,299.6,25.4,299.6z"
	/>
<path class="st4" d="M60.8,305l7.1-7.1L75,305h-1.8v7.1h-3v-4.4h-2.3h-2.4v4.4h-3V305H60.8z"/>
<path d="M60.8,305l7.1-7.1L75,305h-1.8v7.1h-3v-4.4h-2.3h-2.4v4.4h-3V305H60.8z"/>
<path class="st5" d="M60.8,305l7.1-7.1L75,305h-1.8v7.1h-3v-4.4h-2.3h-2.4v4.4h-3V305H60.8z"/>
<path class="st6" d="M60.8,305l7.1-7.1L75,305h-1.8v7.1h-3v-4.4h-2.3h-2.4v4.4h-3V305H60.8z"/>
<g>
	<path class="st2" d="M36.8,336.2H23.2v13.5h13.5L36.8,336.2L36.8,336.2z M21.9,334.9v16.2h16.2v-16.2H21.9z"/>
	<ellipse class="st4" cx="25.8" cy="340.3" rx="1" ry="1"/>
	<ellipse class="st7" cx="25.8" cy="340.3" rx="1" ry="1"/>
	<path class="st4" d="M26.4,343.7l-1.4,2h10l-3.2-5.2l-2.1,3l-1.1-1l-1.4,2L26.4,343.7z"/>
	<path class="st7" d="M26.4,343.7l-1.4,2h10l-3.2-5.2l-2.1,3l-1.1-1l-1.4,2L26.4,343.7z"/>
	<path class="st3" d="M26.4,343.7l-1.4,2h10l-3.2-5.2l-2.1,3l-1.1-1l-1.4,2L26.4,343.7z"/>
	<path class="st8" d="M26.4,343.7l-1.4,2h10l-3.2-5.2l-2.1,3l-1.1-1l-1.4,2L26.4,343.7z"/>
</g>
<g>
	<path d="M61.3,351.1h9.4c0.4,0,0.7-0.2,1.1-0.5c0.4-0.4,0.4-0.6,0.4-1.1v-9.4c0-0.4-0.2-0.7-0.4-1.1c-0.4-0.4-0.6-0.4-1.1-0.4h-9.4
		c-0.5,0-0.7,0.2-1.1,0.4c-0.4,0.4-0.4,0.6-0.4,1.1v9.4c0,0.5,0.2,0.7,0.4,1.1C60.5,350.9,61,351.1,61.3,351.1z M62.9,344h2.4v-2.3
		h1.5v2.3h2.3v1.5h-2.3v2.3h-1.5v-2.3H63C62.9,345.5,62.9,344,62.9,344z"/>
	<path d="M74.5,334.9h-9.4v1.5h9.4v9.4H76v-9.4C76,335.5,75.4,334.9,74.5,334.9z"/>
</g>
<g>
	<path d="M104.8,26.7c0.1,0,0.3,0.1,0.4,0.1c0.1,0.1,0.1,0.3,0.1,0.4v3c0,0.1-0.1,0.3-0.1,0.4c-0.1,0.1-0.3,0.1-0.4,0.1
		s-0.3-0.1-0.4-0.1c-0.1-0.1-0.1-0.3-0.1-0.4v-2.9c0-0.1,0.1-0.3,0.1-0.4C104.4,26.7,104.6,26.7,104.8,26.7z"/>
	<path d="M104.8,25.8c0.1,0,0.4-0.1,0.6-0.3c0.1-0.1,0.3-0.4,0.3-0.6s-0.1-0.4-0.3-0.6c-0.1-0.1-0.4-0.3-0.6-0.3
		c-0.1,0-0.4,0.1-0.6,0.3c-0.1,0.1-0.3,0.4-0.3,0.6s0.1,0.4,0.3,0.6C104.4,25.7,104.6,25.8,104.8,25.8z"/>
	<path d="M104.8,21.4c1.1,0,2.3,0.3,3.3,1c1,0.6,1.9,1.6,2.3,2.5s0.7,2.2,0.6,3.3c-0.1,1.1-0.6,2.3-1.3,3.2l4.2,4.2
		c0.1,0.1,0.1,0.3,0.1,0.4c0,0.1-0.1,0.3-0.1,0.4c-0.1,0.1-0.3,0.1-0.4,0.1s-0.3,0-0.4-0.1l-0.1-0.1l-4.2-4.2
		c-0.8,0.6-1.6,1-2.8,1.3c-1,0.1-2,0.1-2.9-0.1c-1-0.3-1.9-0.8-2.6-1.4c-0.8-0.7-1.3-1.6-1.6-2.4c-0.3-1-0.4-1.9-0.3-2.9
		s0.4-1.9,1-2.8c0.6-0.8,1.3-1.4,2.2-1.9C102.9,21.5,103.9,21.4,104.8,21.4z M104.8,22.6c-0.7,0-1.3,0.1-1.9,0.4s-1.1,0.6-1.6,1
		s-0.9,1-1,1.6c-0.3,0.6-0.4,1.3-0.4,1.9s0.1,1.3,0.4,1.9s0.6,1.1,1,1.6s1,0.9,1.6,1c0.6,0.3,1.3,0.4,1.9,0.4c1.3,0,2.6-0.4,3.4-1.4
		c1-1,1.4-2.2,1.4-3.4c0-1.3-0.4-2.5-1.4-3.4C107.3,23.1,106.1,22.6,104.8,22.6z"/>
</g>
<path class="st9" d="M65.9,491c-0.3,0-0.5-0.1-0.7-0.3l-6-6c-0.4-0.4-0.4-1,0-1.4c0.4-0.4,1-0.4,1.4,0l5.3,5.3l9.3-11.1
	c0.4-0.4,1-0.5,1.4-0.1c0.4,0.4,0.5,1,0.1,1.4l-10,11.9C66.5,490.9,66.2,491,65.9,491L65.9,491z"/>
<path class="st10" d="M67.9,386.5c-0.1,0-0.2,0-0.4-0.1c-2.8-2.2-4.7-4-6.1-5.8c-1.7-2.3-2.2-4.5-1.1-6.4c0.6-1.4,2.6-2.4,4.9-1.8
	c1.1,0.4,2.1,1,2.7,1.9c0.6-0.9,1.6-1.6,2.7-1.9c2.2-0.6,4.1,0.5,4.9,1.8c0.9,1.9,0.5,4-1.1,6.4c-1.3,1.8-3.2,3.8-6.1,5.8
	C68.1,386.4,68,386.5,67.9,386.5z M64,373c-0.5,0-1,0.1-1.6,0.4c-0.5,0.2-0.9,0.6-1.1,1.1c-0.7,1.6-0.4,3.3,1.1,5.4s3.4,3.9,5.5,5.4
	c2.1-1.6,4-3.3,5.5-5.4s1.8-3.9,1.1-5.4c-0.4-1-2.1-1.8-3.8-1.3c-0.5,0.1-1,0.4-1.5,0.7c-0.5,0.4-0.7,0.7-1,1.4
	c0,0.1-0.1,0.2-0.2,0.2s-0.2,0.1-0.2,0.1c-0.1,0-0.2,0-0.2-0.1c-0.1,0-0.1-0.1-0.2-0.2c-0.2-0.5-0.5-0.9-1-1.4
	c-0.4-0.4-0.9-0.6-1.5-0.7C64.7,373.1,64.4,373,64,373z"/>
<path d="M33.9,384.8c-0.2,0-0.5-0.1-0.5-0.2l-3.3-2.2c0,0,0,0-0.1,0c0,0,0,0-0.1,0l-3.3,2.2c-0.2,0.1-0.4,0.2-0.5,0.2
	c-0.2,0-0.5-0.1-0.5-0.2c-0.2-0.1-0.4-0.4-0.5-0.5s-0.1-0.5,0-0.5l1.1-3.8c0,0,0,0,0-0.1l0,0l-3.1-2.5c-0.2-0.1-0.4-0.4-0.5-0.5
	c-0.1-0.2-0.1-0.4,0-0.5c0.1-0.2,0.2-0.5,0.5-0.5c0.2-0.1,0.4-0.2,0.5-0.2l4-0.2c0,0,0,0,0.1,0l0,0l1.4-3.6c0.1-0.2,0.2-0.5,0.4-0.5
	c0.2-0.1,0.5-0.2,0.5-0.2c0.2,0,0.5,0.1,0.5,0.2c0.2,0.1,0.4,0.4,0.4,0.5l1.4,3.6l0,0c0,0,0,0,0.1,0l4,0.2c0.2,0,0.5,0.1,0.5,0.2
	c0.2,0.1,0.4,0.4,0.4,0.5c0.1,0.2,0.1,0.4,0,0.5s-0.2,0.5-0.4,0.5l-3.1,2.5l0,0c0,0,0,0,0,0.1l1.1,3.8c0,0.1,0,0.4,0,0.5
	s-0.1,0.4-0.2,0.5c-0.1,0.1-0.2,0.2-0.5,0.4C34.1,384.8,34,384.8,33.9,384.8z M30,381.6c0.2,0,0.5,0.1,0.5,0.2l3.3,2.2
	c0,0,0,0,0.1,0c0,0,0,0,0.1,0c0,0,0,0,0-0.1c0,0,0,0,0-0.1l-1-3.8c-0.1-0.2,0-0.4,0-0.5c0.1-0.2,0.2-0.4,0.4-0.5l3.1-2.5l0,0
	c0,0,0,0,0-0.1l0,0c0,0,0,0-0.1,0l-4-0.2c-0.2,0-0.5-0.1-0.5-0.2c-0.2-0.1-0.4-0.4-0.4-0.5l-1.4-3.6l0,0c0,0,0,0-0.1,0
	c0,0,0,0-0.1,0l0,0l-1.4,3.6c-0.1,0.2-0.2,0.4-0.4,0.5c-0.2,0.1-0.4,0.2-0.5,0.2l-4,0.2c0,0,0,0-0.1,0l0,0c0,0,0,0,0,0.1l0,0
	l3.1,2.5c0.2,0.1,0.4,0.4,0.4,0.5c0.1,0.2,0.1,0.5,0,0.5l-1.1,3.8c0,0,0,0,0,0.1l0,0c0,0,0,0,0.1,0s0,0,0.1,0l3.3-2.2
	C29.5,381.7,29.8,381.6,30,381.6L30,381.6z"/>
<path d="M34.2,385.4c-0.2,0-0.5-0.1-0.6-0.2l-3.6-2.3c0,0,0,0-0.1,0c0,0,0,0-0.1,0l-3.6,2.3c-0.2,0.1-0.5,0.2-0.6,0.2
	s-0.5-0.1-0.6-0.2s-0.4-0.4-0.4-0.5c-0.1-0.2-0.1-0.5,0-0.6l1.2-4.1c0,0,0,0,0-0.1l0,0l-3.3-2.7c-0.2-0.1-0.4-0.4-0.5-0.5
	c-0.1-0.2-0.1-0.4,0-0.6s0.2-0.4,0.5-0.5c0.2-0.1,0.4-0.2,0.6-0.2l4.3-0.2c0,0,0,0,0.1,0l0,0l1.5-4c0.1-0.2,0.2-0.5,0.5-0.5
	c0.2-0.1,0.5-0.2,0.6-0.2s0.4,0.1,0.6,0.2s0.4,0.4,0.4,0.5l1.5,4l0,0c0,0,0,0,0.1,0l4.3,0.2c0.2,0,0.4,0.1,0.6,0.2
	c0.2,0.1,0.4,0.4,0.4,0.5c0.1,0.2,0.1,0.5,0,0.6c-0.1,0.2-0.2,0.5-0.4,0.5l-3.3,2.7l0,0c0,0,0,0,0,0.1l1.2,4.1c0,0.1,0,0.4,0,0.5
	s-0.1,0.4-0.2,0.4c-0.1,0.1-0.2,0.2-0.5,0.4C34.5,385.4,34.3,385.4,34.2,385.4z"/>
<path d="M30,381.9c0.2,0,0.4,0.1,0.5,0.2l3.6,2.3c0,0,0,0,0.1,0c0,0,0,0,0.1,0c0,0,0,0,0-0.1c0,0,0,0,0-0.1l-1.2-4.1
	c-0.1-0.2,0-0.5,0-0.6c0.1-0.2,0.2-0.4,0.4-0.5l3.3-2.7l0,0c0,0,0,0,0-0.1l0,0c0,0,0,0-0.1,0l-4.3-0.2c-0.2,0-0.5-0.1-0.5-0.2
	c-0.2-0.1-0.4-0.4-0.4-0.5l-1.5-4l0,0c0,0,0,0-0.1,0c0,0,0,0-0.1,0l0,0l-1.5,4c-0.1,0.2-0.2,0.4-0.4,0.5c-0.2,0.1-0.4,0.2-0.5,0.2
	l-4.3,0.2c0,0,0,0-0.1,0l0,0c0,0,0,0,0,0.1l0,0l3.3,2.7c0.2,0.1,0.4,0.4,0.4,0.5c0.1,0.2,0.1,0.4,0,0.6l-1.2,4.1c0,0,0,0,0,0.1l0,0
	c0,0,0,0,0.1,0s0,0,0.1,0l3.6-2.3C29.5,382,29.8,381.9,30,381.9L30,381.9z"/>
<path class="st11" d="M62.2,420.8h11.3c0.1,0,0.4,0.1,0.4,0.1c0.1,0.1,0.2,0.2,0.2,0.4c0,0.1,0,0.4-0.1,0.5s-0.2,0.2-0.4,0.2h-0.1
	H62.3c-0.1,0-0.4-0.1-0.5-0.1c-0.1-0.1-0.2-0.2-0.2-0.4c0-0.1,0-0.4,0.1-0.5S62.1,420.8,62.2,420.8L62.2,420.8z M62.2,420.8h11.3
	H62.2z M67.7,405.9L67.7,405.9c0.2,0,0.4,0,0.5,0.1s0.2,0.2,0.2,0.4v0.1v10.9l3.4-3.4c0.1-0.1,0.2-0.1,0.4-0.2c0.1,0,0.4,0,0.4,0.1
	l0.1,0.1c0.1,0.1,0.1,0.2,0.2,0.4c0,0.1,0,0.4-0.1,0.5l-0.1,0.1l-4.4,4.4c-0.1,0.1-0.2,0.1-0.4,0.2c-0.1,0-0.4,0-0.5-0.1l-0.1-0.1
	l-4.4-4.4c-0.1-0.1-0.2-0.2-0.2-0.5c0-0.1,0-0.4,0.1-0.4c0.1-0.1,0.2-0.2,0.5-0.2c0.1,0,0.4,0,0.5,0.1l0.1,0.1l3.4,3.4v-10.9
	c0-0.1,0-0.4,0.1-0.4C67.5,406,67.5,405.9,67.7,405.9z M67.7,405.9L67.7,405.9L67.7,405.9z"/>
<path class="st12" d="M30,412.2v5.5V412.2z M30,417.6l-2.7-2.7L30,417.6z M30,417.6l2.7-2.7L30,417.6z M34.5,422.1h-9
	c-0.5,0-0.9-0.2-1.3-0.5c-0.4-0.4-0.5-0.7-0.5-1.3v-12.6c0-0.5,0.2-0.9,0.5-1.3c0.4-0.4,0.7-0.5,1.3-0.5h5.1c0.2,0,0.5,0.1,0.6,0.2
	l4.9,4.9c0.2,0.1,0.2,0.5,0.2,0.6v8.6c0,0.5-0.2,0.9-0.5,1.3C35.4,421.8,35,422.1,34.5,422.1z"/>
<g>
	<path class="st13" d="M105.4,143.7h-4.9c-0.4,0-0.7,0.1-1,0.4c-0.2,0.2-0.4,0.6-0.4,1v9.6c0,0.4,0.1,0.7,0.4,1
		c0.2,0.2,0.6,0.4,1,0.4h9.6c0.4,0,0.7-0.1,1-0.4c0.2-0.2,0.5-0.6,0.5-1v-4.9"/>
	<path class="st13" d="M110.9,142.3c0.4-0.4,0.6-0.4,1.1-0.4c0.4,0,0.7,0.1,1.1,0.4c0.4,0.4,0.4,0.6,0.4,1.1s-0.1,0.7-0.4,1.1
		l-6.5,6.5l-2.7,0.6l0.6-2.7L110.9,142.3z"/>
</g>
<path class="st11" d="M26.1,446.5h2.3c0.2,0,0.4,0.1,0.5,0.2s0.2,0.4,0.2,0.5c0,0.2-0.1,0.4-0.2,0.5s-0.4,0.2-0.5,0.2h-4.3
	c-0.5,0-0.7-0.4-0.7-0.7v-4.3c0-0.2,0.1-0.4,0.2-0.5s0.4-0.2,0.5-0.2c0.2,0,0.4,0.1,0.5,0.2s0.2,0.4,0.2,0.5v2.9l3.1-2.6
	c0.5-0.5,1.2-0.7,1.8-1.1c0.6-0.2,1.4-0.4,2.1-0.2c0.6,0,1.3,0.2,1.9,0.5c0.5,0.4,1.2,0.6,1.6,1.3c0.9,1.1,1.3,2.3,1.3,3.8
	c-0.1,1.4-0.6,2.6-1.8,3.5l-8,7c-0.1,0.1-0.1,0.1-0.2,0.1s-0.2,0-0.4,0c-0.1,0-0.2,0-0.2-0.1c-0.1,0-0.1-0.1-0.2-0.2
	s-0.1-0.1-0.1-0.2s0-0.2,0-0.4c0-0.1,0-0.2,0.1-0.2c0-0.1,0.1-0.1,0.2-0.2l8-7c0.4-0.4,0.6-0.6,0.9-1.2c0.2-0.5,0.4-0.9,0.4-1.4
	s0-1.1-0.2-1.5c-0.1-0.5-0.5-0.9-0.6-1.3c-0.4-0.4-0.6-0.6-1.2-0.9c-0.4-0.2-0.9-0.4-1.3-0.4s-1.1,0-1.5,0.2
	c-0.5,0.1-0.9,0.5-1.3,0.7L26.1,446.5z"/>
<path class="st11" d="M67.9,441.9c-4.5,0-8.1,3.6-8.1,8.1s3.6,8.1,8.1,8.1s8.1-3.6,8.1-8.1h-1.3c0,3.9-3,6.8-6.8,6.8s-6.8-3-6.8-6.8
	s3-6.8,6.8-6.8c2.3,0,4.5,1.3,5.8,3.2h-3.3v1.3h5v-5H74v2.3C72.6,443.1,70.3,441.9,67.9,441.9z"/>
<path d="M114,410.5l-3.3-3.3c-0.1-0.1-0.1-0.1-0.2-0.1s-0.2,0-0.2,0H99.5c-0.4,0-0.6,0.1-0.9,0.5c-0.2,0.2-0.5,0.5-0.5,0.9v13.4
	c0,0.4,0.1,0.6,0.5,0.9c0.2,0.2,0.5,0.5,0.9,0.5H113c0.4,0,0.6-0.1,0.9-0.5c0.2-0.2,0.5-0.5,0.5-0.9v-10.7c0-0.1,0-0.2,0-0.2
	C114.1,410.6,114.1,410.5,114,410.5z M103.5,408.3h5.4v2.7h-5.4V408.3z M108.9,421.7h-5.4v-5.4h5.4V421.7z M110.3,421.7v-5.4
	c0-0.4-0.1-0.6-0.4-0.9c-0.2-0.2-0.5-0.5-0.9-0.5h-5.4c-0.4,0-0.6,0.1-0.9,0.5c-0.2,0.2-0.4,0.5-0.4,0.9v5.4h-2.7v-13.4h2.7v2.7
	c0,0.4,0.1,0.6,0.4,0.9c0.2,0.2,0.5,0.5,0.9,0.5h5.4c0.4,0,0.6-0.1,0.9-0.5c0.2-0.2,0.4-0.5,0.4-0.9v-2.5l2.7,2.7v10.5L110.3,421.7
	L110.3,421.7z"/>
<g>
	<path class="st14" d="M105.5,102.4c0,0.4,0.4,0.8,0.8,0.8s0.8-0.4,0.8-0.8c0-0.3-0.4-0.8-0.8-0.8S105.5,101.9,105.5,102.4z"/>
	<path class="st14" d="M105.5,109.2c0,0.4,0.4,0.8,0.8,0.8s0.8-0.4,0.8-0.8c0-0.3-0.4-0.8-0.8-0.8S105.5,108.7,105.5,109.2z"/>
	<path class="st14" d="M105.5,116.1c0,0.4,0.4,0.8,0.8,0.8s0.8-0.4,0.8-0.8c0-0.3-0.4-0.8-0.8-0.8S105.5,115.6,105.5,116.1z"/>
</g>
<path d="M106.2,371.2c-4.5,0-8.1,3.6-8.1,8.1s3.6,8.1,8.1,8.1s8.1-3.6,8.1-8.1l0,0C114.3,374.9,110.7,371.2,106.2,371.2z
	 M105.1,381.1c0.3,0.4,0.7,0.5,1.3,0.5c0.3,0,0.5,0,0.8-0.1s0.5-0.1,0.8-0.2l0.5-0.2v1.7l-0.3,0.1c-0.3,0.1-0.6,0.2-0.9,0.3
	c-0.4,0.1-0.7,0.1-1.1,0.1c-0.7,0-1.4-0.2-2.1-0.5c-0.5-0.4-1-0.8-1.3-1.4s-0.4-1.3-0.4-2.1s0.2-1.4,0.5-2.1
	c0.3-0.6,0.7-1.1,1.3-1.4c0.8-0.5,2.1-0.6,3.2-0.4c0.4,0.1,0.7,0.2,1,0.4l0.4,0.2l-0.7,1.6l-0.4-0.2c-0.3-0.1-0.4-0.2-0.7-0.3
	s-0.4-0.1-0.7-0.1c-0.5,0-1,0.2-1.3,0.5s-0.5,1-0.5,1.7C104.7,380.1,104.8,380.6,105.1,381.1z"/>
<g>
	<path d="M64.8,230.7c0-0.7,0.4-1.6,1-2.2c0.5-0.5,1.3-1,2.2-1c0.7,0,1.6,0.4,2.2,1c0.5,0.5,1,1.4,1,2.2s-0.4,1.6-1,2.2
		c-0.5,0.5-1.4,1-2.2,1c-0.7,0-1.6-0.4-2.2-1C65,232.3,64.8,231.5,64.8,230.7z"/>
	<path d="M75.2,231.2c-0.4,0-0.6-0.2-0.7-0.5c-0.9-2.9-3.6-4.9-6.6-4.9c-3.1,0-5.7,2-6.6,4.9c-0.1,0.4-0.5,0.6-1,0.5s-0.6-0.5-0.5-1
		c1.1-3.5,4.3-5.9,8.1-5.9s6.9,2.3,8.1,5.9c0.1,0.4-0.1,0.8-0.5,1C75.4,231.1,75.3,231.2,75.2,231.2z"/>
</g>
<g>
	<path class="st15" d="M26.9,230.6c0-0.7,0.4-1.6,1-2.2c0.5-0.5,1.4-1,2.2-1c0.7,0,1.6,0.4,2.2,1c0.5,0.5,1,1.3,1,2.2
		s-0.4,1.6-1,2.2c-0.6,0.5-1.3,1-2.2,1c-0.7,0-1.6-0.4-2.2-1C27.1,232.2,26.9,231.4,26.9,230.6z"/>
	<path d="M37.3,231.1c-0.4,0-0.6-0.2-0.7-0.5c-0.9-2.9-3.6-4.9-6.6-4.9s-5.7,2-6.6,4.9c-0.1,0.5-0.5,0.6-1,0.5s-0.6-0.5-0.5-1
		c1.1-3.5,4.3-5.9,8.1-5.9s6.9,2.3,8.1,5.9c0.1,0.4-0.1,0.8-0.5,1C37.5,231,37.4,231.1,37.3,231.1z"/>
	<g>
		<line class="st16" x1="24.4" y1="223" x2="33.8" y2="232.3"/>
		<line class="st17" x1="22.4" y1="222.1" x2="36.4" y2="236.1"/>
	</g>
</g>
<g>
	<path class="st18" d="M67.9,141L67.9,141L67.9,141L67.9,141z"/>
	<path class="st19" d="M75.5,147h-4.6c-0.4,0-0.7-0.2-0.7-0.6c-0.5-2-1.5-3.8-2.8-4.9c-0.2-0.2-0.3-0.5-0.2-0.8s0.4-0.5,0.7-0.5
		c3.7,0,7.1,2.3,8.3,5.8c0.1,0.2,0,0.5-0.1,0.7C76,146.9,75.7,147,75.5,147z M71.5,145.5h2.9c-1-1.8-2.6-3-4.5-3.6
		C70.5,143,71.1,144.2,71.5,145.5z"/>
	<path class="st19" d="M67.9,157.8c-0.3,0-0.6-0.2-0.7-0.5s0-0.6,0.2-0.8c1.4-1.3,2.3-3,2.8-4.9c0.1-0.3,0.4-0.6,0.7-0.6h4.6
		c0.2,0,0.5,0.1,0.6,0.3s0.2,0.5,0.1,0.7C75,155.5,71.6,157.8,67.9,157.8z M71.5,152.5c-0.4,1.3-0.9,2.5-1.7,3.6
		c2-0.5,3.6-1.8,4.6-3.6H71.5z"/>
	<path class="st19" d="M64.9,147h-4.6c-0.2,0-0.5-0.1-0.6-0.3s-0.2-0.5-0.1-0.7c1.2-3.5,4.6-5.8,8.3-5.8c0.3,0,0.6,0.2,0.7,0.5
		s0,0.6-0.2,0.8c-1.4,1.3-2.3,3-2.8,4.9C65.6,146.8,65.2,147,64.9,147z M61.5,145.5h2.9c0.4-1.3,0.9-2.5,1.7-3.6
		C64.1,142.5,62.4,143.8,61.5,145.5z"/>
	<path class="st19" d="M67.9,157.8c-3.7,0-7.1-2.3-8.3-5.8c-0.1-0.2,0-0.5,0.1-0.7s0.4-0.3,0.6-0.3h4.6c0.4,0,0.7,0.3,0.7,0.6
		c0.4,2,1.4,3.7,2.7,4.8c0.2,0.2,0.3,0.5,0.2,0.8C68.5,157.6,68.2,157.8,67.9,157.8z M61.5,152.5c0.9,1.7,2.6,3,4.5,3.5
		c-0.7-1-1.3-2.2-1.6-3.5H61.5z"/>
	<path class="st19" d="M67.9,157.8c-0.2,0-0.3-0.1-0.5-0.2c-1.6-1.3-2.8-3.3-3.4-5.7c-0.1-0.2,0-0.5,0.1-0.6
		c0.1-0.2,0.4-0.3,0.6-0.3h6.1c0.2,0,0.4,0.1,0.6,0.3c0.1,0.2,0.2,0.4,0.2,0.6c-0.5,2.7-2,4.6-3.2,5.7
		C68.3,157.8,68.1,157.8,67.9,157.8z M65.8,152.5c0.5,1.4,1.2,2.6,2.1,3.5c0.8-0.8,1.6-2,2.1-3.5H65.8z"/>
	<path class="st19" d="M71,147h-6.1c-0.2,0-0.4-0.1-0.6-0.3c-0.1-0.2-0.2-0.4-0.2-0.6c0.5-2.7,2-4.6,3.2-5.7c0.3-0.3,0.7-0.3,1,0
		c1.5,1.3,2.7,3.3,3.3,5.7c0.1,0.2,0,0.5-0.1,0.7C71.5,146.9,71.2,147,71,147z M65.9,145.5H70c-0.5-1.4-1.2-2.6-2.1-3.5
		C67.1,142.9,66.3,144,65.9,145.5z"/>
	<path class="st19" d="M75.5,152.5h-4.6c-0.2,0-0.4-0.1-0.6-0.3c-0.1-0.2-0.2-0.4-0.1-0.6c0.2-0.9,0.3-1.7,0.3-2.6
		c0-0.9-0.1-1.6-0.3-2.7c0-0.2,0-0.4,0.2-0.6s0.4-0.3,0.6-0.3h4.6c0.3,0,0.6,0.2,0.7,0.5c0.4,1.1,0.5,2.1,0.5,3c0,1-0.2,1.9-0.5,3
		C76.1,152.3,75.8,152.5,75.5,152.5z M71.8,151h3.1c0.2-0.7,0.3-1.4,0.3-2s-0.1-1.3-0.3-2.1h-3.2c0.1,0.7,0.2,1.3,0.2,2.1
		C72,149.7,71.9,150.4,71.8,151z"/>
	<path class="st19" d="M64.9,152.7h-4.6c-0.3,0-0.6-0.2-0.7-0.5c-0.4-1.1-0.5-2.1-0.5-3c0-1,0.2-1.9,0.5-3c0.1-0.3,0.4-0.5,0.7-0.5
		h4.6c0.2,0,0.4,0.1,0.6,0.3c0.1,0.2,0.2,0.4,0.1,0.6c-0.2,0.9-0.3,1.7-0.3,2.6c0,0.9,0.1,1.8,0.3,2.6c0,0.2,0,0.5-0.1,0.6
		C65.3,152.5,65.1,152.7,64.9,152.7z M60.9,151.2H64c-0.1-0.7-0.1-1.3-0.1-2.1c0-0.7,0-1.4,0.1-2h-3.1c-0.2,0.7-0.3,1.4-0.3,2
		S60.6,150.4,60.9,151.2z"/>
	<path class="st19" d="M70.9,152.7h-6.1c-0.4,0-0.7-0.2-0.7-0.6c-0.2-1-0.3-1.9-0.3-3c0-1,0.1-2,0.3-3c0.1-0.3,0.4-0.6,0.7-0.6h6.1
		c0.4,0,0.7,0.2,0.7,0.6c0.2,1,0.3,1.9,0.3,3s-0.1,2-0.3,3C71.6,152.4,71.3,152.7,70.9,152.7z M65.4,151.2h4.9
		c0.1-0.7,0.2-1.3,0.2-2.1s-0.1-1.4-0.2-2h-4.9c-0.1,0.7-0.2,1.3-0.2,2S65.3,150.5,65.4,151.2z"/>
</g>
<g>
	<path d="M23.7,491.3c-0.3,0-0.5-0.1-0.7-0.3c-0.4-0.4-0.4-1,0-1.4L35.6,477c0.4-0.4,1-0.4,1.4,0s0.4,1,0,1.4L24.4,491
		C24.2,491.2,24,491.3,23.7,491.3z"/>
	<path d="M36.3,491.3c-0.3,0-0.5-0.1-0.7-0.3L23,478.4c-0.4-0.4-0.4-1,0-1.4s1-0.4,1.4,0L37,489.6c0.4,0.4,0.4,1,0,1.4
		C36.8,491.2,36.6,491.3,36.3,491.3z"/>
</g>
<g>
	<path class="st20" d="M114.2,485h-16c-0.6,0-1-0.4-1-1s0.4-1,1-1h16c0.6,0,1,0.4,1,1S114.8,485,114.2,485z"/>
	<path class="st20" d="M106.2,493c-0.6,0-1-0.4-1-1v-16c0-0.6,0.4-1,1-1s1,0.4,1,1v16C107.2,492.6,106.8,493,106.2,493z"/>
</g>
<path d="M114.3,451H98.1c-0.6,0-1-0.4-1-1s0.4-1,1-1h16.2c0.6,0,1,0.4,1,1S114.9,451,114.3,451z"/>
<path class="st9" d="M144.1,458.1v-16.2c0-0.6,0.4-1,1-1s1,0.4,1,1v16.2c0,0.6-0.4,1-1,1S144.1,458.7,144.1,458.1z"/>
<path class="st9" d="M151.8,458.1v-16.2c0-0.6,0.4-1,1-1s1,0.4,1,1v16.2c0,0.6-0.4,1-1,1S151.8,458.7,151.8,458.1z"/>
<g>
	<path class="st21" d="M57.1,58.2h21.6v21.6H57.1V58.2z"/>
	<path class="st21" d="M57.1,58.2h21.6v21.6H57.1V58.2z"/>
	<path d="M62.5,75.3c0,1,0.8,1.8,1.8,1.8h7.2c1,0,1.8-0.8,1.8-1.8V64.5H62.5V75.3z M64.8,68.9l1.3-1.3l1.9,1.9l1.9-1.9l1.3,1.3
		l-1.9,1.9l1.9,1.9L69.9,74L68,72.1l-2,1.8l-1.3-1.3l1.9-1.9L64.8,68.9z M71.1,61.8l-0.9-0.9h-4.5l-0.9,0.9h-3.1v1.8h12.6v-1.8H71.1
		z"/>
</g>
<g>
	<path class="st21" d="M95.6,58.2h21.6v21.6H95.6V58.2z"/>
	<path class="st21" d="M95.6,58.2h21.6v21.6H95.6V58.2z"/>
	<path d="M110,77.8h-7.2c-1.4,0-2.5-1.1-2.5-2.5V63.8h12.3v11.5C112.5,76.7,111.4,77.8,110,77.8z M101.8,65.3v10c0,0.6,0.5,1,1,1
		h7.2c0.6,0,1-0.5,1-1v-10H101.8z"/>
	<polygon points="103.2,68.9 104.5,67.7 106.4,69.5 108.3,67.7 109.6,68.9 107.7,70.8 109.6,72.7 108.3,73.9 106.4,72.1 104.5,73.9 
		103.2,72.7 105.1,70.8 	"/>
	<polygon points="109.6,61.9 108.7,61 104.2,61 103.2,61.9 100.1,61.9 100.1,63.1 112.7,63.1 112.7,61.9 	"/>
</g>
<g>
	<path d="M60.6,111c-1.1,0-1.8-0.7-1.8-1.8c0-1,0.8-1.8,1.8-1.8c0.8,0,1.8,0.8,1.8,1.8C62.4,110.2,61.6,111,60.6,111z M60.4,109.4
		c0,0,0.1,0,0.2,0c0.2,0,0.2,0,0.2-0.2c0-0.1-0.1-0.2-0.2-0.2c-0.1,0-0.2,0.1-0.2,0.2S60.4,109.4,60.4,109.4L60.4,109.4z"/>
	<path d="M68,111c-1,0-1.8-0.8-1.8-1.8s1-1.8,1.8-1.8s1.8,0.8,1.8,1.8S69,111,68,111z M67.8,109.4h0.3l0,0c0,0,0-0.1,0-0.2
		c0-0.3-0.4-0.3-0.4,0C67.8,109.3,67.8,109.4,67.8,109.4L67.8,109.4z"/>
	<path d="M75.2,111c-0.4,0-1.4-0.2-1.8-1.6v-0.2c0-1,0.8-1.8,1.8-1.8s1.8,0.8,1.8,1.8S76.2,111,75.2,111z M75,109.2
		c0,0.2,0,0.2,0.2,0.2s0.2,0,0.2-0.2H75z M75.2,109C75.1,109,75.1,109,75.2,109L75.2,109z"/>
</g>
<g>
	<path d="M99.2,350.8c-0.2,0-0.4-0.1-0.5-0.2c-0.3-0.3-0.3-0.8,0-1.1l14-14c0.3-0.3,0.8-0.3,1.1,0s0.3,0.8,0,1.1l-14,14
		C99.6,350.7,99.4,350.8,99.2,350.8z"/>
	<path d="M113.2,343.8c-0.4,0-0.8-0.3-0.8-0.8v-6.2h-6.2c-0.4,0-0.8-0.3-0.8-0.8s0.3-0.8,0.8-0.8h7.8v7.8
		C114,343.4,113.6,343.8,113.2,343.8z"/>
	<path d="M106.2,350.8h-7.8V343c0-0.4,0.3-0.8,0.8-0.8s0.8,0.3,0.8,0.8v6.2h6.2c0.4,0,0.8,0.3,0.8,0.8S106.6,350.8,106.2,350.8z"/>
</g>
<g>
	<path d="M114,195.3c0,0.5,0,1.1,0,1.6c-5.3,0-10.7,0-16,0c0-0.5,0-1,0-1.6C103.3,195.3,108.7,195.3,114,195.3z"/>
	<g>
		<path d="M101.3,189.5c2.1-2.1,4.1-4.1,6.2-6.2c0.8,0.8,1.6,1.6,2.4,2.4c-2,2-4.1,4.1-6.2,6.2C103,191.1,102.2,190.3,101.3,189.5z"
			/>
		<path d="M110.5,185.2c-0.8-0.8-1.6-1.6-2.4-2.4c0.6-0.6,1.3-1.3,1.9-1.9c0.8,0.8,1.6,1.6,2.4,2.4
			C111.7,184,111.1,184.6,110.5,185.2z"/>
		<path d="M103.4,192.4c-1.2,0.4-2.4,0.8-3.7,1.2c0.4-1.3,0.8-2.5,1.2-3.7C101.7,190.7,102.5,191.5,103.4,192.4z"/>
	</g>
</g>
<g id="레이어_2_1_" class="st22">
	<path class="st23" d="M28.2,20.9c1.2,0,2.3,0.3,3.4,1c1,0.7,1.7,1.6,2.2,2.5c0.5,1.2,0.7,2.2,0.5,3.4c-0.1,1.2-0.7,2.2-1.5,3.1
		l5.4,5.4L37.5,37L32,31.7c-0.7,0.7-1.6,1.2-2.5,1.3c-1,0.2-2.1,0.2-2.9,0c-1-0.2-1.7-0.7-2.5-1.3c-0.7-0.7-1.3-1.5-1.6-2.4
		c-0.3-0.9-0.5-1.9-0.3-2.9c0.1-1,0.5-1.9,1-2.7c0.6-0.7,1.3-1.5,2.2-1.9C26.2,21.3,27.2,20.9,28.2,20.9z M28.2,22
		c-1.3,0-2.7,0.6-3.7,1.6s-1.6,2.2-1.6,3.7c0,1.3,0.6,2.7,1.6,3.7c1,1,2.2,1.6,3.7,1.6s2.7-0.6,3.7-1.6c1-1,1.6-2.2,1.6-3.7
		c0-1.3-0.6-2.7-1.6-3.7C30.8,22.5,29.5,22,28.2,22z"/>
	<g class="st24">
		<g>
			<g>
				<g>
					<g>
						<g>
							<g>
								<g>
									<g>
										<g>
											<g>
												<g>
													<g>
														<g>
															<g>
																<g>
																	<g>
																		<g>
																			<defs>
																				<rect id="SVGID_1_" x="21.9" y="60.9" width="16.2" height="16.2"/>
																			</defs>
																			<clipPath id="SVGID_2_">
																				<use xlink:href="#SVGID_1_"  style="overflow:visible;"/>
																			</clipPath>
																			<g class="st25">
																				<path class="st4" d="M30,70.4c4,0,7.3,1.5,7.3,3.5v2.4H22.7v-2.4C22.7,72,26,70.4,30,70.4z M36.2,73.9
																					c0-1.4-2.9-2.4-6.2-2.4s-6.2,1-6.2,2.4v1.4h12.6v-1.4H36.2z M30,61.7c0.9,0,1.7,0.5,2.4,1c0.6,0.6,1,1.5,1,2.4
																					s-0.5,1.7-1,2.4c-0.6,0.6-1.5,1-2.4,1s-1.7-0.5-2.4-1c-0.6-0.6-1-1.5-1-2.4s0.5-1.7,1-2.4
																					C28.3,62.1,29.1,61.7,30,61.7z M30,62.8c-0.6,0-1.2,0.3-1.7,0.7c-0.5,0.5-0.7,1-0.7,1.7s0.3,1.2,0.7,1.7
																					c0.5,0.5,1,0.7,1.7,0.7s1.2-0.3,1.7-0.7c0.5-0.5,0.7-1,0.7-1.7s-0.3-1.2-0.7-1.7C31.2,63,30.6,62.8,30,62.8z"/>
																				<path d="M30,70.4c4,0,7.3,1.5,7.3,3.5v2.4H22.7v-2.4C22.7,72,26,70.4,30,70.4z M36.2,73.9
																					c0-1.4-2.9-2.4-6.2-2.4s-6.2,1-6.2,2.4v1.4h12.6v-1.4H36.2z M30,61.7c0.9,0,1.7,0.5,2.4,1c0.6,0.6,1,1.5,1,2.4
																					s-0.5,1.7-1,2.4c-0.6,0.6-1.5,1-2.4,1s-1.7-0.5-2.4-1c-0.6-0.6-1-1.5-1-2.4s0.5-1.7,1-2.4
																					C28.3,62.1,29.1,61.7,30,61.7z M30,62.8c-0.6,0-1.2,0.3-1.7,0.7c-0.5,0.5-0.7,1-0.7,1.7s0.3,1.2,0.7,1.7
																					c0.5,0.5,1,0.7,1.7,0.7s1.2-0.3,1.7-0.7c0.5-0.5,0.7-1,0.7-1.7s-0.3-1.2-0.7-1.7C31.2,63,30.6,62.8,30,62.8z"/>
																				<path class="st3" d="M30,70.4c4,0,7.3,1.5,7.3,3.5v2.4H22.7v-2.4C22.7,72,26,70.4,30,70.4z M36.2,73.9
																					c0-1.4-2.9-2.4-6.2-2.4s-6.2,1-6.2,2.4v1.4h12.6v-1.4H36.2z M30,61.7c0.9,0,1.7,0.5,2.4,1c0.6,0.6,1,1.5,1,2.4
																					s-0.5,1.7-1,2.4c-0.6,0.6-1.5,1-2.4,1s-1.7-0.5-2.4-1c-0.6-0.6-1-1.5-1-2.4s0.5-1.7,1-2.4
																					C28.3,62.1,29.1,61.7,30,61.7z M30,62.8c-0.6,0-1.2,0.3-1.7,0.7c-0.5,0.5-0.7,1-0.7,1.7s0.3,1.2,0.7,1.7
																					c0.5,0.5,1,0.7,1.7,0.7s1.2-0.3,1.7-0.7c0.5-0.5,0.7-1,0.7-1.7s-0.3-1.2-0.7-1.7C31.2,63,30.6,62.8,30,62.8z"/>
																				<path class="st0" d="M30,70.4c4,0,7.3,1.5,7.3,3.5v2.4H22.7v-2.4C22.7,72,26,70.4,30,70.4z M36.2,73.9
																					c0-1.4-2.9-2.4-6.2-2.4s-6.2,1-6.2,2.4v1.4h12.6v-1.4H36.2z M30,61.7c0.9,0,1.7,0.5,2.4,1c0.6,0.6,1,1.5,1,2.4
																					s-0.5,1.7-1,2.4c-0.6,0.6-1.5,1-2.4,1s-1.7-0.5-2.4-1c-0.6-0.6-1-1.5-1-2.4s0.5-1.7,1-2.4
																					C28.3,62.1,29.1,61.7,30,61.7z M30,62.8c-0.6,0-1.2,0.3-1.7,0.7c-0.5,0.5-0.7,1-0.7,1.7s0.3,1.2,0.7,1.7
																					c0.5,0.5,1,0.7,1.7,0.7s1.2-0.3,1.7-0.7c0.5-0.5,0.7-1,0.7-1.7s-0.3-1.2-0.7-1.7C31.2,63,30.6,62.8,30,62.8z"/>
																			</g>
																		</g>
																	</g>
																</g>
															</g>
														</g>
													</g>
												</g>
											</g>
										</g>
									</g>
								</g>
							</g>
						</g>
					</g>
				</g>
			</g>
		</g>
	</g>
	<path class="st26" d="M22.6,103.6c-0.1,0-0.4,0.1-0.4,0.2c-0.1,0.1-0.2,0.2-0.2,0.4c0,0.1,0.1,0.4,0.2,0.4c0.1,0.1,0.2,0.2,0.4,0.2
		h14.9c0.1,0,0.4-0.1,0.4-0.2c0.1-0.1,0.2-0.2,0.2-0.4c0-0.1-0.1-0.4-0.2-0.4c-0.1-0.1-0.2-0.2-0.4-0.2H22.6z M21.9,109.2
		c0-0.1,0.1-0.4,0.2-0.4c0.1-0.1,0.2-0.2,0.5-0.2h14.9c0.1,0,0.4,0.1,0.5,0.2s0.2,0.2,0.2,0.4c0,0.1-0.1,0.4-0.2,0.5
		s-0.2,0.2-0.5,0.2h-15c-0.1,0-0.4-0.1-0.5-0.2C22,109.6,21.9,109.4,21.9,109.2z M21.9,114.2c0-0.1,0.1-0.4,0.2-0.4
		c0.1-0.1,0.2-0.2,0.5-0.2h14.9c0.1,0,0.4,0.1,0.5,0.2s0.2,0.2,0.2,0.4c0,0.1-0.1,0.4-0.2,0.4c-0.1,0.1-0.2,0.2-0.5,0.2h-15
		c-0.1,0-0.4-0.1-0.5-0.2C22.1,114.4,21.9,114.3,21.9,114.2z"/>
	<path class="st27" d="M22.6,103.6c-0.1,0-0.4,0.1-0.4,0.2c-0.1,0.1-0.2,0.2-0.2,0.4c0,0.1,0.1,0.4,0.2,0.4c0.1,0.1,0.2,0.2,0.4,0.2
		h14.9c0.1,0,0.4-0.1,0.4-0.2c0.1-0.1,0.2-0.2,0.2-0.4c0-0.1-0.1-0.4-0.2-0.4c-0.1-0.1-0.2-0.2-0.4-0.2H22.6z M21.9,109.2
		c0-0.1,0.1-0.4,0.2-0.4c0.1-0.1,0.2-0.2,0.5-0.2h14.9c0.1,0,0.4,0.1,0.5,0.2s0.2,0.2,0.2,0.4c0,0.1-0.1,0.4-0.2,0.5
		s-0.2,0.2-0.5,0.2h-15c-0.1,0-0.4-0.1-0.5-0.2C22,109.6,21.9,109.4,21.9,109.2z M21.9,114.2c0-0.1,0.1-0.4,0.2-0.4
		c0.1-0.1,0.2-0.2,0.5-0.2h14.9c0.1,0,0.4,0.1,0.5,0.2s0.2,0.2,0.2,0.4c0,0.1-0.1,0.4-0.2,0.4c-0.1,0.1-0.2,0.2-0.5,0.2h-15
		c-0.1,0-0.4-0.1-0.5-0.2C22.1,114.4,21.9,114.3,21.9,114.2z"/>
	<path class="st28" d="M22.6,103.6c-0.1,0-0.4,0.1-0.4,0.2c-0.1,0.1-0.2,0.2-0.2,0.4c0,0.1,0.1,0.4,0.2,0.4c0.1,0.1,0.2,0.2,0.4,0.2
		h14.9c0.1,0,0.4-0.1,0.4-0.2c0.1-0.1,0.2-0.2,0.2-0.4c0-0.1-0.1-0.4-0.2-0.4c-0.1-0.1-0.2-0.2-0.4-0.2H22.6z M21.9,109.2
		c0-0.1,0.1-0.4,0.2-0.4c0.1-0.1,0.2-0.2,0.5-0.2h14.9c0.1,0,0.4,0.1,0.5,0.2s0.2,0.2,0.2,0.4c0,0.1-0.1,0.4-0.2,0.5
		s-0.2,0.2-0.5,0.2h-15c-0.1,0-0.4-0.1-0.5-0.2C22,109.6,21.9,109.4,21.9,109.2z M21.9,114.2c0-0.1,0.1-0.4,0.2-0.4
		c0.1-0.1,0.2-0.2,0.5-0.2h14.9c0.1,0,0.4,0.1,0.5,0.2s0.2,0.2,0.2,0.4c0,0.1-0.1,0.4-0.2,0.4c-0.1,0.1-0.2,0.2-0.5,0.2h-15
		c-0.1,0-0.4-0.1-0.5-0.2C22.1,114.4,21.9,114.3,21.9,114.2z"/>
	<path class="st23" d="M22.6,103.6c-0.1,0-0.4,0.1-0.4,0.2c-0.1,0.1-0.2,0.2-0.2,0.4c0,0.1,0.1,0.4,0.2,0.4c0.1,0.1,0.2,0.2,0.4,0.2
		h14.9c0.1,0,0.4-0.1,0.4-0.2c0.1-0.1,0.2-0.2,0.2-0.4c0-0.1-0.1-0.4-0.2-0.4c-0.1-0.1-0.2-0.2-0.4-0.2H22.6z M21.9,109.2
		c0-0.1,0.1-0.4,0.2-0.4c0.1-0.1,0.2-0.2,0.5-0.2h14.9c0.1,0,0.4,0.1,0.5,0.2s0.2,0.2,0.2,0.4c0,0.1-0.1,0.4-0.2,0.5
		s-0.2,0.2-0.5,0.2h-15c-0.1,0-0.4-0.1-0.5-0.2C22,109.6,21.9,109.4,21.9,109.2z M21.9,114.2c0-0.1,0.1-0.4,0.2-0.4
		c0.1-0.1,0.2-0.2,0.5-0.2h14.9c0.1,0,0.4,0.1,0.5,0.2s0.2,0.2,0.2,0.4c0,0.1-0.1,0.4-0.2,0.4c-0.1,0.1-0.2,0.2-0.5,0.2h-15
		c-0.1,0-0.4-0.1-0.5-0.2C22.1,114.4,21.9,114.3,21.9,114.2z"/>
	<path class="st27" d="M36.5,148.9c0-1,0.6-1.9,1.6-2c-0.3-0.7-0.5-1.6-0.9-2.1c-0.4,0.4-0.7,0.5-1.2,0.5c-1.2,0-2.1-1-2.1-2.1
		c0-0.5,0.3-0.8,0.5-1.2c-0.6-0.5-1.5-0.7-2.1-0.9c-0.2,0.9-1,1.6-2,1.6s-1.9-0.6-2-1.7c-0.8,0.3-1.7,0.5-2.4,0.9
		c0.4,0.4,0.5,0.7,0.5,1.2c0,1.2-1,2.1-2.1,2.1c-0.5,0-0.8-0.3-1.2-0.5c-0.5,0.6-0.7,1.4-0.9,2c1.1,0,1.9,0.9,1.9,2
		c0,1.2-0.9,2.1-2,2.1c0.3,0.8,0.5,1.7,0.9,2.4c0.5-0.5,0.9-0.6,1.6-0.6c1.2,0,2.1,1,2.1,2.1c0,0.6-0.2,1.1-0.6,1.6
		c0.7,0.5,1.6,0.7,2.4,0.9c0.1-1,1-1.7,2-1.7s1.9,0.6,2,1.6c0.7-0.3,1.6-0.5,2.1-0.9c-0.4-0.4-0.5-0.7-0.5-1.2c0-1.2,1-2.1,2.1-2.1
		c0.5,0,0.8,0.3,1.2,0.5c0.5-0.7,0.7-1.6,0.9-2.4C37.2,150.9,36.5,149.9,36.5,148.9z M30,151.8c-1.6,0-2.7-1.2-2.7-2.7
		c0-1.6,1.2-2.7,2.7-2.7s2.7,1.2,2.7,2.7C32.8,150.6,31.6,151.8,30,151.8z"/>
	<path class="st24" d="M33.9,193h-7.3v-5.2c0-2.1,1.6-3.5,3.5-3.5c1.9,0,3.5,1.6,3.5,3.5v5.2H33.9z M35.4,192.2v-4.5
		c0-2.4-1.7-4.6-4-5.1v-0.5c0-0.4-0.1-0.6-0.4-0.9c-0.2-0.2-0.5-0.4-0.9-0.4s-0.6,0.1-0.9,0.4c-0.2,0.2-0.4,0.5-0.4,0.9v0.5
		c-2.3,0.5-4,2.6-4,5.1v4.5l-1.6,1.6v0.7h13.6v-0.7L35.4,192.2z M30.2,197c0.4,0,0.7-0.2,1.1-0.5c0.4-0.4,0.5-0.6,0.5-1.1h-3.2
		c0,0.4,0.2,0.7,0.5,1.1C29.5,196.8,29.8,197,30.2,197z"/>
	<path class="st24" d="M75.9,195.9l-15-15l-1,1l3.5,3.5c-0.5,0.7-0.6,1.6-0.6,2.4v4.6l-1.6,1.6v0.7h11.3l2.1,2.1L75.9,195.9z
		 M64.6,193.3v-5.2c0-0.4,0.1-0.9,0.2-1.3l6.6,6.6L64.6,193.3L64.6,193.3L64.6,193.3z M66.8,195.5h3c0,0.5-0.1,0.7-0.5,1.1
		c-0.4,0.4-0.6,0.4-1.1,0.4c-0.4,0-0.7-0.1-1.1-0.4C66.9,196.3,66.8,195.9,66.8,195.5z M65.5,183.5c0.4-0.2,0.9-0.4,1.3-0.5v-0.2
		c0-0.4,0.1-0.7,0.5-1.1c0.4-0.4,0.6-0.4,1.1-0.4s0.7,0.1,1.1,0.4c0.4,0.4,0.4,0.6,0.4,1.1v0.2c2.2,0.6,3.8,2.7,3.8,5v3.5l-1.6-1.6
		v-2.2c0-1-0.5-2.1-1.1-2.7c-0.6-0.6-1.7-1.1-2.7-1.1c-0.5,0-1.1,0.1-1.7,0.5L65.5,183.5z"/>
	<path class="st24" d="M67.9,270.8c0.4,0,0.7-0.1,1-0.5c0.4-0.2,0.4-0.6,0.4-1c0-0.5-0.1-0.7-0.4-1c-0.2-0.2-0.6-0.4-1-0.4
		s-0.7,0.1-1,0.4c-0.4,0.4-0.4,0.6-0.4,1s0.1,0.7,0.4,1C67.2,270.7,67.5,270.8,67.9,270.8z M72.3,264.2c0.4,0,0.7,0.1,1,0.5
		c0.4,0.2,0.4,0.6,0.4,1v7.4c0,0.5-0.1,0.7-0.4,1c-0.2,0.4-0.6,0.4-1,0.4h-8.8c-0.5,0-0.7-0.1-1-0.4c-0.4-0.2-0.4-0.6-0.4-1v-7.4
		c0-0.4,0.1-0.7,0.4-1c0.4-0.4,0.6-0.5,1-0.5h0.7v-1.4c0-1,0.5-1.8,1.1-2.7c0.6-0.6,1.6-1.1,2.7-1.1c0.5,0,1,0.1,1.4,0.4
		c0.4,0.2,0.9,0.4,1.2,0.7c0.4,0.4,0.6,0.7,0.7,1.2c0.2,0.4,0.4,0.9,0.4,1.4v1.4L72.3,264.2L72.3,264.2z M67.9,260.5
		c-0.5,0-1.1,0.2-1.5,0.6c-0.4,0.5-0.6,1-0.6,1.5v1.4h4.4v-1.4c0-0.5-0.2-1.1-0.6-1.5C69,260.7,68.4,260.5,67.9,260.5z"/>
	<path class="st24" d="M28,262.4l-1.3-1.3c0.2-0.6,0.7-1.4,1.3-1.7c0.6-0.4,1.4-0.6,2.2-0.6c2.1,0,3.8,1.7,3.8,3.8v1.5h0.7
		c0.5,0,0.7,0.1,1,0.5c0.4,0.2,0.5,0.6,0.5,1v5l-1.5-1.5v-3.6h-3.6l-1.5-1.5h2.8v-1.5c0-1.3-1-2.2-2.2-2.2
		C29.1,260.2,28.2,261.2,28,262.4z M37.9,274.1L37,275l-1-1c-0.2,0.4-0.6,0.5-1.1,0.5h-9c-0.4,0-0.7-0.1-1-0.5
		c-0.4-0.2-0.4-0.6-0.4-1v-7.5c0-0.7,0.6-1.5,1.5-1.5l0,0l-3.8-3.8l1-0.9L37.9,274.1z M34.8,272.9l-3.1-3.1
		c-0.2,0.5-0.7,0.9-1.4,0.9c-0.4,0-0.7-0.1-1-0.4c-0.4-0.2-0.5-0.6-0.5-1c0-0.6,0.4-1.1,0.9-1.3l-2.3-2.3h-1.6v7.5L34.8,272.9
		L34.8,272.9z"/>
	<path class="st26" d="M22.9,298.4c0.2-0.4,0.5-0.5,0.8-0.5h12.5c0.4,0,0.5,0.2,0.8,0.5s0.1,0.6-0.1,0.9l-4.8,6.8v4.4
		c0,0.4-0.2,0.6-0.5,0.9l-2.6,0.9c-0.4,0.1-0.5,0.1-0.8-0.1s-0.4-0.5-0.4-0.6v-4.9l-4.8-7.1C22.8,299,22.8,298.6,22.9,298.4z
		 M25.4,299.6l4,6c0.1,0.1,0.1,0.4,0.1,0.5v3.9l0.9-0.4v-3.9c0-0.2,0.1-0.4,0.2-0.5l3.9-5.6H25.4C25.4,299.7,25.4,299.6,25.4,299.6z
		"/>
	<path class="st27" d="M22.9,298.4c0.2-0.4,0.5-0.5,0.8-0.5h12.5c0.4,0,0.5,0.2,0.8,0.5s0.1,0.6-0.1,0.9l-4.8,6.8v4.4
		c0,0.4-0.2,0.6-0.5,0.9l-2.6,0.9c-0.4,0.1-0.5,0.1-0.8-0.1s-0.4-0.5-0.4-0.6v-4.9l-4.8-7.1C22.8,299,22.8,298.6,22.9,298.4z
		 M25.4,299.6l4,6c0.1,0.1,0.1,0.4,0.1,0.5v3.9l0.9-0.4v-3.9c0-0.2,0.1-0.4,0.2-0.5l3.9-5.6H25.4C25.4,299.7,25.4,299.6,25.4,299.6z
		"/>
	<path class="st29" d="M60.8,305l7.1-7.1L75,305h-1.8v7.1h-3v-4.4h-2.3h-2.4v4.4h-3V305H60.8z"/>
	<path class="st24" d="M60.8,305l7.1-7.1L75,305h-1.8v7.1h-3v-4.4h-2.3h-2.4v4.4h-3V305H60.8z"/>
	<path class="st30" d="M60.8,305l7.1-7.1L75,305h-1.8v7.1h-3v-4.4h-2.3h-2.4v4.4h-3V305H60.8z"/>
	<path class="st31" d="M60.8,305l7.1-7.1L75,305h-1.8v7.1h-3v-4.4h-2.3h-2.4v4.4h-3V305H60.8z"/>
	<g class="st24">
		<path class="st2" d="M36.8,336.2H23.2v13.5h13.5L36.8,336.2L36.8,336.2z M21.9,334.9v16.2h16.2v-16.2H21.9z"/>
		<ellipse class="st4" cx="25.8" cy="340.3" rx="1" ry="1"/>
		<ellipse class="st7" cx="25.8" cy="340.3" rx="1" ry="1"/>
		<path class="st4" d="M26.4,343.7l-1.4,2h10l-3.2-5.2l-2.1,3l-1.1-1l-1.4,2L26.4,343.7z"/>
		<path class="st7" d="M26.4,343.7l-1.4,2h10l-3.2-5.2l-2.1,3l-1.1-1l-1.4,2L26.4,343.7z"/>
		<path class="st3" d="M26.4,343.7l-1.4,2h10l-3.2-5.2l-2.1,3l-1.1-1l-1.4,2L26.4,343.7z"/>
		<path class="st8" d="M26.4,343.7l-1.4,2h10l-3.2-5.2l-2.1,3l-1.1-1l-1.4,2L26.4,343.7z"/>
	</g>
	<g class="st24">
		<path d="M61.3,351.1h9.4c0.4,0,0.7-0.2,1.1-0.5c0.4-0.4,0.4-0.6,0.4-1.1v-9.4c0-0.4-0.2-0.7-0.4-1.1c-0.4-0.4-0.6-0.4-1.1-0.4
			h-9.4c-0.5,0-0.7,0.2-1.1,0.4c-0.4,0.4-0.4,0.6-0.4,1.1v9.4c0,0.5,0.2,0.7,0.4,1.1C60.5,350.9,61,351.1,61.3,351.1z M62.9,344h2.4
			v-2.3h1.5v2.3h2.3v1.5h-2.3v2.3h-1.5v-2.3H63C62.9,345.5,62.9,344,62.9,344z"/>
		<path d="M74.5,334.9h-9.4v1.5h9.4v9.4H76v-9.4C76,335.5,75.4,334.9,74.5,334.9z"/>
	</g>
	<g class="st24">
		<path d="M104.8,26.7c0.1,0,0.3,0.1,0.4,0.1c0.1,0.1,0.1,0.3,0.1,0.4v3c0,0.1-0.1,0.3-0.1,0.4c-0.1,0.1-0.3,0.1-0.4,0.1
			s-0.3-0.1-0.4-0.1c-0.1-0.1-0.1-0.3-0.1-0.4v-2.9c0-0.1,0.1-0.3,0.1-0.4C104.4,26.7,104.6,26.7,104.8,26.7z"/>
		<path d="M104.8,25.8c0.1,0,0.4-0.1,0.6-0.3c0.1-0.1,0.3-0.4,0.3-0.6s-0.1-0.4-0.3-0.6c-0.1-0.1-0.4-0.3-0.6-0.3
			c-0.1,0-0.4,0.1-0.6,0.3c-0.1,0.1-0.3,0.4-0.3,0.6s0.1,0.4,0.3,0.6C104.4,25.7,104.6,25.8,104.8,25.8z"/>
		<path d="M104.8,21.4c1.1,0,2.3,0.3,3.3,1c1,0.6,1.9,1.6,2.3,2.5s0.7,2.2,0.6,3.3c-0.1,1.1-0.6,2.3-1.3,3.2l4.2,4.2
			c0.1,0.1,0.1,0.3,0.1,0.4c0,0.1-0.1,0.3-0.1,0.4c-0.1,0.1-0.3,0.1-0.4,0.1s-0.3,0-0.4-0.1l-0.1-0.1l-4.2-4.2
			c-0.8,0.6-1.6,1-2.8,1.3c-1,0.1-2,0.1-2.9-0.1c-1-0.3-1.9-0.8-2.6-1.4c-0.8-0.7-1.3-1.6-1.6-2.4c-0.3-1-0.4-1.9-0.3-2.9
			s0.4-1.9,1-2.8c0.6-0.8,1.3-1.4,2.2-1.9C102.9,21.5,103.9,21.4,104.8,21.4z M104.8,22.6c-0.7,0-1.3,0.1-1.9,0.4s-1.1,0.6-1.6,1
			s-0.9,1-1,1.6c-0.3,0.6-0.4,1.3-0.4,1.9s0.1,1.3,0.4,1.9s0.6,1.1,1,1.6s1,0.9,1.6,1c0.6,0.3,1.3,0.4,1.9,0.4
			c1.3,0,2.6-0.4,3.4-1.4c1-1,1.4-2.2,1.4-3.4c0-1.3-0.4-2.5-1.4-3.4C107.3,23.1,106.1,22.6,104.8,22.6z"/>
	</g>
	<path class="st32" d="M59.8,484l6.1,6.1l10.1-12"/>
	<path class="st33" d="M67.9,386.5c-0.1,0-0.2,0-0.4-0.1c-2.8-2.2-4.7-4-6.1-5.8c-1.7-2.3-2.2-4.5-1.1-6.4c0.6-1.4,2.6-2.4,4.9-1.8
		c1.1,0.4,2.1,1,2.7,1.9c0.6-0.9,1.6-1.6,2.7-1.9c2.2-0.6,4.1,0.5,4.9,1.8c0.9,1.9,0.5,4-1.1,6.4c-1.3,1.8-3.2,3.8-6.1,5.8
		C68.1,386.4,68,386.5,67.9,386.5z M64,373c-0.5,0-1,0.1-1.6,0.4c-0.5,0.2-0.9,0.6-1.1,1.1c-0.7,1.6-0.4,3.3,1.1,5.4
		s3.4,3.9,5.5,5.4c2.1-1.6,4-3.3,5.5-5.4s1.8-3.9,1.1-5.4c-0.4-1-2.1-1.8-3.8-1.3c-0.5,0.1-1,0.4-1.5,0.7c-0.5,0.4-0.7,0.7-1,1.4
		c0,0.1-0.1,0.2-0.2,0.2s-0.2,0.1-0.2,0.1c-0.1,0-0.2,0-0.2-0.1c-0.1,0-0.1-0.1-0.2-0.2c-0.2-0.5-0.5-0.9-1-1.4
		c-0.4-0.4-0.9-0.6-1.5-0.7C64.7,373.1,64.4,373,64,373z"/>
	<path class="st24" d="M33.9,384.8c-0.2,0-0.5-0.1-0.5-0.2l-3.3-2.2c0,0,0,0-0.1,0c0,0,0,0-0.1,0l-3.3,2.2c-0.2,0.1-0.4,0.2-0.5,0.2
		c-0.2,0-0.5-0.1-0.5-0.2c-0.2-0.1-0.4-0.4-0.5-0.5s-0.1-0.5,0-0.5l1.1-3.8c0,0,0,0,0-0.1l0,0l-3.1-2.5c-0.2-0.1-0.4-0.4-0.5-0.5
		c-0.1-0.2-0.1-0.4,0-0.5c0.1-0.2,0.2-0.5,0.5-0.5c0.2-0.1,0.4-0.2,0.5-0.2l4-0.2c0,0,0,0,0.1,0l0,0l1.4-3.6
		c0.1-0.2,0.2-0.5,0.4-0.5c0.2-0.1,0.5-0.2,0.5-0.2c0.2,0,0.5,0.1,0.5,0.2c0.2,0.1,0.4,0.4,0.4,0.5l1.4,3.6l0,0c0,0,0,0,0.1,0l4,0.2
		c0.2,0,0.5,0.1,0.5,0.2c0.2,0.1,0.4,0.4,0.4,0.5c0.1,0.2,0.1,0.4,0,0.5s-0.2,0.5-0.4,0.5l-3.1,2.5l0,0c0,0,0,0,0,0.1l1.1,3.8
		c0,0.1,0,0.4,0,0.5s-0.1,0.4-0.2,0.5c-0.1,0.1-0.2,0.2-0.5,0.4C34.1,384.8,34,384.8,33.9,384.8z M30,381.6c0.2,0,0.5,0.1,0.5,0.2
		l3.3,2.2c0,0,0,0,0.1,0c0,0,0,0,0.1,0c0,0,0,0,0-0.1c0,0,0,0,0-0.1l-1-3.8c-0.1-0.2,0-0.4,0-0.5c0.1-0.2,0.2-0.4,0.4-0.5l3.1-2.5
		l0,0c0,0,0,0,0-0.1l0,0c0,0,0,0-0.1,0l-4-0.2c-0.2,0-0.5-0.1-0.5-0.2c-0.2-0.1-0.4-0.4-0.4-0.5l-1.4-3.6l0,0c0,0,0,0-0.1,0
		c0,0,0,0-0.1,0l0,0l-1.4,3.6c-0.1,0.2-0.2,0.4-0.4,0.5c-0.2,0.1-0.4,0.2-0.5,0.2l-4,0.2c0,0,0,0-0.1,0l0,0c0,0,0,0,0,0.1l0,0
		l3.1,2.5c0.2,0.1,0.4,0.4,0.4,0.5c0.1,0.2,0.1,0.5,0,0.5l-1.1,3.8c0,0,0,0,0,0.1l0,0c0,0,0,0,0.1,0s0,0,0.1,0l3.3-2.2
		C29.5,381.7,29.8,381.6,30,381.6L30,381.6z"/>
	<path class="st33" d="M34.2,385.4c-0.2,0-0.5-0.1-0.6-0.2l-3.6-2.3c0,0,0,0-0.1,0c0,0,0,0-0.1,0l-3.6,2.3c-0.2,0.1-0.5,0.2-0.6,0.2
		s-0.5-0.1-0.6-0.2s-0.4-0.4-0.4-0.5c-0.1-0.2-0.1-0.5,0-0.6l1.2-4.1c0,0,0,0,0-0.1l0,0l-3.3-2.7c-0.2-0.1-0.4-0.4-0.5-0.5
		c-0.1-0.2-0.1-0.4,0-0.6s0.2-0.4,0.5-0.5c0.2-0.1,0.4-0.2,0.6-0.2l4.3-0.2c0,0,0,0,0.1,0l0,0l1.5-4c0.1-0.2,0.2-0.5,0.5-0.5
		c0.2-0.1,0.5-0.2,0.6-0.2s0.4,0.1,0.6,0.2s0.4,0.4,0.4,0.5l1.5,4l0,0c0,0,0,0,0.1,0l4.3,0.2c0.2,0,0.4,0.1,0.6,0.2
		c0.2,0.1,0.4,0.4,0.4,0.5c0.1,0.2,0.1,0.5,0,0.6c-0.1,0.2-0.2,0.5-0.4,0.5l-3.3,2.7l0,0c0,0,0,0,0,0.1l1.2,4.1c0,0.1,0,0.4,0,0.5
		s-0.1,0.4-0.2,0.4c-0.1,0.1-0.2,0.2-0.5,0.4C34.5,385.4,34.3,385.4,34.2,385.4z M30,381.9c0.2,0,0.4,0.1,0.5,0.2l3.6,2.3
		c0,0,0,0,0.1,0c0,0,0,0,0.1,0c0,0,0,0,0-0.1c0,0,0,0,0-0.1l-1.2-4.1c-0.1-0.2,0-0.5,0-0.6c0.1-0.2,0.2-0.4,0.4-0.5l3.3-2.7l0,0
		c0,0,0,0,0-0.1l0,0c0,0,0,0-0.1,0l-4.3-0.2c-0.2,0-0.5-0.1-0.5-0.2c-0.2-0.1-0.4-0.4-0.4-0.5l-1.5-4l0,0c0,0,0,0-0.1,0
		c0,0,0,0-0.1,0l0,0l-1.5,4c-0.1,0.2-0.2,0.4-0.4,0.5c-0.2,0.1-0.4,0.2-0.5,0.2l-4.3,0.2c0,0,0,0-0.1,0l0,0c0,0,0,0,0,0.1l0,0
		l3.3,2.7c0.2,0.1,0.4,0.4,0.4,0.5c0.1,0.2,0.1,0.4,0,0.6l-1.2,4.1c0,0,0,0,0,0.1l0,0c0,0,0,0,0.1,0s0,0,0.1,0l3.6-2.3
		C29.5,382,29.8,381.9,30,381.9L30,381.9z"/>
	<path class="st34" d="M62.2,420.8h11.3c0.1,0,0.4,0.1,0.4,0.1c0.1,0.1,0.2,0.2,0.2,0.4c0,0.1,0,0.4-0.1,0.5s-0.2,0.2-0.4,0.2h-0.1
		H62.3c-0.1,0-0.4-0.1-0.5-0.1c-0.1-0.1-0.2-0.2-0.2-0.4c0-0.1,0-0.4,0.1-0.5S62.1,420.8,62.2,420.8L62.2,420.8z M62.2,420.8h11.3
		H62.2z M67.7,405.9L67.7,405.9c0.2,0,0.4,0,0.5,0.1s0.2,0.2,0.2,0.4v0.1v10.9l3.4-3.4c0.1-0.1,0.2-0.1,0.4-0.2c0.1,0,0.4,0,0.4,0.1
		l0.1,0.1c0.1,0.1,0.1,0.2,0.2,0.4c0,0.1,0,0.4-0.1,0.5l-0.1,0.1l-4.4,4.4c-0.1,0.1-0.2,0.1-0.4,0.2c-0.1,0-0.4,0-0.5-0.1l-0.1-0.1
		l-4.4-4.4c-0.1-0.1-0.2-0.2-0.2-0.5c0-0.1,0-0.4,0.1-0.4c0.1-0.1,0.2-0.2,0.5-0.2c0.1,0,0.4,0,0.5,0.1l0.1,0.1l3.4,3.4v-10.9
		c0-0.1,0-0.4,0.1-0.4C67.5,406,67.5,405.9,67.7,405.9z M67.7,405.9L67.7,405.9L67.7,405.9z"/>
	<path class="st32" d="M30,412.2v5.5V412.2z M30,417.6l-2.7-2.7L30,417.6z M30,417.6l2.7-2.7L30,417.6z M34.5,422.1h-9
		c-0.5,0-0.9-0.2-1.3-0.5c-0.4-0.4-0.5-0.7-0.5-1.3v-12.6c0-0.5,0.2-0.9,0.5-1.3c0.4-0.4,0.7-0.5,1.3-0.5h5.1c0.2,0,0.5,0.1,0.6,0.2
		l4.9,4.9c0.2,0.1,0.2,0.5,0.2,0.6v8.6c0,0.5-0.2,0.9-0.5,1.3C35.4,421.8,35,422.1,34.5,422.1z"/>
	<g class="st24">
		<path class="st13" d="M105.4,143.7h-4.9c-0.4,0-0.7,0.1-1,0.4c-0.2,0.2-0.4,0.6-0.4,1v9.6c0,0.4,0.1,0.7,0.4,1
			c0.2,0.2,0.6,0.4,1,0.4h9.6c0.4,0,0.7-0.1,1-0.4c0.2-0.2,0.5-0.6,0.5-1v-4.9"/>
		<path class="st13" d="M110.9,142.3c0.4-0.4,0.6-0.4,1.1-0.4c0.4,0,0.7,0.1,1.1,0.4c0.4,0.4,0.4,0.6,0.4,1.1s-0.1,0.7-0.4,1.1
			l-6.5,6.5l-2.7,0.6l0.6-2.7L110.9,142.3z"/>
	</g>
	<path class="st34" d="M26.1,446.5h2.3c0.2,0,0.4,0.1,0.5,0.2s0.2,0.4,0.2,0.5c0,0.2-0.1,0.4-0.2,0.5s-0.4,0.2-0.5,0.2h-4.3
		c-0.5,0-0.7-0.4-0.7-0.7v-4.3c0-0.2,0.1-0.4,0.2-0.5s0.4-0.2,0.5-0.2c0.2,0,0.4,0.1,0.5,0.2s0.2,0.4,0.2,0.5v2.9l3.1-2.6
		c0.5-0.5,1.2-0.7,1.8-1.1c0.6-0.2,1.4-0.4,2.1-0.2c0.6,0,1.3,0.2,1.9,0.5c0.5,0.4,1.2,0.6,1.6,1.3c0.9,1.1,1.3,2.3,1.3,3.8
		c-0.1,1.4-0.6,2.6-1.8,3.5l-8,7c-0.1,0.1-0.1,0.1-0.2,0.1s-0.2,0-0.4,0c-0.1,0-0.2,0-0.2-0.1c-0.1,0-0.1-0.1-0.2-0.2
		s-0.1-0.1-0.1-0.2s0-0.2,0-0.4c0-0.1,0-0.2,0.1-0.2c0-0.1,0.1-0.1,0.2-0.2l8-7c0.4-0.4,0.6-0.6,0.9-1.2c0.2-0.5,0.4-0.9,0.4-1.4
		s0-1.1-0.2-1.5c-0.1-0.5-0.5-0.9-0.6-1.3c-0.4-0.4-0.6-0.6-1.2-0.9c-0.4-0.2-0.9-0.4-1.3-0.4s-1.1,0-1.5,0.2
		c-0.5,0.1-0.9,0.5-1.3,0.7L26.1,446.5z"/>
	<path class="st34" d="M67.9,441.9c-4.5,0-8.1,3.6-8.1,8.1s3.6,8.1,8.1,8.1s8.1-3.6,8.1-8.1h-1.3c0,3.9-3,6.8-6.8,6.8
		s-6.8-3-6.8-6.8s3-6.8,6.8-6.8c2.3,0,4.5,1.3,5.8,3.2h-3.3v1.3h5v-5H74v2.3C72.6,443.1,70.3,441.9,67.9,441.9z"/>
	<path class="st24" d="M114,410.5l-3.3-3.3c-0.1-0.1-0.1-0.1-0.2-0.1s-0.2,0-0.2,0H99.5c-0.4,0-0.6,0.1-0.9,0.5
		c-0.2,0.2-0.5,0.5-0.5,0.9v13.4c0,0.4,0.1,0.6,0.5,0.9c0.2,0.2,0.5,0.5,0.9,0.5H113c0.4,0,0.6-0.1,0.9-0.5c0.2-0.2,0.5-0.5,0.5-0.9
		v-10.7c0-0.1,0-0.2,0-0.2C114.1,410.6,114.1,410.5,114,410.5z M103.5,408.3h5.4v2.7h-5.4V408.3z M108.9,421.7h-5.4v-5.4h5.4V421.7z
		 M110.3,421.7v-5.4c0-0.4-0.1-0.6-0.4-0.9c-0.2-0.2-0.5-0.5-0.9-0.5h-5.4c-0.4,0-0.6,0.1-0.9,0.5c-0.2,0.2-0.4,0.5-0.4,0.9v5.4
		h-2.7v-13.4h2.7v2.7c0,0.4,0.1,0.6,0.4,0.9c0.2,0.2,0.5,0.5,0.9,0.5h5.4c0.4,0,0.6-0.1,0.9-0.5c0.2-0.2,0.4-0.5,0.4-0.9v-2.5
		l2.7,2.7v10.5L110.3,421.7L110.3,421.7z"/>
	<g class="st24">
		<path class="st14" d="M105.5,102.4c0,0.4,0.4,0.8,0.8,0.8s0.8-0.4,0.8-0.8c0-0.3-0.4-0.8-0.8-0.8S105.5,101.9,105.5,102.4z"/>
		<path class="st14" d="M105.5,109.2c0,0.4,0.4,0.8,0.8,0.8s0.8-0.4,0.8-0.8c0-0.3-0.4-0.8-0.8-0.8S105.5,108.7,105.5,109.2z"/>
		<path class="st14" d="M105.5,116.1c0,0.4,0.4,0.8,0.8,0.8s0.8-0.4,0.8-0.8c0-0.3-0.4-0.8-0.8-0.8S105.5,115.6,105.5,116.1z"/>
	</g>
	<path class="st24" d="M106.2,371.2c-4.5,0-8.1,3.6-8.1,8.1s3.6,8.1,8.1,8.1s8.1-3.6,8.1-8.1l0,0
		C114.3,374.9,110.7,371.2,106.2,371.2z M105.1,381.1c0.3,0.4,0.7,0.5,1.3,0.5c0.3,0,0.5,0,0.8-0.1s0.5-0.1,0.8-0.2l0.5-0.2v1.7
		l-0.3,0.1c-0.3,0.1-0.6,0.2-0.9,0.3c-0.4,0.1-0.7,0.1-1.1,0.1c-0.7,0-1.4-0.2-2.1-0.5c-0.5-0.4-1-0.8-1.3-1.4s-0.4-1.3-0.4-2.1
		s0.2-1.4,0.5-2.1c0.3-0.6,0.7-1.1,1.3-1.4c0.8-0.5,2.1-0.6,3.2-0.4c0.4,0.1,0.7,0.2,1,0.4l0.4,0.2l-0.7,1.6l-0.4-0.2
		c-0.3-0.1-0.4-0.2-0.7-0.3s-0.4-0.1-0.7-0.1c-0.5,0-1,0.2-1.3,0.5s-0.5,1-0.5,1.7C104.7,380.1,104.8,380.6,105.1,381.1z"/>
	<g class="st24">
		<path d="M64.8,230.7c0-0.7,0.4-1.6,1-2.2c0.5-0.5,1.3-1,2.2-1c0.7,0,1.6,0.4,2.2,1c0.5,0.5,1,1.4,1,2.2s-0.4,1.6-1,2.2
			c-0.5,0.5-1.4,1-2.2,1c-0.7,0-1.6-0.4-2.2-1C65,232.3,64.8,231.5,64.8,230.7z"/>
		<path d="M75.2,231.2c-0.4,0-0.6-0.2-0.7-0.5c-0.9-2.9-3.6-4.9-6.6-4.9c-3.1,0-5.7,2-6.6,4.9c-0.1,0.4-0.5,0.6-1,0.5
			s-0.6-0.5-0.5-1c1.1-3.5,4.3-5.9,8.1-5.9s6.9,2.3,8.1,5.9c0.1,0.4-0.1,0.8-0.5,1C75.4,231.1,75.3,231.2,75.2,231.2z"/>
	</g>
	<g class="st24">
		<path class="st15" d="M26.9,230.7c0-0.7,0.4-1.6,1-2.2c0.5-0.5,1.4-1,2.2-1c0.7,0,1.6,0.4,2.2,1c0.5,0.5,1,1.3,1,2.2
			s-0.4,1.6-1,2.2c-0.6,0.5-1.3,1-2.2,1c-0.7,0-1.6-0.4-2.2-1C27.1,232.3,26.9,231.5,26.9,230.7z"/>
		<path d="M37.3,231.2c-0.4,0-0.6-0.2-0.7-0.5c-0.9-2.9-3.6-4.9-6.6-4.9s-5.7,2-6.6,4.9c-0.1,0.5-0.5,0.6-1,0.5s-0.6-0.5-0.5-1
			c1.1-3.5,4.3-5.9,8.1-5.9s6.9,2.3,8.1,5.9c0.1,0.4-0.1,0.8-0.5,1C37.5,231.1,37.4,231.2,37.3,231.2z"/>
		<g>
			<line class="st16" x1="24.4" y1="223.1" x2="33.8" y2="232.4"/>
			<line class="st17" x1="22.4" y1="222.2" x2="36.4" y2="236.2"/>
		</g>
	</g>
	<g class="st24">
		<path class="st18" d="M67.9,141L67.9,141L67.9,141L67.9,141z"/>
		<path class="st18" d="M70.9,146.3h4.6c-1.1-3.1-4.1-5.3-7.6-5.3l0,0l0,0C69.3,142.2,70.4,144.1,70.9,146.3z"/>
		<path class="st18" d="M75.5,151.8h-4.6c-0.5,2.2-1.6,4-3,5.3l0,0l0,0C71.4,157.1,74.4,154.9,75.5,151.8z"/>
		<path class="st18" d="M60.3,146.3h4.6c0.5-2.2,1.6-4,3-5.3l0,0C64.4,141,61.4,143.2,60.3,146.3z"/>
		<path class="st18" d="M64.9,151.8h-4.6c1.1,3.1,4.1,5.3,7.6,5.3l0,0C66.4,155.9,65.3,154,64.9,151.8z"/>
		<path class="st18" d="M67.9,157.1c1.4-1.3,2.6-3.1,3-5.3h-6.1C65.3,154,66.4,155.9,67.9,157.1z"/>
		<path class="st18" d="M67.9,141c-1.4,1.3-2.6,3.1-3,5.3H71C70.4,144.1,69.3,142.2,67.9,141z"/>
		<path class="st18" d="M71.2,149c0,1-0.1,1.9-0.3,2.8h4.6c0.3-0.9,0.5-1.8,0.5-2.8s-0.2-1.9-0.5-2.8h-4.6
			C71.1,147.2,71.2,148,71.2,149z"/>
		<path class="st18" d="M64.9,146.3h-4.6c-0.3,0.9-0.5,1.8-0.5,2.8s0.2,1.9,0.5,2.8h4.6c-0.2-0.9-0.3-1.8-0.3-2.8
			S64.7,147.2,64.9,146.3z"/>
		<path class="st18" d="M70.9,146.3h-6.1c-0.2,0.9-0.3,1.8-0.3,2.8s0.1,1.9,0.3,2.8h6.1c0.2-0.9,0.3-1.8,0.3-2.8
			S71.1,147.2,70.9,146.3z"/>
	</g>
	<g class="st24">
		<line class="st35" x1="36.3" y1="477.7" x2="23.7" y2="490.3"/>
		<line class="st35" x1="23.7" y1="477.7" x2="36.3" y2="490.3"/>
	</g>
	<g class="st24">
		<line class="st35" x1="114.3" y1="484" x2="98.1" y2="484"/>
		<line class="st35" x1="106.2" y1="475.9" x2="106.2" y2="492.1"/>
	</g>
	<g class="st24">
		<path class="st21" d="M57.1,58.2h21.6v21.6H57.1V58.2z"/>
		<path class="st21" d="M57.1,58.2h21.6v21.6H57.1V58.2z"/>
		<path d="M62.5,75.3c0,1,0.8,1.8,1.8,1.8h7.2c1,0,1.8-0.8,1.8-1.8V64.5H62.5V75.3z M64.8,68.9l1.3-1.3l1.9,1.9l1.9-1.9l1.3,1.3
			l-1.9,1.9l1.9,1.9L69.9,74L68,72.1l-2,1.8l-1.3-1.3l1.9-1.9L64.8,68.9z M71.1,61.8l-0.9-0.9h-4.5l-0.9,0.9h-3.1v1.8h12.6v-1.8
			H71.1z"/>
	</g>
	<g class="st24">
		<path class="st21" d="M95.6,58.2h21.6v21.6H95.6V58.2z"/>
		<path class="st21" d="M95.6,58.2h21.6v21.6H95.6V58.2z"/>
		<path class="st15" d="M101,75.3c0,1,0.8,1.8,1.8,1.8h7.2c1,0,1.8-0.8,1.8-1.8V64.5H101V75.3z"/>
		<polygon points="103.2,68.9 104.5,67.7 106.4,69.5 108.3,67.7 109.6,68.9 107.7,70.8 109.6,72.7 108.3,73.9 106.4,72.1 
			104.5,73.9 103.2,72.7 105.1,70.8 		"/>
		<polygon points="109.6,61.9 108.7,61 104.2,61 103.2,61.9 100.1,61.9 100.1,63.1 112.7,63.1 112.7,61.9 		"/>
	</g>
	<g class="st24">
		<path class="st14" d="M60.6,110c0.4,0,0.8-0.4,0.8-0.8s-0.5-0.8-0.8-0.8c-0.4,0-0.8,0.4-0.8,0.8S60,110,60.6,110z"/>
		<path class="st14" d="M68,110c0.5,0,0.8-0.4,0.8-0.8s-0.5-0.8-0.8-0.8s-0.8,0.4-0.8,0.8S67.5,110,68,110z"/>
		<path class="st14" d="M75.2,110c0.4,0,0.8-0.4,0.8-0.8s-0.4-0.8-0.8-0.8s-0.8,0.4-0.8,0.8C74.5,109.6,74.7,110,75.2,110z"/>
	</g>
	<g class="st24">
		<line class="st36" x1="99.2" y1="350" x2="113.2" y2="336"/>
		<polyline class="st36" points="113.2,343 113.2,336 106.2,336 		"/>
		<polyline class="st36" points="99.2,343 99.2,350 106.2,350 		"/>
	</g>
	<g class="st24">
		<path d="M114,195.3c0,0.5,0,1.1,0,1.6c-5.3,0-10.7,0-16,0c0-0.5,0-1,0-1.6C103.3,195.3,108.7,195.3,114,195.3z"/>
		<g>
			<path d="M101.3,189.5c2.1-2.1,4.1-4.1,6.2-6.2c0.8,0.8,1.6,1.6,2.4,2.4c-2,2-4.1,4.1-6.2,6.2C103,191.1,102.2,190.3,101.3,189.5z
				"/>
			<path d="M110.5,185.2c-0.8-0.8-1.6-1.6-2.4-2.4c0.6-0.6,1.3-1.3,1.9-1.9c0.8,0.8,1.6,1.6,2.4,2.4
				C111.7,184,111.1,184.6,110.5,185.2z"/>
			<path d="M103.4,192.4c-1.2,0.4-2.4,0.8-3.7,1.2c0.4-1.3,0.8-2.5,1.2-3.7C101.7,190.7,102.5,191.5,103.4,192.4z"/>
		</g>
	</g>
</g>
<g>
	<circle cx="106" cy="266.8" r="8.8"/>
	<g>
		<path class="st37" d="M107.5,269.7c-0.6,0.7-1,1-1.2,1.1c0-0.1,0-0.3,0.1-0.6l0.6-2.9l0.7-2.7l-4,1.3l-0.3,1.5l0.8-0.2
			c0.4-0.1,0.6-0.1,0.7-0.2c0,0.1,0,0.4-0.2,1l-0.4,2c-0.1,0.5-0.1,0.8-0.1,1.1c0,0.9,0.5,1.4,1.3,1.4s1.7-0.5,2.7-1.5l0.1-0.1
			l0.5-2.4L107.5,269.7z"/>
		<circle class="st37" cx="106.2" cy="262.5" r="1.4"/>
	</g>
</g>
<g>
	<path d="M106,236.8c-2,0-4-0.1-6,0s-3-1.9-2.1-3.5c2.1-3.5,4.1-7.1,6.1-10.6c0.6-1.1,1.8-1.5,2.8-1c0.4,0.2,0.8,0.5,1,0.9
		c2.1,3.6,4.2,7.3,6.3,10.9c0.9,1.5-0.2,3.3-1.9,3.3C110.2,236.8,108.1,236.8,106,236.8z M106.9,228.5c0-0.8,0-1.7,0-2.5
		c0-0.7-0.3-1-0.9-1c-0.5,0-0.9,0.4-0.9,1c0,1.7,0,3.3,0,5c0,0.7,0.3,1,0.9,1s0.9-0.4,0.9-1.1C106.9,230.1,106.9,229.3,106.9,228.5z
		 M105.9,235c0.6,0,1.1-0.5,1.2-1.1c0-0.6-0.5-1.1-1.1-1.1s-1.1,0.5-1.2,1.1C104.8,234.5,105.3,235,105.9,235z"/>
	<path class="st37" d="M106.9,228.5c0,0.8,0,1.6,0,2.4c0,0.7-0.3,1.1-0.9,1.1s-0.9-0.4-0.9-1c0-1.7,0-3.3,0-5c0-0.6,0.3-1,0.9-1
		s0.9,0.4,0.9,1C106.9,226.8,106.9,227.7,106.9,228.5z"/>
	<path class="st37" d="M105.9,235c-0.6,0-1.1-0.5-1.1-1.2c0-0.6,0.5-1.1,1.2-1.1c0.6,0,1.1,0.5,1.1,1.1
		C107.1,234.5,106.6,235,105.9,235z"/>
</g>
<g>
	<g>
		<path d="M106,298c3.9,0,7,3.1,7,7s-3.1,7-7,7s-7-3.1-7-7S102.1,298,106,298 M106,296.5c-4.7,0-8.5,3.8-8.5,8.5s3.8,8.5,8.5,8.5
			s8.5-3.8,8.5-8.5S110.7,296.5,106,296.5L106,296.5z"/>
	</g>
	<path d="M107.2,308.4c0.1,0.1,0.2,0.1,0.3,0.2l0,0c-0.3,0.4-0.5,0.9-0.9,1.2c-0.2,0.3-0.5,0.5-0.9,0.6c-0.3,0.1-0.6,0.2-0.9,0.2
		s-0.5-0.1-0.7-0.4c-0.2-0.2-0.3-0.5-0.2-0.8c0-0.3,0.1-0.5,0.2-0.8c0.4-1.2,0.7-2.5,1.1-3.7c0.1-0.2,0.1-0.4,0.1-0.6
		c0-0.1,0-0.1,0-0.2c0-0.2-0.1-0.3-0.2-0.4c-0.1,0-0.2-0.1-0.3-0.1c-0.1,0-0.2,0-0.3,0c0,0,0,0-0.1,0c0-0.1,0.1-0.2,0.1-0.3
		c0.1,0,0.2,0,0.3,0c0.5-0.1,0.9-0.1,1.4-0.2c0.3-0.1,0.7-0.1,1-0.2c0.2,0,0.3,0,0.5,0l0,0c0,0,0,0,0,0.1c-0.5,1.8-1.1,3.7-1.6,5.5
		c-0.1,0.2-0.1,0.4-0.1,0.6c0,0.1,0,0.2,0,0.2c0.1,0.1,0.2,0.1,0.3,0.1c0.1,0,0.1-0.1,0.2-0.1c0.2-0.1,0.3-0.3,0.4-0.5
		C106.9,308.8,107.1,308.6,107.2,308.4L107.2,308.4z"/>
	<path d="M108.3,300.6c0,0.7-0.5,1.2-1.2,1.2c-0.6,0-1.2-0.5-1.2-1.2c0-0.6,0.5-1.2,1.2-1.2S108.3,300,108.3,300.6z"/>
</g>
<g>
	<path d="M149.3,22.2c1.7,0,3.1,0.3,4.4,0.8c1.2,0.5,2.3,1.1,3.3,2c0.4,0.3,0.7,0.7,1.1,1c0.5,0.5,0.4,1.2,0,1.7s-1.2,0.5-1.6,0.1
		c-0.4-0.3-0.7-0.7-1-1c-0.9-0.8-2-1.4-3.1-1.7c-1.7-0.5-3.4-0.5-5.2-0.1c-1,0.3-2,0.8-2.9,1.4c-0.6,0.4-1.1,0.9-1.6,1.4
		c-0.2,0.2-0.5,0.5-0.8,0.5c-0.5,0.1-1-0.2-1.2-0.6c-0.3-0.5-0.3-1,0.1-1.4c0.7-0.8,1.5-1.5,2.3-2.1c1-0.7,2.1-1.3,3.3-1.6
		C147.4,22.3,148.5,22.2,149.3,22.2z"/>
	<path d="M149.8,26.5c1,0,1.9,0.3,2.7,0.7c1,0.5,1.8,1.1,2.5,2c0.4,0.5,0.4,1.1,0,1.7c-0.4,0.4-1,0.6-1.5,0.3
		c-0.3-0.2-0.6-0.5-0.8-0.7c-1.2-1.1-2.5-1.5-4.1-1.1c-0.9,0.2-1.6,0.7-2.2,1.3c-0.2,0.3-0.5,0.5-0.8,0.7c-0.5,0.3-1.2,0.2-1.6-0.3
		c-0.4-0.5-0.5-1.2-0.1-1.6c0.3-0.3,0.6-0.6,0.9-0.9c0.4-0.4,0.8-0.7,1.3-1c0.8-0.5,1.6-0.8,2.5-0.9C149,26.6,149.4,26.6,149.8,26.5
		z"/>
	<path d="M151.6,33.6c0,1.1-0.8,2.1-2,2.1c-1.1,0-2.1-0.8-2.2-2c0-1.1,0.8-2.1,2.1-2.2C150.5,31.5,151.5,32.3,151.6,33.6z"/>
</g>
<g class="st38">
	<path d="M149.3,62.2c1.7,0,3.1,0.3,4.4,0.8c1.2,0.5,2.3,1.1,3.3,2c0.4,0.3,0.7,0.7,1.1,1c0.5,0.5,0.4,1.2,0,1.7s-1.2,0.5-1.6,0.1
		c-0.4-0.3-0.7-0.7-1-1c-0.9-0.8-2-1.4-3.1-1.7c-1.7-0.5-3.4-0.5-5.2-0.1c-1,0.3-2,0.8-2.9,1.4c-0.6,0.4-1.1,0.9-1.6,1.4
		c-0.2,0.2-0.5,0.5-0.8,0.5c-0.5,0.1-1-0.2-1.2-0.6c-0.3-0.5-0.3-1,0.1-1.4c0.7-0.8,1.5-1.5,2.3-2.1c1-0.7,2.1-1.3,3.3-1.6
		C147.4,62.4,148.5,62.2,149.3,62.2z"/>
	<path d="M149.8,66.6c1,0,1.9,0.3,2.7,0.7c1,0.5,1.8,1.1,2.5,2c0.4,0.5,0.4,1.1,0,1.7c-0.4,0.4-1,0.6-1.5,0.3
		c-0.3-0.2-0.6-0.5-0.8-0.7c-1.2-1.1-2.5-1.5-4.1-1.1c-0.9,0.2-1.6,0.7-2.2,1.3c-0.2,0.3-0.5,0.5-0.8,0.7c-0.5,0.3-1.2,0.2-1.6-0.3
		c-0.4-0.5-0.5-1.2-0.1-1.6c0.3-0.3,0.6-0.6,0.9-0.9c0.4-0.4,0.8-0.7,1.3-1c0.8-0.5,1.6-0.8,2.5-0.9C149,66.6,149.4,66.6,149.8,66.6
		z"/>
	<path d="M151.6,73.6c0,1.1-0.8,2.1-2,2.1c-1.1,0-2.1-0.8-2.2-2c0-1.1,0.8-2.1,2.1-2.2C150.5,71.5,151.5,72.4,151.6,73.6z"/>
</g>
<g>
	<line class="st16" x1="144.5" y1="62.9" x2="153.9" y2="72.2"/>
	<line class="st39" x1="142.5" y1="62" x2="156.5" y2="76"/>
</g>
<g>
	<path d="M149.4,157c-4.4-0.1-8-3.7-7.9-8c0-4.5,3.6-8,8.1-8c4.4,0,8,3.7,7.9,8.1C157.4,153.5,153.8,157.1,149.4,157z M149.5,142.1
		c-3.8-0.1-6.9,3-7,6.9c-0.1,3.8,3,6.9,6.8,7s6.9-3,7-6.8C156.5,145.3,153.4,142.1,149.5,142.1z"/>
	<path d="M149.4,150.6c0.7,0,1.5,0,2.2,0c1.2,0,2.3,0.8,2.6,1.9c0.1,0.2,0,0.4-0.1,0.6c-2.3,2.8-7,2.9-9.3,0
		c-0.1-0.1-0.2-0.4-0.1-0.6c0.3-1.1,1.4-1.8,2.6-1.8C148,150.6,148.7,150.6,149.4,150.6z"/>
	<path d="M152.2,147.2c0,1.5-1.2,2.7-2.7,2.7s-2.7-1.2-2.7-2.7s1.2-2.7,2.7-2.7S152.2,145.7,152.2,147.2z"/>
</g>
<path d="M155.5,483.5l-12.2-7c-0.4-0.2-0.9,0.1-0.9,0.5v14c0,0.4,0.5,0.7,0.9,0.5l12.2-7C155.9,484.3,155.9,483.7,155.5,483.5z"/>
<path class="st40" d="M141.8,190.8c-1.8-6.3,3.9-12,10.2-10.2c2.7,0.8,4.8,2.9,5.5,5.5c1.8,6.3-3.9,12-10.2,10.2
	C144.7,195.6,142.6,193.5,141.8,190.8z"/>
<rect id="SVGID_3_" x="146.3" y="185" class="st21" width="6.9" height="6.9"/>
<g>
	<path class="st41" d="M149.7,189.3c1.5,0,2.7,0.6,2.7,1.2v0.9h-5.3v-0.9C147.1,189.8,148.3,189.3,149.7,189.3z M149.7,185.8
		c0.3,0,0.6,0.1,0.9,0.4c0.2,0.2,0.4,0.5,0.4,0.9s-0.1,0.6-0.4,0.9c-0.2,0.2-0.5,0.4-0.9,0.4c-0.3,0-0.6-0.1-0.9-0.4
		c-0.2-0.2-0.4-0.5-0.4-0.9s0.1-0.6,0.4-0.9C149.1,185.9,149.4,185.8,149.7,185.8z"/>
</g>
<g class="st42">
	<path d="M150.3,194.3L150.3,194.3l-0.1,0.1v1.3v0.2h0.2h1.3h0.1l0.1-0.1l4.3-4.3l0.1-0.1l-0.1-0.1l-1.3-1.3l-0.1-0.1l-0.1,0.1
		L150.3,194.3z M155,189.6l-0.1,0.1l0.1,0.1l1.3,1.3l0.1,0.1l0.1-0.1l0.9-0.9l0.1-0.1l-0.1-0.1l-1.3-1.3l-0.1-0.1l-0.1,0.1
		L155,189.6z"/>
	<path class="st37" d="M151.8,196H150v-1.8l0.1-0.1l5.8-5.8l1.8,1.8L151.8,196z M150.4,195.7h1.3l4.3-4.3l-1.3-1.3l-4.3,4.3V195.7z
		 M155.1,189.7L155.1,189.7l1.3,1.3l0.9-0.9l-1.3-1.3L155.1,189.7z"/>
</g>
<path class="st40" d="M140.8,266.8c0-4.8,3.9-8.6,8.6-8.6c5.4,0,9.5,4.9,8.4,10.4c-0.7,3.3-3.3,6-6.6,6.6
	C145.7,276.3,140.8,272.2,140.8,266.8z"/>
<g>
	<path class="st43" d="M152.4,267.8c0.2-0.7,0.2-1.4,0-2l0,0c-0.2-0.6-0.6-1.1-1.1-1.5s-1.1-0.6-1.8-0.6c-0.6,0-1.2,0.2-1.8,0.6
		c-0.5,0.4-0.9,0.9-1.1,1.5l0,0c-0.2,0.7-0.2,1.4,0,2l0,0c0.2,0.6,0.6,1.1,1.1,1.5s1.1,0.6,1.8,0.6s1.2-0.2,1.8-0.6
		C151.7,268.9,152.1,268.4,152.4,267.8C152.3,267.8,152.3,267.8,152.4,267.8L152.4,267.8z M148.6,267.9h1.7c-0.2,0.5-0.5,1-0.8,1.4
		C149.1,269,148.8,268.5,148.6,267.9L148.6,267.9z M148.5,267.6c-0.1-0.5-0.1-1,0-1.6h1.9c0.1,0.5,0.1,1,0,1.6H148.5z M146.8,266.8
		c0-0.3,0-0.5,0.1-0.8h1.3c-0.1,0.5-0.1,1,0,1.6h-1.3C146.8,267.3,146.8,267.1,146.8,266.8z M150.3,265.7h-1.7
		c0.2-0.5,0.5-1,0.8-1.4C149.8,264.6,150.1,265.1,150.3,265.7z M150.8,266h1.3c0.2,0.5,0.2,1.1,0,1.6h-1.3
		C150.9,267.1,150.9,266.5,150.8,266z M151.9,265.7h-1.2c-0.2-0.6-0.4-1.1-0.8-1.5c0.4,0.1,0.9,0.2,1.2,0.5
		C151.4,264.9,151.7,265.3,151.9,265.7z M149.1,264.1c-0.4,0.4-0.7,1-0.8,1.5H147c0.2-0.4,0.5-0.8,0.8-1
		C148.2,264.4,148.6,264.2,149.1,264.1L149.1,264.1z M147,267.9h1.2c0.2,0.6,0.4,1.1,0.8,1.5c-0.4-0.1-0.9-0.2-1.2-0.5
		C147.5,268.7,147.2,268.3,147,267.9z M149.9,269.5c0.4-0.4,0.7-1,0.8-1.5h1.2c-0.2,0.4-0.5,0.8-0.8,1
		C150.7,269.2,150.3,269.4,149.9,269.5z"/>
	<path class="st43" d="M149.5,270L149.5,270c-0.7,0-1.3-0.2-1.9-0.6c-0.5-0.4-1-0.9-1.2-1.6l0,0c-0.2-0.7-0.2-1.4,0-2.1l0,0
		c0.2-0.6,0.6-1.2,1.2-1.5c1.1-0.8,2.6-0.8,3.7,0c0.5,0.4,1,0.9,1.2,1.6l0,0c0.2,0.7,0.2,1.4,0,2.1l0,0c-0.2,0.6-0.6,1.2-1.2,1.5
		C150.8,269.8,150.1,270,149.5,270z M147,268.3c0.2,0.3,0.5,0.6,0.8,0.9c0.4,0.3,0.8,0.4,1.3,0.5l0,0c-0.5-0.1-0.9-0.3-1.3-0.5
		C147.4,268.9,147.2,268.6,147,268.3z M152.1,268L152.1,268c-0.2,0.5-0.5,0.9-0.9,1.1c-0.4,0.3-0.8,0.5-1.3,0.5l0,0
		c0.5-0.1,0.9-0.2,1.3-0.5C151.5,268.9,151.9,268.4,152.1,268z M148.4,267.8L148.4,267.8c0.2,0.6,0.4,1.1,0.8,1.5l0.3,0.3l0.3-0.3
		c0.4-0.4,0.6-0.9,0.8-1.5v-0.1v0.2c-0.2,0.6-0.5,1.1-0.9,1.5l-0.1,0.1l-0.1-0.1c-0.4-0.4-0.7-0.9-0.9-1.5L148.4,267.8z
		 M147.3,268.1c0.2,0.3,0.4,0.5,0.6,0.7c0.2,0.1,0.4,0.3,0.6,0.3c-0.2-0.3-0.4-0.7-0.5-1H147.3z M150.8,268.1
		c-0.1,0.4-0.3,0.7-0.5,1c0.2-0.1,0.4-0.2,0.6-0.3c0.3-0.2,0.5-0.4,0.6-0.7H150.8z M148.9,268.1c0.1,0.4,0.3,0.7,0.6,1
		c0.2-0.3,0.5-0.6,0.6-1H148.9z M152.2,267.8h0.2H152.2L152.2,267.8L152.2,267.8L152.2,267.8z M150.6,267.8L150.6,267.8v-0.2
		c0-0.2,0.1-0.4,0.1-0.6c0,0.2,0,0.5-0.1,0.7V267.8h-2.2v-0.1c0-0.2-0.1-0.5-0.1-0.7c0,0.2,0,0.4,0.1,0.6v0.2H150.6z M146.7,267.6
		L146.7,267.6L146.7,267.6L146.7,267.6z M151,267.4h0.9c0.1-0.4,0.1-0.8,0-1.2H151C151,266.6,151,267,151,267.4z M148.7,267.4h1.6
		c0.1-0.4,0.1-0.8,0-1.2h-1.6C148.6,266.6,148.6,267,148.7,267.4z M147,267.4h0.9c-0.1-0.4-0.1-0.8,0-1.2H147c0,0.2-0.1,0.4-0.1,0.6
		l0,0C146.9,267,147,267.2,147,267.4z M146.7,265.8h1.6v0.2c0,0.2-0.1,0.4-0.1,0.6c0-0.2,0-0.5,0.1-0.7v-0.1h2.2v0.1
		c0,0.2,0.1,0.5,0.1,0.7c0-0.2,0-0.4-0.1-0.6v-0.2h1.6H146.7z M149.5,264l-0.3,0.3c-0.4,0.4-0.7,0.9-0.8,1.5v0.1v-0.2
		c0.2-0.6,0.5-1.1,0.9-1.5L149.5,264l0.1,0.1c0.4,0.4,0.7,0.9,0.9,1.5v0.2v-0.1c-0.1-0.5-0.4-1-0.8-1.5L149.5,264z M149.1,263.9
		c-0.5,0.1-0.9,0.2-1.3,0.5c-0.4,0.3-0.8,0.7-1,1.2l0,0c0.2-0.4,0.5-0.8,0.9-1.1C148.1,264.2,148.6,264,149.1,263.9L149.1,263.9z
		 M150.8,265.5h0.8c-0.2-0.3-0.4-0.5-0.6-0.7c-0.2-0.1-0.4-0.3-0.6-0.3C150.5,264.8,150.7,265.1,150.8,265.5z M148.9,265.5h1.2
		c-0.1-0.4-0.3-0.7-0.6-1C149.2,264.8,149,265.1,148.9,265.5z M147.3,265.5h0.8c0.1-0.4,0.3-0.7,0.5-1c-0.2,0.1-0.4,0.2-0.6,0.3
		C147.7,265,147.5,265.2,147.3,265.5z M149.8,263.9L149.8,263.9c0.5,0.1,1,0.3,1.3,0.5s0.5,0.5,0.7,0.8c-0.2-0.3-0.5-0.6-0.8-0.8
		S150.3,264,149.8,263.9z"/>
</g>
<path class="st40" d="M141.5,228.7c0-5,4.6-9.1,9.9-8c3.2,0.6,5.7,3.2,6.4,6.4c1,5.2-3,9.9-8,9.9
	C145.2,236.9,141.5,233.3,141.5,228.7z"/>
<path class="st44" d="M147.3,231.8h3.7c0.2,0,0.3-0.1,0.4-0.2c0.1-0.1,0.2-0.3,0.2-0.4v-3.7c0-0.2-0.1-0.3-0.2-0.4
	c-0.1-0.1-0.3-0.2-0.4-0.2h-3.7c-0.2,0-0.3,0.1-0.4,0.2c-0.1,0.1-0.2,0.3-0.2,0.4v3.7c0,0.2,0.1,0.3,0.2,0.4
	C146.9,231.7,147.1,231.8,147.3,231.8z M147.9,229h0.9v-0.9h0.6v0.9h0.9v0.6h-0.9v0.9h-0.6v-0.9h-0.9V229z"/>
<path class="st44" d="M152.2,225.6h-3.7v0.6h3.7v3.7h0.6v-3.7C152.8,225.9,152.5,225.6,152.2,225.6z"/>
<g class="st42">
	<path d="M150.3,234.5L150.3,234.5l-0.1,0.1v1.3v0.2h0.2h1.3h0.1l0.1-0.1l4.3-4.3l0.1-0.1l-0.1-0.1l-1.3-1.3l-0.1-0.1l-0.1,0.1
		L150.3,234.5z M155,229.8l-0.1,0.1l0.1,0.1l1.3,1.3l0.1,0.1l0.1-0.1l0.9-0.9l0.1-0.1l-0.1-0.1l-1.3-1.3l-0.1-0.1l-0.1,0.1
		L155,229.8z"/>
	<path class="st37" d="M151.8,236.3H150v-1.8l5.9-5.9l1.8,1.8l-1.3,1.3l0,0L151.8,236.3z M150.4,235.9h1.3l4.3-4.3l-1.3-1.3
		l-4.3,4.3V235.9z M155.1,229.9l1.3,1.3l0.9-0.9L156,229L155.1,229.9z"/>
</g>
<g>
	<g>
		<circle class="st37" cx="149.5" cy="109.2" r="8"/>
		<path class="st45" d="M155.6,114.3c0-0.1,0-0.2-0.1-0.4c-0.2-0.7-0.6-1.3-1.2-1.8c-0.6-0.5-1.4-0.9-2.2-1.1c-0.1,0-0.1,0-0.2,0.1
			c-0.5,0.5-1.1,0.9-1.9,1c-1.1,0.2-2.2-0.1-3-0.9c-0.2-0.2-0.4-0.2-0.6-0.1c-0.8,0.3-1.6,0.7-2.3,1.3c-0.5,0.5-0.8,1-0.9,1.6
			c0,0.1,0,0.1,0,0.2c-2-2.2-2.8-6.6-0.1-10c2.8-3.6,8.1-4.1,11.5-1.1C158.2,106.2,158.2,111.2,155.6,114.3z M149.5,104.1
			c-1,0-1.7,0.4-2.3,1.1c-0.7,0.8-1,1.7-0.9,2.8c0,0.8,0.3,1.5,0.8,2.1c0.6,0.8,1.4,1.2,2.3,1.2c0.8,0,1.5-0.3,2.1-0.9
			c1.3-1.2,1.4-3.4,0.4-4.9C151.3,104.6,150.5,104.1,149.5,104.1z"/>
		<path class="st37" d="M149.5,104.1c1,0,1.8,0.5,2.4,1.4c1,1.5,0.8,3.6-0.4,4.9c-0.6,0.6-1.3,0.9-2.1,0.9c-1,0-1.7-0.5-2.3-1.2
			c-0.5-0.6-0.7-1.3-0.8-2.1c-0.1-1,0.2-2,0.9-2.8C147.8,104.5,148.6,104.1,149.5,104.1z"/>
	</g>
</g>
<circle class="st46" cx="149.5" cy="109.2" r="8"/>
<g>
	<path d="M192.1,37h-5.8c-0.8,0-1.5-0.7-1.5-1.5V22.3c0-0.8,0.7-1.5,1.5-1.5h5.8V37z"/>
	<path d="M201,27.1h-7.3v-6.2h5.8c0.8,0,1.5,0.7,1.5,1.5V27.1z"/>
	<path d="M199.5,37h-5.8v-8.4h7.3v6.9C201,36.4,200.4,37,199.5,37z"/>
</g>
<g>
	<path d="M195.6,74.2c-1.1,0.8-2.5,1.1-4,0.8c-2-0.4-3.5-2.1-3.8-4.1c-0.6-3.6,2.7-6.7,6.3-5.7c1.7,0.4,3,1.7,3.5,3.4
		c0.4,1.5,0.2,2.9-0.5,4l3.9,3.9V65.3l-6.2-6.2h-8.5c-0.8,0-1.5,0.7-1.5,1.5v16.6c0,0.8,0.7,1.5,1.5,1.5h13.9L195.6,74.2z"/>
	<circle cx="192.7" cy="70" r="2.8"/>
</g>
<path d="M184.8,182.3v13.2c0,0.8,0.7,1.5,1.5,1.5h13.2c0.8,0,1.5-0.7,1.5-1.5v-13.2c0-0.8-0.7-1.5-1.5-1.5h-13.2
	C185.3,180.8,184.8,181.5,184.8,182.3z M190.1,193.6h-1.9v-4.7h1.9V193.6z M193.9,193.6H192v-2.8h1.9V193.6z M193.9,188.9H192v-2
	h1.9V188.9z M197.4,193.6h-1.9v-9.3h1.9V193.6z"/>
<path d="M263.8,152.8c-0.4,0-0.9,0.2-1.2,0.4l-2.8-2.1c0.5-0.9,0.4-2-0.2-2.9l3.4-3.3c0.3,0.2,0.6,0.3,0.9,0.3c1,0,1.9-0.8,1.9-1.9
	c0-1-0.8-1.9-1.9-1.9c-1,0-1.9,0.8-1.9,1.9l0,0c0,0.3,0.1,0.7,0.3,0.9l-3.4,3.3c-1.2-0.9-3-0.6-3.9,0.6c-0.1,0.1-0.2,0.2-0.2,0.3
	l-2.2-0.8c-0.1-0.4-0.5-0.7-0.9-0.8c-0.5,0-1,0.4-1,0.9s0.4,1,0.9,1c0,0,0,0,0.1,0c0.2,0,0.4-0.1,0.6-0.2l2.2,0.8c0,0.1,0,0.3,0,0.4
	c0,1.6,1.2,2.8,2.8,2.8c0.7,0,1.5-0.3,2-0.8l2.8,2.1c-0.1,0.2-0.1,0.4-0.1,0.7c0,1,0.8,1.9,1.9,1.9s1.9-0.8,1.9-1.9
	C265.6,153.6,264.8,152.8,263.8,152.8L263.8,152.8z"/>
<rect x="315.2" y="51.4" class="st47" width="20.3" height="16.8"/>
<rect x="315.2" y="181.2" class="st47" width="20.3" height="89.7"/>
<g>
	<path class="st48" d="M322.2,66.5H319c-0.8,0-1.5-0.7-1.5-1.5v-7.3c0-0.8,0.7-1.5,1.5-1.5h3.1v10.3H322.2z"/>
	<path class="st48" d="M327.8,60.2h-4.6v-3.9h3.1c0.8,0,1.5,0.7,1.5,1.5V60.2z"/>
	<path class="st48" d="M326.3,66.5h-3.1v-5.3h4.6V65C327.8,65.8,327.1,66.5,326.3,66.5z"/>
</g>
<g>
	<path d="M298.7,349.8h-5c-1.3,0-2.4-1.1-2.4-2.4V336c0-1.3,1.1-2.4,2.4-2.4h4.9v16.2L298.7,349.8L298.7,349.8z"/>
	<path d="M307.5,339.9h-7.2v-6.1h4.9c1.3,0,2.4,1.1,2.4,2.4L307.5,339.9L307.5,339.9z"/>
	<path d="M305.1,349.8h-4.9v-8.3h7.2v6C307.5,348.7,306.4,349.8,305.1,349.8z"/>
</g>
<g>
	<path class="st49" d="M324.4,193.1c-0.7,0.5-1.6,0.7-2.6,0.5c-1.2-0.3-2.2-1.3-2.4-2.6c-0.4-2.3,1.7-4.2,4-3.6
		c1.1,0.3,1.9,1.1,2.2,2.1c0.3,0.9,0.1,1.8-0.3,2.5l2.5,2.5v-7.1l-3.9-3.9h-5.4c-0.5,0-0.9,0.4-0.9,0.9v10.5c0,0.5,0.4,0.9,0.9,0.9
		h8.8L324.4,193.1z"/>
	<circle class="st49" cx="322.5" cy="190.5" r="1.8"/>
</g>
<path class="st49" d="M265.6,271.9v8.4c0,0.5,0.4,0.9,0.9,0.9h8.4c0.5,0,0.9-0.4,0.9-0.9v-8.4c0-0.5-0.4-0.9-0.9-0.9h-8.4
	C266,270.9,265.6,271.3,265.6,271.9z M269,279h-1.2v-2.9h1.2V279z M271.3,279h-1.2v-1.8h1.2V279z M271.3,276.1h-1.2v-1.3h1.2V276.1z
	 M273.5,279h-1.2v-5.9h1.2V279z"/>
<g>
	<polyline class="st50" points="248.6,224.4 251.3,218.5 255.7,220.5 258.1,215.2 	"/>
	<ellipse class="st49" cx="248.7" cy="224.5" rx="1.3" ry="1.3"/>
	<ellipse class="st49" cx="251.4" cy="218.4" rx="1.3" ry="1.3"/>
	
		<ellipse transform="matrix(0.7204 -0.6936 0.6936 0.7204 -81.4019 238.9078)" class="st49" cx="255.6" cy="220.4" rx="1.3" ry="1.3"/>
	<ellipse class="st49" cx="258.1" cy="215.3" rx="1.3" ry="1.3"/>
</g>
<path d="M184.8,142.8v14.3l3.1-3.2H199c1.1,0,1.9-0.9,1.9-1.9v-9.2c0-1.1-0.9-1.9-1.9-1.9h-12.3
	C185.7,140.9,184.8,141.8,184.8,142.8z M193.9,151.5h-1.7v-1.7h1.7V151.5z M193.9,148.3h-1.7v-4.9h1.7V148.3z"/>
<g>
	<path d="M257.3,257.8c0.4,0,0.7-0.2,1.1-0.5c0.4-0.4,0.5-0.6,0.5-1.1h-3.2c0,0.4,0.2,0.7,0.5,1.1
		C256.6,257.6,256.9,257.8,257.3,257.8z"/>
	<path d="M262.5,253v-4.5c0-2.4-1.7-4.6-4-5.1v-0.5c0-0.4-0.1-0.6-0.4-0.9c-0.2-0.2-0.5-0.4-0.9-0.4s-0.6,0.1-0.9,0.4
		c-0.2,0.2-0.4,0.5-0.4,0.9v0.5c-2.3,0.5-4,2.6-4,5.1v4.5l-1.6,1.6v0.7h13.6v-0.7L262.5,253z M258,252.5h-1.4v-1.4h1.4V252.5z
		 M258,250h-1.4v-3.8h1.4V250z"/>
</g>
<g>
	<path class="st49" d="M267.6,232.8c0.3,0,0.5-0.2,0.8-0.4c0.3-0.3,0.4-0.5,0.4-0.8h-2.4c0,0.3,0.2,0.5,0.4,0.8
		C267.1,232.6,267.3,232.8,267.6,232.8z"/>
	<path class="st49" d="M271.6,229.2v-3.4c0-1.8-1.3-3.5-3-3.8v-0.4c0-0.3-0.1-0.5-0.3-0.7c-0.2-0.2-0.4-0.3-0.7-0.3
		c-0.3,0-0.5,0.1-0.7,0.3s-0.3,0.4-0.3,0.7v0.4c-1.7,0.4-3,2-3,3.8v3.4l-1.2,1.2v0.5h10.3v-0.5L271.6,229.2z M268.2,228.8h-1v-1h1
		V228.8z M268.2,226.9h-1V224h1V226.9z"/>
</g>
<path class="st49" d="M317.5,247.5v9l2-2h7c0.7,0,1.2-0.5,1.2-1.2v-5.8c0-0.7-0.5-1.2-1.2-1.2h-7.8
	C318.1,246.3,317.5,246.9,317.5,247.5z M323.3,253h-1.1v-1.1h1.1V253z M323.3,251h-1.1v-3.1h1.1V251z"/>
<path class="st49" d="M280.2,222.8L280.2,222.8c-0.3,0-0.6,0.1-0.8,0.3l-1.9-1.4c0.3-0.6,0.3-1.4-0.1-1.9l2.3-2.3
	c0.2,0.1,0.4,0.2,0.6,0.2c0.7,0,1.3-0.6,1.3-1.3s-0.6-1.3-1.3-1.3c-0.7,0-1.3,0.6-1.3,1.3l0,0c0,0.2,0.1,0.4,0.2,0.6l-2.3,2.3
	c-0.8-0.6-2-0.4-2.6,0.4c-0.1,0.1-0.1,0.2-0.1,0.2l-0.9-0.3v-0.1c0-0.6-0.5-1.1-1.1-1.1s-1.1,0.5-1.1,1.1s0.5,1.1,1.1,1.1
	c0.3,0,0.6-0.2,0.8-0.4l1,0.3c0,0.1,0,0.2,0,0.3c0,1.1,0.8,1.9,1.9,1.9c0.5,0,1-0.2,1.4-0.5l1.9,1.4c-0.1,0.1-0.1,0.3-0.1,0.5
	c0,0.7,0.6,1.3,1.3,1.3c0.7,0,1.3-0.6,1.3-1.3C281.5,223.3,280.9,222.8,280.2,222.8z"/>
<g>
	<path class="st49" d="M276.5,190.7c-1.7,0-3.1,0.7-4.2,2.1c-1.4,1.9-1.3,4.4,0.2,6.2c1.2,1.4,2.3,2.7,3.5,4.1
		c0.4,0.4,0.5,0.4,0.9,0c1.2-1.4,2.3-2.7,3.5-4.1c0.5-0.5,0.8-1.1,1-1.8C282.3,194,279.8,190.7,276.5,190.7z"/>
	<g>
		<line class="st51" x1="274.5" y1="193.6" x2="274.5" y2="199.3"/>
		<line class="st51" x1="278.4" y1="193.6" x2="278.4" y2="199.3"/>
		<line class="st51" x1="274.4" y1="196.4" x2="278.4" y2="196.4"/>
	</g>
</g>
<g>
	<rect x="191.7" y="114.4" width="2.5" height="3.3"/>
	<rect x="198.2" y="107.9" width="3.3" height="2.5"/>
	<rect x="191.7" y="100.7" width="2.5" height="3.3"/>
	<rect x="184.4" y="107.9" width="3.3" height="2.5"/>
	<path d="M192.9,115.6c-3.5,0-6.4-2.9-6.4-6.4s2.9-6.4,6.4-6.4s6.4,2.9,6.4,6.4C199.3,112.7,196.4,115.6,192.9,115.6z M192.9,105.3
		c-2.1,0-3.9,1.7-3.9,3.9c0,2.1,1.7,3.9,3.9,3.9s3.9-1.7,3.9-3.9C196.8,107.1,195.1,105.3,192.9,105.3z"/>
</g>
<path class="st11" d="M31.6,63.4c0-0.4-0.2-0.8-0.4-1s-0.6-0.4-1-0.4s-0.8,0.2-1,0.4c-0.3,0.3-0.4,0.6-0.4,1h-1
	c0-0.6,0.3-1.3,0.7-1.7c0.5-0.5,1.1-0.7,1.7-0.7s1.3,0.3,1.7,0.7c0.5,0.5,0.7,1.1,0.7,1.7H37c0.1,0,0.3,0.1,0.3,0.1
	c0.1,0.1,0.1,0.2,0.1,0.3s-0.1,0.3-0.1,0.3c-0.1,0.1-0.2,0.1-0.3,0.1h-0.5l-1.3,10.9c-0.1,0.5-0.3,0.9-0.6,1.2
	c-0.4,0.3-0.8,0.5-1.3,0.5h-6.1c-0.5,0-0.9-0.2-1.3-0.5s-0.6-0.8-0.6-1.2L24,64.2h-0.5c-0.1,0-0.2,0-0.3-0.1
	c-0.1-0.1-0.1-0.2-0.2-0.3v-0.1c0-0.1,0.1-0.3,0.1-0.3c0.1-0.1,0.2-0.1,0.3-0.1L31.6,63.4L31.6,63.4z M35.4,64.4H24.9l1.2,10.8
	c0,0.2,0.1,0.5,0.3,0.6C26.6,76,26.8,76,27,76h6.1c0.2,0,0.5-0.1,0.6-0.2c0.2-0.2,0.3-0.4,0.3-0.6L35.4,64.4z M28.7,66.8
	c0.2,0,0.4,0.2,0.5,0.3v0.1v5.9c0,0.2-0.2,0.4-0.5,0.4c-0.2,0-0.4-0.2-0.5-0.3v-0.1v-5.9C28.2,67,28.4,66.8,28.7,66.8L28.7,66.8z
	 M31.6,66.8c0.2,0,0.4,0.2,0.5,0.3v0.1v5.9c0,0.2-0.2,0.4-0.5,0.4c-0.2,0-0.4-0.2-0.5-0.3v-0.1v-5.9C31.1,67,31.3,66.8,31.6,66.8
	L31.6,66.8z"/>
<path class="st52" d="M240.2,226.6c-0.7,0-1.4,0-2.1,0c0,2.9,0,5.9,0,8.9c-1.5,0-3,0-4.5,0v-0.8c1.2,0,2.4,0,3.7,0
	c0-1.7,0-3.5,0-5.2c-1.2,0-2.4,0-3.7,0v-0.8c1.2,0,2.4,0,3.7,0c0-1.7,0-3.5,0-5.2c-1.2,0-2.4,0-3.7,0v-0.8c1.5,0,3,0,4.5,0
	c0,1,0,2,0,3.1c0.7,0,1.4,0,2.1,0V226.6z"/>
<path d="M197.1,224.1c0,0.6,0,1.2,0,1.7c-0.8,0-1.6,0-2.4,0c0-1,0-2,0-3.1c-1.7,0-3.4,0-5,0c0-0.6,0-1.2,0-1.7c-1.6,0-3.2,0-4.8,0
	c0,1.3,0,2.6,0,3.9h4.8c0-0.5,0-1,0-1.4c1.4,0,2.7,0,4.1,0c0,1.7,0,3.5,0,5.2c-1.4,0-2.7,0-4.1,0c0-0.5,0-0.9,0-1.3h-4.8
	c0,1.2,0,2.4,0,3.6h4.8c0-0.5,0-1,0-1.4c1.4,0,2.7,0,4.1,0c0,1.7,0,3.5,0,5.2c-1.4,0-2.7,0-4.1,0c0-0.4,0-0.9,0-1.3h-4.8
	c0,1.3,0,2.6,0,3.8c1.6,0,3.2,0,4.8,0c0-0.6,0-1.2,0-1.7c1.7,0,3.3,0,5,0c0-3,0-5.9,0-8.9c0.8,0,1.6,0,2.4,0c0,0.6,0,1.2,0,1.7
	c1.6,0,3.2,0,4.8,0c0-1.4,0-2.8,0-4.3C200.3,224.1,198.7,224.1,197.1,224.1z"/>
</svg>
